<svg xmlns="http://www.w3.org/2000/svg" data-name="Layer 2" viewBox="0 0 48 48"><path d="M6.93 39.724H5.911a1.9 1.9 0 0 1-1.8-1.3l-.323-.981a.232.232 0 0 0-.441 0l-.324.984a1.89 1.89 0 0 1-1.8 1.3H.232a.232.232 0 0 0-.136.42l.815.592a1.891 1.891 0 0 1 .683 2.127l-.316.95a.233.233 0 0 0 .358.262l.82-.594a1.891 1.891 0 0 1 2.221 0l.831.6a.233.233 0 0 0 .359-.26l-.314-.969a1.889 1.889 0 0 1 .689-2.112l.824-.6A.232.232 0 0 0 6.93 39.724zM17.14 39.724H16.12a1.9 1.9 0 0 1-1.8-1.3L14 37.439a.232.232 0 0 0-.441 0l-.323.984a1.891 1.891 0 0 1-1.8 1.3h-.993a.232.232 0 0 0-.137.42l.815.592a1.89 1.89 0 0 1 .683 2.127l-.316.95a.233.233 0 0 0 .358.262l.82-.594a1.893 1.893 0 0 1 2.222 0l.831.6a.233.233 0 0 0 .358-.26l-.313-.969a1.889 1.889 0 0 1 .688-2.112l.825-.6A.232.232 0 0 0 17.14 39.724zM27.349 39.724H26.33a1.9 1.9 0 0 1-1.8-1.3l-.322-.981a.232.232 0 0 0-.441 0l-.324.984a1.891 1.891 0 0 1-1.8 1.3h-.993a.232.232 0 0 0-.136.42l.815.592a1.891 1.891 0 0 1 .683 2.127l-.317.95a.233.233 0 0 0 .358.262l.82-.594a1.893 1.893 0 0 1 2.222 0l.831.6a.232.232 0 0 0 .358-.26l-.313-.969a1.889 1.889 0 0 1 .689-2.112l.824-.6A.232.232 0 0 0 27.349 39.724zM37.558 39.724H36.539a1.9 1.9 0 0 1-1.8-1.3l-.323-.981a.232.232 0 0 0-.441 0l-.323.984a1.892 1.892 0 0 1-1.8 1.3H30.86a.232.232 0 0 0-.136.42l.815.592a1.891 1.891 0 0 1 .683 2.127l-.316.95a.233.233 0 0 0 .358.262l.82-.594a1.893 1.893 0 0 1 2.222 0l.83.6a.233.233 0 0 0 .359-.26l-.314-.969a1.889 1.889 0 0 1 .689-2.112l.824-.6A.232.232 0 0 0 37.558 39.724zM47.768 39.724h-1.02a1.9 1.9 0 0 1-1.8-1.3l-.323-.981a.231.231 0 0 0-.44 0l-.324.984a1.891 1.891 0 0 1-1.8 1.3H41.07a.232.232 0 0 0-.136.42l.814.592a1.89 1.89 0 0 1 .683 2.127l-.316.95a.233.233 0 0 0 .358.262l.82-.594a1.893 1.893 0 0 1 2.222 0l.831.6a.233.233 0 0 0 .358-.26l-.313-.969a1.889 1.889 0 0 1 .689-2.112l.824-.6A.232.232 0 0 0 47.768 39.724z"/><rect width="6.449" height="18.678" x="8.65" y="14.744"/><path d="M36.99,16.161H27.224a.284.284,0,0,1-.24-.439A13.888,13.888,0,0,0,29.31,9.794c.172-2.062-.443-5.923-3.479-5.923-3.093,0-2.773,2.988-3.232,4.733-.429,1.632-.935,2.908-3.555,5.227A18.522,18.522,0,0,0,16.66,16.58V31.1s4.273,2.33,5.67,2.33H35.959a1.976,1.976,0,0,0,1.975-1.976h0c0-1.091-.369-1.976-1.46-1.976a1.976,1.976,0,1,0,0-3.951,2.494,2.494,0,0,0,2.491-1.976v-.73a1.976,1.976,0,0,0-1.975-1.976,1.976,1.976,0,0,0,1.975-1.976v-.73A1.976,1.976,0,0,0,36.99,16.161Z"/></svg>