<svg xmlns="http://www.w3.org/2000/svg" data-name="Layer 26" viewBox="0 0 24 24"><path d="M21,13a1,1,0,0,0-1,1v3a3,3,0,0,1-3,3H7a3,3,0,0,1-3-3V7A3,3,0,0,1,7,4h3a1,1,0,0,0,0-2H7A5.006,5.006,0,0,0,2,7V17a5.006,5.006,0,0,0,5,5H17a5.006,5.006,0,0,0,5-5V14A1,1,0,0,0,21,13Z"/><path d="M21,2H13a1,1,0,0,0-1,1V4a1,1,0,0,0,.293.707l1.379,1.38L8.1,13.344a1.831,1.831,0,0,0,1.483,2.9,1.9,1.9,0,0,0,1.1-.36l7.229-5.555,1.379,1.38A1,1,0,0,0,20,12h1a1,1,0,0,0,1-1V3A1,1,0,0,0,21,2ZM20,9.586L18.707,8.293a1,1,0,0,0-1.316-.086l-6.9,5.3,5.3-6.9a1,1,0,0,0-.086-1.316L14.414,4H20V9.586Z"/></svg>