<svg xmlns="http://www.w3.org/2000/svg" viewBox="0 0 64 64"><g data-name="Glyph"><path d="M6 37.9v5.69A2 2 0 0 0 9.41 45l7-7H31a5 5 0 0 0 5-5V13a5 5 0 0 0-5-5H7a5 5 0 0 0-5 5v20a5.009 5.009 0 0 0 4 4.9Zm6-19.4a5 5 0 0 1 5-5h3a5 5 0 0 1 5 5v8.93l1.52 1.77a2 2 0 0 1-3.04 2.6l-.36-.42A4.976 4.976 0 0 1 20 32.5h-3a5 5 0 0 1-5-5Z"/><path d="M57 19.21H38.5a.5.5 0 0 0-.5.5V33a7 7 0 0 1-7 7h-2.5a.5.5 0 0 0-.5.5v3.71a5.008 5.008 0 0 0 5 5h14.59l7 7A2 2 0 0 0 58 54.79v-5.68a5.017 5.017 0 0 0 4-4.9v-20a5 5 0 0 0-5-5zM52 41.5a2 2 0 0 1-4 0v-4h-5v4a2 2 0 0 1-4 0V31a6.5 6.5 0 0 1 13 0zM23 47v3a1 1 0 0 0 2 0v-3a1 1 0 0 0-2 0zm-6-5a1 1 0 0 0 0 2h3a1 1 0 0 0 0-2zm25-30V9a1 1 0 0 0-2 0v3a1 1 0 0 0 2 0zm6 5a1 1 0 0 0 0-2h-3a1 1 0 0 0 0 2z"/><path d="M45.5 28.5A2.5 2.5 0 0 0 43 31v2.5h5V31a2.5 2.5 0 0 0-2.5-2.5Z"/><rect width="5" height="11" x="16" y="17.5" rx="1"/></g></svg>