<svg width="84" height="24" viewBox="0 0 84 24" fill="none" xmlns="http://www.w3.org/2000/svg">
<path d="M0.968 1.248H7.064C8.152 1.248 9.136 1.424 10.016 1.776C10.912 2.128 11.672 2.656 12.296 3.36C12.936 4.048 13.424 4.92 13.76 5.976C14.112 7.016 14.288 8.232 14.288 9.624C14.288 11.016 14.112 12.24 13.76 13.296C13.424 14.336 12.936 15.208 12.296 15.912C11.672 16.6 10.912 17.12 10.016 17.472C9.136 17.824 8.152 18 7.064 18H0.968V1.248ZM7.064 15.192C8.248 15.192 9.184 14.848 9.872 14.16C10.576 13.456 10.928 12.384 10.928 10.944V8.304C10.928 6.864 10.576 5.8 9.872 5.112C9.184 4.408 8.248 4.056 7.064 4.056H4.136V15.192H7.064ZM18.8589 3.648C18.2189 3.648 17.7549 3.504 17.4669 3.216C17.1949 2.928 17.0589 2.56 17.0589 2.112V1.632C17.0589 1.184 17.1949 0.815999 17.4669 0.527999C17.7549 0.239999 18.2189 0.0959988 18.8589 0.0959988C19.4829 0.0959988 19.9389 0.239999 20.2269 0.527999C20.5149 0.815999 20.6589 1.184 20.6589 1.632V2.112C20.6589 2.56 20.5149 2.928 20.2269 3.216C19.9389 3.504 19.4829 3.648 18.8589 3.648ZM17.3229 5.472H20.3949V18H17.3229V5.472ZM35.2597 19.056C35.2597 19.712 35.1397 20.288 34.8997 20.784C34.6757 21.296 34.2997 21.72 33.7717 22.056C33.2437 22.392 32.5637 22.648 31.7317 22.824C30.8997 23 29.8837 23.088 28.6837 23.088C27.6277 23.088 26.7317 23.016 25.9957 22.872C25.2597 22.744 24.6517 22.552 24.1717 22.296C23.7077 22.056 23.3717 21.752 23.1637 21.384C22.9557 21.016 22.8517 20.6 22.8517 20.136C22.8517 19.432 23.0437 18.88 23.4277 18.48C23.8277 18.096 24.3797 17.848 25.0837 17.736V17.472C24.5717 17.344 24.1717 17.096 23.8837 16.728C23.6117 16.344 23.4757 15.896 23.4757 15.384C23.4757 15.064 23.5397 14.784 23.6677 14.544C23.7957 14.288 23.9637 14.072 24.1717 13.896C24.3957 13.72 24.6437 13.576 24.9157 13.464C25.1877 13.336 25.4757 13.24 25.7797 13.176V13.08C25.0117 12.728 24.4357 12.24 24.0517 11.616C23.6837 10.992 23.4997 10.264 23.4997 9.432C23.4997 8.152 23.9397 7.128 24.8197 6.36C25.6997 5.576 26.9877 5.184 28.6837 5.184C29.0677 5.184 29.4437 5.208 29.8117 5.256C30.1957 5.304 30.5477 5.384 30.8677 5.496V5.088C30.8677 3.872 31.4597 3.264 32.6437 3.264H34.5877V5.616H31.9237V5.952C32.5797 6.32 33.0677 6.8 33.3877 7.392C33.7077 7.984 33.8677 8.664 33.8677 9.432C33.8677 10.696 33.4277 11.712 32.5477 12.48C31.6837 13.248 30.3957 13.632 28.6837 13.632C27.9477 13.632 27.3077 13.56 26.7637 13.416C26.5237 13.528 26.3157 13.68 26.1397 13.872C25.9637 14.048 25.8757 14.272 25.8757 14.544C25.8757 15.168 26.4197 15.48 27.5077 15.48H30.8677C32.4037 15.48 33.5157 15.8 34.2037 16.44C34.9077 17.064 35.2597 17.936 35.2597 19.056ZM32.3797 19.416C32.3797 19.016 32.2197 18.704 31.8997 18.48C31.5797 18.256 31.0277 18.144 30.2437 18.144H25.9717C25.5397 18.464 25.3237 18.896 25.3237 19.44C25.3237 19.92 25.5237 20.296 25.9237 20.568C26.3237 20.84 27.0037 20.976 27.9637 20.976H29.4997C30.5077 20.976 31.2357 20.848 31.6837 20.592C32.1477 20.336 32.3797 19.944 32.3797 19.416ZM28.6837 11.544C30.1877 11.544 30.9397 10.904 30.9397 9.624V9.216C30.9397 7.936 30.1877 7.296 28.6837 7.296C27.1797 7.296 26.4277 7.936 26.4277 9.216V9.624C26.4277 10.904 27.1797 11.544 28.6837 11.544ZM38.5698 3.648C37.9298 3.648 37.4658 3.504 37.1778 3.216C36.9058 2.928 36.7698 2.56 36.7698 2.112V1.632C36.7698 1.184 36.9058 0.815999 37.1778 0.527999C37.4658 0.239999 37.9298 0.0959988 38.5698 0.0959988C39.1938 0.0959988 39.6498 0.239999 39.9378 0.527999C40.2258 0.815999 40.3698 1.184 40.3698 1.632V2.112C40.3698 2.56 40.2258 2.928 39.9378 3.216C39.6498 3.504 39.1938 3.648 38.5698 3.648ZM37.0338 5.472H40.1058V18H37.0338V5.472ZM47.5619 18V11.424L41.8259 1.248H45.3779L49.2419 8.328H49.2899L53.0579 1.248H56.5139L50.7539 11.4V18H47.5619ZM65.1234 15.912H65.0034C64.8914 16.232 64.7394 16.536 64.5474 16.824C64.3714 17.096 64.1394 17.344 63.8514 17.568C63.5794 17.792 63.2434 17.968 62.8434 18.096C62.4594 18.224 62.0114 18.288 61.4994 18.288C60.2034 18.288 59.2114 17.864 58.5234 17.016C57.8354 16.168 57.4914 14.96 57.4914 13.392V5.472H60.5634V13.08C60.5634 13.944 60.7314 14.608 61.0674 15.072C61.4034 15.52 61.9394 15.744 62.6754 15.744C62.9794 15.744 63.2754 15.704 63.5634 15.624C63.8674 15.544 64.1314 15.424 64.3554 15.264C64.5794 15.088 64.7634 14.88 64.9074 14.64C65.0514 14.384 65.1234 14.088 65.1234 13.752V5.472H68.1954V18H65.1234V15.912ZM83.0488 19.056C83.0488 19.712 82.9288 20.288 82.6888 20.784C82.4648 21.296 82.0888 21.72 81.5608 22.056C81.0328 22.392 80.3528 22.648 79.5208 22.824C78.6888 23 77.6728 23.088 76.4728 23.088C75.4168 23.088 74.5208 23.016 73.7848 22.872C73.0488 22.744 72.4408 22.552 71.9608 22.296C71.4968 22.056 71.1608 21.752 70.9528 21.384C70.7448 21.016 70.6408 20.6 70.6408 20.136C70.6408 19.432 70.8328 18.88 71.2168 18.48C71.6168 18.096 72.1688 17.848 72.8728 17.736V17.472C72.3608 17.344 71.9608 17.096 71.6728 16.728C71.4008 16.344 71.2648 15.896 71.2648 15.384C71.2648 15.064 71.3288 14.784 71.4568 14.544C71.5848 14.288 71.7528 14.072 71.9608 13.896C72.1848 13.72 72.4328 13.576 72.7048 13.464C72.9768 13.336 73.2648 13.24 73.5688 13.176V13.08C72.8008 12.728 72.2248 12.24 71.8408 11.616C71.4728 10.992 71.2888 10.264 71.2888 9.432C71.2888 8.152 71.7288 7.128 72.6088 6.36C73.4888 5.576 74.7768 5.184 76.4728 5.184C76.8568 5.184 77.2328 5.208 77.6008 5.256C77.9848 5.304 78.3368 5.384 78.6568 5.496V5.088C78.6568 3.872 79.2488 3.264 80.4328 3.264H82.3768V5.616H79.7128V5.952C80.3688 6.32 80.8568 6.8 81.1768 7.392C81.4968 7.984 81.6568 8.664 81.6568 9.432C81.6568 10.696 81.2168 11.712 80.3368 12.48C79.4728 13.248 78.1848 13.632 76.4728 13.632C75.7368 13.632 75.0968 13.56 74.5528 13.416C74.3128 13.528 74.1048 13.68 73.9288 13.872C73.7528 14.048 73.6648 14.272 73.6648 14.544C73.6648 15.168 74.2088 15.48 75.2968 15.48H78.6568C80.1928 15.48 81.3048 15.8 81.9928 16.44C82.6968 17.064 83.0488 17.936 83.0488 19.056ZM80.1688 19.416C80.1688 19.016 80.0088 18.704 79.6888 18.48C79.3688 18.256 78.8168 18.144 78.0328 18.144H73.7608C73.3288 18.464 73.1128 18.896 73.1128 19.44C73.1128 19.92 73.3128 20.296 73.7128 20.568C74.1128 20.84 74.7928 20.976 75.7528 20.976H77.2888C78.2968 20.976 79.0248 20.848 79.4728 20.592C79.9368 20.336 80.1688 19.944 80.1688 19.416ZM76.4728 11.544C77.9768 11.544 78.7288 10.904 78.7288 9.624V9.216C78.7288 7.936 77.9768 7.296 76.4728 7.296C74.9688 7.296 74.2168 7.936 74.2168 9.216V9.624C74.2168 10.904 74.9688 11.544 76.4728 11.544Z" fill="#A21B31"/>
</svg>
