<svg xmlns="http://www.w3.org/2000/svg" data-name="Layer 1" viewBox="0 0 48 48"><path fill="#f7f6f5" d="M37,16.74V40a5.00181,5.00181,0,0,1-5,5H8a5.00181,5.00181,0,0,1-5-5V8A5.00181,5.00181,0,0,1,8,3H23.46a3.26755,3.26755,0,0,1,.54.04A4.9902,4.9902,0,0,1,27.03,4.5l8.55005,8.74A4.95424,4.95424,0,0,1,36.93994,16,4.51964,4.51964,0,0,1,37,16.74Z"/><path fill="#007da1" d="M18 13H10a1 1 0 010-2h8a1 1 0 010 2zM24 19H10a1 1 0 010-2H24a1 1 0 010 2zM26 25H10a1 1 0 010-2H26a1 1 0 010 2zM20 31H10a1 1 0 010-2H20a1 1 0 010 2zM20 37H10a1 1 0 010-2H20a1 1 0 010 2z"/><path fill="#13e4ea" d="M36.93994 16H29a5.00181 5.00181 0 01-5-5V3.04A4.9902 4.9902 0 0127.03 4.5l8.55005 8.74A4.95424 4.95424 0 0136.93994 16zM43.459 26.24414a29.93589 29.93589 0 01-8.376-3.7793v-.001a2 2 0 00-2.166.001 29.91625 29.91625 0 01-8.375 3.77832A2.00677 2.00677 0 0023 28.18848v1.708A14.96944 14.96944 0 0029.67969 42.377l3.21 2.13965a1.98933 1.98933 0 002.21973.001L38.32031 42.377A14.96944 14.96944 0 0045 29.89648v-1.708A2.00448 2.00448 0 0043.459 26.24414z"/><path fill="#f7f6f5" d="M33,36a.99676.99676,0,0,1-.707-.293l-2-2A.99989.99989,0,0,1,31.707,32.293L33,33.58594l3.293-3.293A.99989.99989,0,1,1,37.707,31.707l-4,4A.99676.99676,0,0,1,33,36Z"/><path fill="#007da1" d="M32,45H8a5.00588,5.00588,0,0,1-5-5V8A5.00588,5.00588,0,0,1,8,3H23.46a5.01621,5.01621,0,0,1,3.57715,1.50293l8.53809,8.73828A4.99093,4.99093,0,0,1,37,16.74023v7.4502a1,1,0,0,1-2,0v-7.4502a2.99829,2.99829,0,0,0-.85645-2.10253L25.60547,5.89941A3.00539,3.00539,0,0,0,23.46,5H8A3.00328,3.00328,0,0,0,5,8V40a3.00328,3.00328,0,0,0,3,3H32a2.87127,2.87127,0,0,0,1.09863-.21387.99963.99963,0,1,1,.76367,1.84766A4.84459,4.84459,0,0,1,32,45Z"/><path fill="#007da1" d="M31.58984 16H29a5.00588 5.00588 0 01-5-5V4.30957a1 1 0 012 0V11a3.00328 3.00328 0 003 3h2.58984a1 1 0 010 2zM34 44.85547a1.99354 1.99354 0 01-1.11035-.33887l-3.21-2.13965A14.96944 14.96944 0 0123 29.89648v-1.708a2.00677 2.00677 0 011.542-1.94532 29.91625 29.91625 0 008.375-3.77832 2 2 0 012.166-.001v.001a29.93589 29.93589 0 008.376 3.7793A2.00448 2.00448 0 0145 28.18848v1.708A14.96944 14.96944 0 0138.32031 42.377l-3.21093 2.14063A1.99719 1.99719 0 0134 44.85547zm-.00293-20.71192a31.843 31.843 0 01-8.97754 4.042L25 29.89648a12.97259 12.97259 0 005.78906 10.81641L34 42.85352l3.21094-2.14063A12.97259 12.97259 0 0043 29.89648v-1.708a31.99215 31.99215 0 01-9.001-4.043z"/></svg>