<svg width="24" height="24" viewBox="0 0 24 24" fill="none" xmlns="http://www.w3.org/2000/svg">
<path d="M17.0571 0C20.8853 0 24 3.35341 24 7.47652V16.5235C24 20.6466 20.8853 24 17.0571 24C16.6155 24 16.2571 23.614 16.2571 23.1384C16.2571 22.6628 16.6155 22.2768 17.0571 22.2768C20.0032 22.2768 22.4 19.6965 22.4 16.5235V9.30314H18.4597C17.1659 9.30429 16.1109 10.4393 16.1099 11.834C16.1109 13.2287 17.1659 14.3637 18.4597 14.3648H20.0971C20.5387 14.3648 20.8971 14.7508 20.8971 15.2265C20.8971 15.7021 20.5387 16.0881 20.0971 16.0881H18.4597C16.2827 16.0869 14.5109 14.1787 14.5099 11.834C14.5109 9.48925 16.2827 7.58106 18.4597 7.57991H22.4V7.47652C22.4 4.30348 20.0032 1.72323 17.0571 1.72323H6.94187C4.56747 1.72323 2.57493 3.4097 1.88053 5.71997H12.4256C12.8672 5.71997 13.2256 6.10598 13.2256 6.58159C13.2256 7.05835 12.8672 7.4432 12.4256 7.4432H1.6032L1.6 7.47652V16.5235C1.6 19.6965 3.99573 22.2768 6.94187 22.2768H12.0309C12.4725 22.2768 12.8309 22.6628 12.8309 23.1384C12.8309 23.614 12.4725 24 12.0309 24H6.94187C3.1136 24 0 20.6466 0 16.5235V7.47652C0 3.35341 3.1136 0 6.94187 0H17.0571ZM18.9969 10.8947C19.4385 10.8947 19.7969 11.2807 19.7969 11.7563C19.7969 12.2319 19.4385 12.618 18.9969 12.618H18.6332C18.1916 12.618 17.8332 12.2319 17.8332 11.7563C17.8332 11.2807 18.1916 10.8947 18.6332 10.8947H18.9969Z" fill="white"/>
</svg>
