<svg xmlns="http://www.w3.org/2000/svg" fill-rule="evenodd" stroke-linejoin="round" stroke-miterlimit="2" clip-rule="evenodd" viewBox="0 0 32 32"><path fill="url(#_Linear1)" d="M27,2l-22,0c-1.656,0 -3,1.344 -3,3l0,22c0,1.656 1.344,3 3,3l22,0c1.656,0 3,-1.344 3,-3l0,-22c0,-1.656 -1.344,-3 -3,-3Zm-12,26l-10,0c-0.552,0 -1,-0.448 -1,-1l0,-3l11,0l-0,4Zm13,-4l0,3c0,0.552 -0.448,1 -1,1l-10,0l-0,-4l11,0Zm-18,-20l0,18l-6,0l0,-17c0,-0.552 0.448,-1 1,-1l5,0Zm2,10l0,8l16,0l0,-8l-16,0Zm0,-10l15,0c0.552,0 1,0.448 1,1l0,7l-16,0l0,-8Z"/><defs><linearGradient id="_Linear1" x1="0" x2="1" y1="0" y2="0" gradientTransform="matrix(26 26 -26 26 3 3)" gradientUnits="userSpaceOnUse"><stop offset="0" stop-color="#f78cff"/><stop offset="1" stop-color="#6dc8ff"/></linearGradient></defs></svg>