<svg width="324" height="236" viewBox="0 0 324 236" fill="none" xmlns="http://www.w3.org/2000/svg">
<path d="M133.431 13.3422H17.8528V128.92H133.431V13.3422Z" fill="#F4F4F4"/>
<path d="M17.8524 13.3422H16.5278V128.92H17.8524V13.3422Z" fill="#F4F4F4"/>
<path opacity="0.05" d="M17.8524 13.3422H16.5278V128.92H17.8524V13.3422Z" fill="#292A2E"/>
<path opacity="0.05" d="M45.8517 92.9848V62.746H70.6218V80.3142H108.991V111.421H125.298V128.92H108.991H105.849H23.4124V92.9848H45.8517Z" fill="#292A2E"/>
<path opacity="0.34" d="M67.4426 66.029H49.4048V69.3124H67.4426V66.029Z" fill="#FFFFFA"/>
<path opacity="0.34" d="M67.4426 72.8326H49.4048V76.116H67.4426V72.8326Z" fill="#FFFFFA"/>
<path opacity="0.34" d="M67.4426 79.6363H49.4048V82.9197H67.4426V79.6363Z" fill="#FFFFFA"/>
<path opacity="0.34" d="M29.9358 96.1718H26.6111V99.4552H29.9358V96.1718Z" fill="#FFFFFA"/>
<path opacity="0.34" d="M29.9358 102.975H26.6111V106.259H29.9358V102.975Z" fill="#FFFFFA"/>
<path opacity="0.34" d="M29.9358 109.779H26.6111V113.062H29.9358V109.779Z" fill="#FFFFFA"/>
<path opacity="0.34" d="M36.086 96.1718H32.7612V99.4552H36.086V96.1718Z" fill="#FFFFFA"/>
<path opacity="0.34" d="M36.086 102.975H32.7612V106.259H36.086V102.975Z" fill="#FFFFFA"/>
<path opacity="0.34" d="M36.086 109.779H32.7612V113.062H36.086V109.779Z" fill="#FFFFFA"/>
<path opacity="0.34" d="M42.0704 96.1718H38.7456V99.4552H42.0704V96.1718Z" fill="#FFFFFA"/>
<path opacity="0.34" d="M42.0704 102.975H38.7456V106.259H42.0704V102.975Z" fill="#FFFFFA"/>
<path opacity="0.34" d="M42.0704 109.779H38.7456V113.062H42.0704V109.779Z" fill="#FFFFFA"/>
<path d="M17.8528 70.4827H41.1087V13.3422H43.0321V70.4827H105.85V13.3422H107.773V70.4827H133.431V72.4061H107.773V128.92H105.85V72.4061H43.0321V128.92H41.1087V72.4061H17.8528V70.4827Z" fill="white"/>
<path d="M138.035 128.78H13.2485V132.624H138.035V128.78Z" fill="#F4F4F4"/>
<path opacity="0.1" d="M138.035 128.78H13.2485V132.624H138.035V128.78Z" fill="#292A2E"/>
<path opacity="0.1" d="M13.248 128.78H11.4465V132.624H13.248V128.78Z" fill="#292A2E"/>
<path opacity="0.1" d="M13.248 128.78H11.4465V132.624H13.248V128.78Z" fill="#292A2E"/>
<path d="M16.5279 18.2634L133.431 18.2634V15.4056L16.5279 15.4056V18.2634Z" fill="white"/>
<path d="M16.5279 23.6011L133.431 23.6011V20.7433L16.5279 20.7433V23.6011Z" fill="white"/>
<path d="M16.5279 28.9384L133.431 28.9384V26.0806L16.5279 26.0806V28.9384Z" fill="white"/>
<path d="M16.5279 34.2761L133.431 34.2761V31.4183L16.5279 31.4183V34.2761Z" fill="white"/>
<path d="M16.5279 39.6142L133.431 39.6142V36.7564L16.5279 36.7564V39.6142Z" fill="white"/>
<path d="M28.9441 42.8371H30.696L30.696 13.3418H28.9441L28.9441 42.8371Z" fill="white"/>
<path d="M29.6719 47.0731C31.001 47.0731 32.0786 45.9955 32.0786 44.6664C32.0786 43.3372 31.001 42.2596 29.6719 42.2596C28.3427 42.2596 27.2651 43.3372 27.2651 44.6664C27.2651 45.9955 28.3427 47.0731 29.6719 47.0731Z" fill="white"/>
<path d="M282.174 12.6966H233.543V75.9946H282.174V12.6966Z" fill="#F4F4F4"/>
<path d="M282.173 75.9946H283.75V12.6966H282.173V75.9946Z" fill="#F4F4F4"/>
<path opacity="0.05" d="M282.173 75.9946H283.75V12.6966H282.173V75.9946Z" fill="#292A2E"/>
<path opacity="0.05" d="M273.315 24.2268H242.402V64.4639H273.315V24.2268Z" fill="#292A2E"/>
<path opacity="0.03" d="M273.315 24.2268H271.704V64.4639H273.315V24.2268Z" fill="#292A2E"/>
<path d="M321.945 91.5607H282.174V131.698H321.945V91.5607Z" fill="#F4F4F4"/>
<path opacity="0.05" d="M314.7 98.8723H289.418V124.386H314.7V98.8723Z" fill="#292A2E"/>
<path d="M321.945 131.697H323.522V91.5603H321.945V131.697Z" fill="#F4F4F4"/>
<path opacity="0.05" d="M321.945 131.697H323.522V91.5603H321.945V131.697Z" fill="#292A2E"/>
<path opacity="0.03" d="M314.7 98.8723H313.089V124.386H314.7V98.8723Z" fill="#292A2E"/>
<path d="M190.055 159.548C190.002 159.548 189.951 159.535 189.903 159.512L111.6 120.81C111.548 120.784 111.504 120.747 111.472 120.7C111.439 120.654 111.418 120.599 111.412 120.543C111.405 120.486 111.413 120.429 111.434 120.376C111.456 120.323 111.49 120.276 111.535 120.24L189.814 56.0129C189.875 55.9628 189.951 55.9354 190.03 55.9354C190.109 55.9354 190.185 55.9628 190.246 56.0129L268.575 120.24C268.619 120.277 268.653 120.323 268.675 120.376C268.696 120.429 268.704 120.486 268.697 120.543C268.691 120.599 268.67 120.653 268.638 120.7C268.605 120.747 268.561 120.784 268.51 120.81L190.206 159.514C190.159 159.537 190.107 159.548 190.055 159.548ZM112.375 120.433L190.055 158.828L267.734 120.433L190.03 56.7163L112.375 120.433Z" fill="#292A2E"/>
<path d="M274.434 0.426086L258.848 21.3144V199.061C258.848 200.741 258.181 202.352 256.993 203.54C255.805 204.728 254.194 205.395 252.514 205.395H127.546C126.714 205.395 125.89 205.231 125.122 204.913C124.353 204.595 123.655 204.128 123.067 203.54C122.479 202.952 122.012 202.253 121.694 201.485C121.376 200.716 121.212 199.893 121.212 199.061V17.54C121.212 13.0012 123.015 8.64826 126.224 5.4388C129.434 2.22933 133.787 0.426207 138.325 0.426086H274.434Z" fill="white"/>
<path d="M252.514 205.734H127.546C125.776 205.732 124.08 205.028 122.829 203.777C121.578 202.526 120.873 200.83 120.87 199.061V17.54C120.876 12.9123 122.716 8.47565 125.989 5.20336C129.261 1.93108 133.698 0.0903782 138.325 0.085083L274.434 0.085083C274.497 0.085251 274.559 0.102989 274.613 0.13632C274.667 0.16965 274.71 0.217263 274.739 0.273846C274.767 0.33043 274.779 0.39376 274.773 0.456775C274.768 0.519789 274.745 0.58001 274.707 0.63072L259.189 21.4277V199.061C259.187 200.83 258.482 202.526 257.231 203.777C255.98 205.028 254.283 205.732 252.514 205.734ZM138.325 0.76713C133.878 0.772184 129.615 2.54095 126.471 5.68538C123.326 8.82981 121.557 13.0931 121.552 17.54V199.061C121.555 200.65 122.187 202.173 123.31 203.296C124.434 204.42 125.957 205.052 127.546 205.054H252.514C254.103 205.052 255.626 204.42 256.749 203.296C257.873 202.173 258.505 200.65 258.507 199.061V21.3145C258.507 21.2409 258.531 21.1693 258.575 21.1103L273.754 0.76713H138.325Z" fill="#292A2E"/>
<path opacity="0.3" d="M233.391 23.1019H146.719C146.439 23.1019 146.211 23.3293 146.211 23.6098V24.4401C146.211 24.7206 146.439 24.948 146.719 24.948H233.391C233.671 24.948 233.899 24.7206 233.899 24.4401V23.6098C233.899 23.3293 233.671 23.1019 233.391 23.1019Z" fill="#262626"/>
<path d="M258.848 16.0118C258.848 11.8782 260.49 7.91397 263.413 4.99109C266.336 2.0682 270.301 0.426147 274.434 0.426147C278.568 0.426147 282.532 2.0682 285.455 4.99109C288.378 7.91397 290.02 11.8782 290.02 16.0118V29.1703H258.848V16.0118Z" fill="white"/>
<path d="M290.019 29.5113H258.848C258.758 29.5113 258.671 29.4754 258.607 29.4114C258.543 29.3475 258.507 29.2607 258.507 29.1703V16.0118C258.496 13.9131 258.9 11.833 259.695 9.89083C260.49 7.94869 261.662 6.1829 263.142 4.69495C264.622 3.207 266.381 2.02622 268.319 1.2205C270.257 0.414781 272.335 0 274.434 0C276.532 0 278.61 0.414781 280.548 1.2205C282.486 2.02622 284.246 3.207 285.726 4.69495C287.206 6.1829 288.377 7.94869 289.172 9.89083C289.968 11.833 290.371 13.9131 290.36 16.0118V29.1703C290.36 29.2607 290.324 29.3475 290.26 29.4114C290.196 29.4754 290.11 29.5113 290.019 29.5113ZM259.191 28.8293H289.68V16.0118C289.691 14.0029 289.304 12.0116 288.543 10.1524C287.782 8.29323 286.661 6.60284 285.244 5.17842C283.827 3.75399 282.143 2.62363 280.288 1.8523C278.433 1.08097 276.444 0.683889 274.435 0.683889C272.426 0.683889 270.437 1.08097 268.582 1.8523C266.727 2.62363 265.043 3.75399 263.626 5.17842C262.209 6.60284 261.088 8.29323 260.327 10.1524C259.566 12.0116 259.18 14.0029 259.191 16.0118V28.8293Z" fill="#292A2E"/>
<path opacity="0.3" d="M247.262 61.8576H188.483C188.249 61.8576 188.059 62.0473 188.059 62.2814V62.2818C188.059 62.5159 188.249 62.7056 188.483 62.7056H247.262C247.496 62.7056 247.686 62.5159 247.686 62.2818V62.2814C247.686 62.0473 247.496 61.8576 247.262 61.8576Z" fill="#262626"/>
<path opacity="0.3" d="M247.262 55.8365H188.483C188.249 55.8365 188.059 56.0262 188.059 56.2603V56.2607C188.059 56.4948 188.249 56.6845 188.483 56.6845H247.262C247.496 56.6845 247.686 56.4948 247.686 56.2607V56.2603C247.686 56.0262 247.496 55.8365 247.262 55.8365Z" fill="#262626"/>
<path opacity="0.3" d="M247.262 49.8149H188.483C188.249 49.8149 188.059 50.0047 188.059 50.2387V50.2392C188.059 50.4732 188.249 50.663 188.483 50.663H247.262C247.496 50.663 247.686 50.4732 247.686 50.2392V50.2387C247.686 50.0047 247.496 49.8149 247.262 49.8149Z" fill="#262626"/>
<path opacity="0.3" d="M247.262 43.7938H188.483C188.249 43.7938 188.059 43.9836 188.059 44.2176V44.2181C188.059 44.4521 188.249 44.6418 188.483 44.6418H247.262C247.496 44.6418 247.686 44.4521 247.686 44.2181V44.2176C247.686 43.9836 247.496 43.7938 247.262 43.7938Z" fill="#262626"/>
<path opacity="0.3" d="M247.262 37.7459H188.483C188.249 37.7459 188.059 37.9356 188.059 38.1697V38.1701C188.059 38.4042 188.249 38.5939 188.483 38.5939H247.262C247.496 38.5939 247.686 38.4042 247.686 38.1701V38.1697C247.686 37.9356 247.496 37.7459 247.262 37.7459Z" fill="#262626"/>
<path opacity="0.3" d="M222.96 67.8787H188.483C188.249 67.8787 188.059 68.0684 188.059 68.3024V68.3029C188.059 68.5369 188.249 68.7267 188.483 68.7267H222.96C223.194 68.7267 223.383 68.5369 223.383 68.3029V68.3024C223.383 68.0684 223.194 67.8787 222.96 67.8787Z" fill="#262626"/>
<path opacity="0.9" d="M178.919 32.9066H133.815C133.047 32.9066 132.424 33.5293 132.424 34.2975V71.2699C132.424 72.038 133.047 72.6608 133.815 72.6608H178.919C179.688 72.6608 180.31 72.038 180.31 71.2699V34.2975C180.31 33.5293 179.688 32.9066 178.919 32.9066Z" fill="#0CBC8B"/>
<path opacity="0.8" d="M149.125 48.6859C151.039 48.6859 152.59 47.1347 152.59 45.2211C152.59 43.3076 151.039 41.7563 149.125 41.7563C147.212 41.7563 145.661 43.3076 145.661 45.2211C145.661 47.1347 147.212 48.6859 149.125 48.6859Z" fill="white"/>
<path opacity="0.5" d="M153.896 61.4211L163.941 50.2155C164.568 49.5162 165.446 49.0922 166.384 49.0355C167.321 48.9788 168.244 49.294 168.951 49.9127L180.31 59.8588V72.6603H166.578" fill="white"/>
<path opacity="0.8" d="M166.579 72.6603L144.799 53.3584C144.155 52.7881 143.327 52.4695 142.467 52.4612C141.607 52.4528 140.773 52.7553 140.118 53.313L132.425 59.8606V72.6622" fill="white"/>
<path opacity="0.3" d="M247.221 101.64H132.889C132.655 101.64 132.465 101.83 132.465 102.064V102.065C132.465 102.299 132.655 102.488 132.889 102.488H247.221C247.455 102.488 247.645 102.299 247.645 102.065V102.064C247.645 101.83 247.455 101.64 247.221 101.64Z" fill="#262626"/>
<path opacity="0.3" d="M247.221 95.6194H132.889C132.655 95.6194 132.465 95.8091 132.465 96.0432V96.0436C132.465 96.2777 132.655 96.4674 132.889 96.4674H247.221C247.455 96.4674 247.645 96.2777 247.645 96.0436V96.0432C247.645 95.8091 247.455 95.6194 247.221 95.6194Z" fill="#262626"/>
<path opacity="0.3" d="M247.221 89.5978H132.889C132.655 89.5978 132.465 89.7875 132.465 90.0216V90.022C132.465 90.2561 132.655 90.4458 132.889 90.4458H247.221C247.455 90.4458 247.645 90.2561 247.645 90.022V90.0216C247.645 89.7875 247.455 89.5978 247.221 89.5978Z" fill="#262626"/>
<path opacity="0.3" d="M247.221 83.5767H132.889C132.655 83.5767 132.465 83.7664 132.465 84.0004V84.0009C132.465 84.2349 132.655 84.4247 132.889 84.4247H247.221C247.455 84.4247 247.645 84.2349 247.645 84.0009V84.0004C247.645 83.7664 247.455 83.5767 247.221 83.5767Z" fill="#262626"/>
<path opacity="0.3" d="M167.366 107.662H132.889C132.655 107.662 132.465 107.852 132.465 108.086V108.086C132.465 108.32 132.655 108.51 132.889 108.51H167.366C167.6 108.51 167.79 108.32 167.79 108.086V108.086C167.79 107.852 167.6 107.662 167.366 107.662Z" fill="#262626"/>
<path opacity="0.3" d="M247.221 136.363H132.889C132.655 136.363 132.465 136.553 132.465 136.787V136.788C132.465 137.022 132.655 137.211 132.889 137.211H247.221C247.455 137.211 247.645 137.022 247.645 136.788V136.787C247.645 136.553 247.455 136.363 247.221 136.363Z" fill="#262626"/>
<path opacity="0.3" d="M247.221 130.342H132.889C132.655 130.342 132.465 130.532 132.465 130.766V130.767C132.465 131.001 132.655 131.19 132.889 131.19H247.221C247.455 131.19 247.645 131.001 247.645 130.767V130.766C247.645 130.532 247.455 130.342 247.221 130.342Z" fill="#262626"/>
<path opacity="0.3" d="M247.221 124.321H132.889C132.655 124.321 132.465 124.511 132.465 124.745V124.745C132.465 124.979 132.655 125.169 132.889 125.169H247.221C247.455 125.169 247.645 124.979 247.645 124.745V124.745C247.645 124.511 247.455 124.321 247.221 124.321Z" fill="#262626"/>
<path opacity="0.3" d="M247.221 118.3H132.889C132.655 118.3 132.465 118.489 132.465 118.723V118.724C132.465 118.958 132.655 119.148 132.889 119.148H247.221C247.455 119.148 247.645 118.958 247.645 118.724V118.723C247.645 118.489 247.455 118.3 247.221 118.3Z" fill="#262626"/>
<path opacity="0.3" d="M167.366 142.385H132.889C132.655 142.385 132.465 142.574 132.465 142.808V142.809C132.465 143.043 132.655 143.233 132.889 143.233H167.366C167.6 143.233 167.79 143.043 167.79 142.809V142.808C167.79 142.574 167.6 142.385 167.366 142.385Z" fill="#262626"/>
<path d="M260.713 211.05H119.396C117.368 211.05 115.424 210.245 113.99 208.811C112.556 207.377 111.75 205.432 111.75 203.405V120.504L190.055 159.208L268.359 120.504V203.405C268.359 204.409 268.161 205.403 267.777 206.33C267.393 207.258 266.829 208.101 266.119 208.811C265.409 209.521 264.567 210.084 263.639 210.468C262.711 210.852 261.717 211.05 260.713 211.05Z" fill="#367CFF"/>
<path opacity="0.78" d="M260.713 211.05H119.396C117.368 211.05 115.424 210.245 113.99 208.811C112.556 207.377 111.75 205.432 111.75 203.405V120.504L190.055 159.208L268.359 120.504V203.405C268.359 204.409 268.161 205.403 267.777 206.33C267.393 207.258 266.829 208.101 266.119 208.811C265.409 209.521 264.567 210.084 263.639 210.468C262.711 210.852 261.717 211.05 260.713 211.05Z" fill="white"/>
<path d="M260.713 211.391H119.396C117.279 211.389 115.249 210.547 113.751 209.049C112.254 207.552 111.412 205.522 111.409 203.405V120.504C111.409 120.446 111.424 120.389 111.452 120.338C111.481 120.288 111.521 120.245 111.571 120.214C111.62 120.184 111.676 120.166 111.734 120.163C111.792 120.161 111.85 120.173 111.902 120.198L190.055 158.828L268.208 120.198C268.26 120.173 268.317 120.161 268.375 120.163C268.433 120.166 268.49 120.184 268.539 120.214C268.588 120.245 268.629 120.288 268.657 120.338C268.685 120.389 268.7 120.446 268.7 120.504V203.405C268.697 205.522 267.855 207.552 266.358 209.049C264.861 210.547 262.831 211.389 260.713 211.391ZM112.091 121.053V203.405C112.094 205.341 112.864 207.198 114.234 208.567C115.603 209.937 117.46 210.707 119.396 210.709H260.713C262.65 210.707 264.506 209.937 265.876 208.567C267.245 207.198 268.016 205.341 268.018 203.405V121.053L190.206 159.514C190.159 159.537 190.107 159.549 190.055 159.549C190.002 159.549 189.95 159.537 189.903 159.514L112.091 121.053Z" fill="#292A2E"/>
<path d="M304.09 229.923C304.145 229.923 304.199 229.907 304.246 229.878C304.293 229.849 304.331 229.807 304.355 229.757L312.13 213.806C312.162 213.736 312.165 213.656 312.139 213.584C312.113 213.512 312.06 213.453 311.991 213.419C311.922 213.385 311.843 213.38 311.77 213.404C311.697 213.428 311.636 213.479 311.6 213.547L303.825 229.499C303.803 229.544 303.793 229.593 303.796 229.643C303.798 229.693 303.813 229.742 303.84 229.784C303.866 229.826 303.903 229.861 303.947 229.886C303.99 229.91 304.04 229.923 304.09 229.923Z" fill="#292A2E"/>
<path d="M290.943 228.997C291.008 228.997 291.071 228.976 291.123 228.936C291.174 228.896 291.211 228.84 291.228 228.777L300.227 194.418C300.237 194.381 300.24 194.341 300.234 194.303C300.229 194.265 300.216 194.228 300.197 194.194C300.177 194.161 300.151 194.132 300.12 194.108C300.09 194.085 300.054 194.068 300.017 194.058C299.98 194.048 299.941 194.046 299.902 194.051C299.864 194.056 299.827 194.069 299.794 194.089C299.76 194.108 299.731 194.134 299.707 194.165C299.684 194.196 299.667 194.231 299.657 194.268L290.657 228.628C290.638 228.703 290.649 228.784 290.688 228.851C290.728 228.919 290.792 228.968 290.868 228.988C290.892 228.994 290.918 228.997 290.943 228.997Z" fill="#292A2E"/>
<path d="M273.774 230.518C273.823 230.518 273.871 230.506 273.914 230.483C273.957 230.46 273.994 230.427 274.021 230.387C274.048 230.346 274.064 230.3 274.069 230.251C274.074 230.203 274.066 230.154 274.047 230.109L264.743 208.2C264.713 208.128 264.655 208.071 264.582 208.042C264.51 208.013 264.429 208.013 264.357 208.044C264.285 208.074 264.228 208.132 264.199 208.205C264.169 208.277 264.17 208.358 264.2 208.43L273.503 230.34C273.526 230.393 273.564 230.438 273.612 230.47C273.661 230.501 273.717 230.518 273.774 230.518Z" fill="#292A2E"/>
<path d="M290.609 235.594C290.633 235.594 290.658 235.592 290.681 235.586C290.757 235.567 290.822 235.518 290.862 235.451C290.903 235.384 290.915 235.304 290.896 235.228L280.085 191.982C280.076 191.944 280.059 191.909 280.036 191.878C280.013 191.847 279.984 191.82 279.951 191.8C279.918 191.78 279.881 191.767 279.843 191.762C279.804 191.756 279.765 191.758 279.728 191.767C279.69 191.777 279.655 191.793 279.624 191.816C279.593 191.839 279.566 191.868 279.546 191.902C279.526 191.935 279.513 191.972 279.508 192.01C279.502 192.048 279.504 192.087 279.513 192.125L290.323 235.371C290.339 235.435 290.376 235.492 290.428 235.532C290.48 235.572 290.543 235.594 290.609 235.594Z" fill="#292A2E"/>
<path d="M286.776 200.844C289.709 194.678 287.795 187.638 282.501 185.12C277.207 182.602 270.538 185.558 267.605 191.724C264.672 197.89 266.586 204.93 271.88 207.448C277.174 209.966 283.843 207.01 286.776 200.844Z" fill="#0CBC8B"/>
<path opacity="0.4" d="M286.776 200.844C289.709 194.678 287.795 187.638 282.501 185.12C277.207 182.602 270.538 185.558 267.605 191.724C264.672 197.89 266.586 204.93 271.88 207.448C277.174 209.966 283.843 207.01 286.776 200.844Z" fill="white"/>
<path d="M268.582 215.079C270.112 211.28 268.772 207.162 265.589 205.88C262.405 204.598 258.585 206.638 257.055 210.436C255.525 214.235 256.865 218.353 260.048 219.635C263.232 220.917 267.052 218.877 268.582 215.079Z" fill="#0CBC8B"/>
<path d="M306.09 210.204C310.818 208.77 313.224 202.903 311.464 197.1C309.704 191.297 304.444 187.756 299.716 189.19C294.987 190.624 292.581 196.491 294.341 202.294C296.101 208.097 301.361 211.639 306.09 210.204Z" fill="#0CBC8B"/>
<path d="M314.098 222.553C316.737 222.112 318.372 218.743 317.751 215.029C317.129 211.315 314.486 208.662 311.848 209.103C309.209 209.545 307.574 212.914 308.195 216.628C308.817 220.342 311.46 222.995 314.098 222.553Z" fill="#0CBC8B"/>
<path d="M265.098 236H311.018V224.557H265.098V236Z" fill="#292A2E"/>
<path opacity="0.3" d="M265.098 236H311.018V224.557H265.098V236Z" fill="white"/>
<path d="M286.864 221.682C288.73 217.048 287.081 212.018 283.18 210.446C279.279 208.875 274.603 211.358 272.737 215.992C270.871 220.626 272.52 225.656 276.421 227.227C280.322 228.798 284.998 226.315 286.864 221.682Z" fill="#0CBC8B"/>
<path d="M297.055 226.078C300.94 226.078 304.09 222.928 304.09 219.043C304.09 215.158 300.94 212.008 297.055 212.008C293.169 212.008 290.02 215.158 290.02 219.043C290.02 222.928 293.169 226.078 297.055 226.078Z" fill="#0CBC8B"/>
<path opacity="0.68" d="M268.582 215.079C270.112 211.28 268.772 207.162 265.589 205.88C262.405 204.598 258.585 206.638 257.055 210.436C255.525 214.235 256.865 218.353 260.048 219.635C263.232 220.917 267.052 218.877 268.582 215.079Z" fill="white"/>
<path opacity="0.68" d="M306.09 210.204C310.818 208.77 313.224 202.903 311.464 197.1C309.704 191.297 304.444 187.756 299.716 189.19C294.987 190.624 292.581 196.491 294.341 202.294C296.101 208.097 301.361 211.639 306.09 210.204Z" fill="white"/>
<path opacity="0.68" d="M314.098 222.553C316.737 222.112 318.372 218.743 317.751 215.029C317.129 211.315 314.486 208.662 311.848 209.103C309.209 209.545 307.574 212.914 308.195 216.628C308.817 220.342 311.46 222.995 314.098 222.553Z" fill="white"/>
<path opacity="0.68" d="M286.864 221.682C288.73 217.048 287.081 212.018 283.18 210.446C279.279 208.875 274.603 211.358 272.737 215.992C270.871 220.626 272.52 225.656 276.421 227.227C280.322 228.798 284.998 226.315 286.864 221.682Z" fill="white"/>
<path opacity="0.4" d="M297.055 226.078C300.94 226.078 304.09 222.928 304.09 219.043C304.09 215.158 300.94 212.008 297.055 212.008C293.169 212.008 290.02 215.158 290.02 219.043C290.02 222.928 293.169 226.078 297.055 226.078Z" fill="white"/>
<path d="M274.456 213.121C279.796 214.612 282.606 210.249 282.606 210.249L282.603 210.243C279.756 209.393 276.598 210.588 274.456 213.121Z" fill="#292A2E"/>
<path d="M308.186 214.908C310.815 213.901 312.993 211.981 314.322 209.5C313.602 209.115 312.776 208.975 311.969 209.102C309.746 209.473 308.236 211.923 308.186 214.908Z" fill="#292A2E"/>
<path d="M295.8 212.121C297.847 213.966 300.406 215.147 303.138 215.509C302.411 214.259 301.317 213.263 300.004 212.657C298.69 212.051 297.223 211.864 295.8 212.121Z" fill="#292A2E"/>
<path d="M180.789 91.4475L175.009 103.12L175.104 101.353C175.123 100.782 174.925 100.225 174.549 99.7944C174.174 99.3639 173.649 99.0921 173.08 99.0341C172.786 99.0143 172.491 99.0547 172.213 99.1528C171.934 99.2509 171.679 99.4046 171.462 99.6046C171.246 99.8045 171.072 100.047 170.952 100.316C170.832 100.585 170.768 100.876 170.764 101.171L170.4 123.038L177.405 123.331C179.581 123.423 181.735 122.862 183.59 121.721C185.445 120.58 186.917 118.912 187.818 116.929L191.881 107.94C192.101 107.477 192.154 106.952 192.032 106.454C191.909 105.957 191.619 105.516 191.209 105.208C190.833 104.938 190.381 104.795 189.918 104.799C189.455 104.804 189.006 104.957 188.636 105.235C188.619 105.204 188.593 105.179 188.563 105.161C188.533 105.145 188.5 105.138 188.467 105.138C188.434 105.139 188.401 105.148 188.373 105.164L189.125 103.508C189.372 102.993 189.414 102.403 189.242 101.858C189.071 101.314 188.699 100.854 188.202 100.573C187.749 100.337 187.227 100.269 186.729 100.38C186.23 100.491 185.787 100.774 185.477 101.179C185.468 101.158 185.456 101.138 185.441 101.121L185.75 100.439C185.97 99.9762 186.023 99.4513 185.901 98.9535C185.779 98.4557 185.488 98.0155 185.078 97.7073C184.622 97.3789 184.057 97.2398 183.501 97.3192C182.945 97.3987 182.441 97.6905 182.095 98.1334C182.081 98.128 182.067 98.124 182.052 98.1215L184.459 93.2604C184.7 92.7737 184.738 92.2111 184.564 91.6964C184.391 91.1817 184.02 90.757 183.533 90.5158C183.046 90.2746 182.484 90.2367 181.969 90.4103C181.454 90.5839 181.03 90.9549 180.789 91.4416V91.4475Z" fill="#E98862"/>
<path opacity="0.2" d="M182.226 98.3502C182.222 98.3738 182.215 98.3967 182.205 98.418L179.812 103.112C179.8 103.136 179.784 103.157 179.763 103.175C179.743 103.192 179.719 103.205 179.694 103.214C179.668 103.222 179.641 103.225 179.615 103.223C179.588 103.221 179.562 103.214 179.538 103.202C179.514 103.189 179.493 103.173 179.475 103.152C179.458 103.132 179.445 103.108 179.437 103.083C179.428 103.057 179.425 103.031 179.427 103.004C179.429 102.977 179.437 102.951 179.449 102.927L181.841 98.2325C181.863 98.1899 181.899 98.1564 181.943 98.1378C181.987 98.1192 182.036 98.1167 182.082 98.1307C182.128 98.1448 182.167 98.1744 182.193 98.2145C182.22 98.2547 182.231 98.3027 182.225 98.3502H182.226Z" fill="#0A0A0A"/>
<path opacity="0.2" d="M185.492 101.274C185.49 101.298 185.483 101.32 185.472 101.341L183.621 105.045C183.61 105.071 183.594 105.094 183.574 105.113C183.554 105.132 183.53 105.147 183.504 105.156C183.478 105.166 183.45 105.17 183.422 105.168C183.395 105.167 183.367 105.16 183.343 105.147C183.318 105.135 183.296 105.117 183.278 105.096C183.26 105.075 183.247 105.05 183.239 105.024C183.231 104.997 183.228 104.969 183.231 104.942C183.235 104.914 183.243 104.887 183.257 104.863L185.109 101.159C185.13 101.116 185.166 101.082 185.21 101.062C185.254 101.043 185.304 101.04 185.35 101.054C185.396 101.068 185.436 101.098 185.462 101.138C185.488 101.179 185.499 101.227 185.493 101.275L185.492 101.274Z" fill="#0A0A0A"/>
<path opacity="0.2" d="M188.669 105.369C188.666 105.393 188.658 105.417 188.647 105.439L187.731 107.167C187.719 107.192 187.703 107.214 187.682 107.232C187.661 107.25 187.637 107.264 187.611 107.272C187.585 107.281 187.557 107.284 187.53 107.282C187.503 107.279 187.476 107.271 187.452 107.259C187.428 107.246 187.406 107.228 187.389 107.207C187.372 107.185 187.359 107.161 187.351 107.134C187.344 107.108 187.341 107.08 187.345 107.053C187.348 107.026 187.357 107 187.371 106.976L188.286 105.248C188.308 105.206 188.345 105.173 188.389 105.155C188.433 105.137 188.482 105.135 188.528 105.149C188.573 105.164 188.612 105.193 188.638 105.233C188.664 105.273 188.675 105.321 188.669 105.369Z" fill="#0A0A0A"/>
<path d="M166.911 108.51L149.774 157.662L121.923 121.241L95.8633 143.015L144.008 194.428C145.721 196.384 147.921 197.852 150.384 198.682C152.848 199.512 155.487 199.675 158.034 199.154C160.581 198.633 162.945 197.447 164.884 195.716C166.824 193.985 168.27 191.771 169.077 189.3L192.543 116.921L166.911 108.51Z" fill="#FAEAD3"/>
<path d="M14.824 214.03C12.4355 214.03 10.0823 213.453 7.96483 212.348C5.84736 211.243 4.0283 209.642 2.66251 207.683C1.29673 205.723 0.424677 203.463 0.12061 201.094C-0.183458 198.725 0.0894614 196.317 0.916132 194.076C1.75505 191.803 21.5026 138.246 25.2466 128.596L52.889 139.321C50.7842 144.746 43.1585 165.312 37.0291 181.881L47.2089 180.774L50.4136 210.25L16.4281 213.943C15.8954 214.001 15.3599 214.03 14.824 214.03Z" fill="#FAEAD3"/>
<path d="M32.5899 212.516L28.0693 235.017H115.872L110.815 212.088L32.5899 212.516Z" fill="#262626"/>
<path d="M51.5745 111.958C44.2384 112.504 36.7582 114.886 31.2495 119.762C22.9417 127.116 23.6811 131.712 27.8284 152.078C31.3968 169.601 29.9809 177.258 32.3681 209.593C32.4385 210.548 32.589 212.516 32.589 212.516L111.063 212.386C111.063 212.386 118.416 169.485 122.476 149.698C125.564 134.656 133.672 116.394 99.4823 112.714C99.3923 112.704 71.9709 110.444 51.5745 111.958Z" fill="#FAEAD3"/>
<path d="M99.4822 112.714C99.3913 112.702 96.9005 122.075 77.4621 120.617C64.0031 119.609 60.7238 110.449 60.4155 110.449C61.8665 110.14 64.2223 109.82 64.867 109.476C66.9859 108.34 68.5296 106.952 69.3062 103.977C69.9142 101.651 70.2238 92.6961 70.2238 88.2032L90.9312 92.8562C90.6425 97.9247 88.6222 109.674 95.7028 111.753C96.8809 112.099 98.15 112.415 99.4822 112.714Z" fill="#E98862"/>
<path d="M90.2128 102.822C82.0496 103.466 71.5629 100.019 69.5695 89.1277L67.7721 79.3003C65.7805 68.4089 69.886 58.5333 80.1399 56.6564C90.3947 54.7807 99.6746 62.2082 101.667 73.0996L102.462 77.4506C103.23 81.6311 104.78 101.673 90.2128 102.822Z" fill="#E98862"/>
<path d="M97.784 92.8221C96.3185 85.4596 95.6469 80.5452 95.7247 75.3649C97.7885 71.7446 97.2461 67.5895 96.7768 65.7939C98.7998 66.8975 99.6455 67.018 101.551 67.018C101.551 67.018 98.1377 53.3193 86.5361 49.6331C84.4031 48.8028 78.9563 47.7542 71.7239 48.7459C65.5723 49.5899 50.409 54.1891 48.2428 71.2603V71.2698C48.171 71.8359 46.7151 87.5648 43.8127 95.111C39.9105 105.256 34.4323 108.408 34.5714 120.113C34.7501 135.168 62.429 137.173 79.1236 136.047C95.8183 134.92 105.138 129.431 105.259 118.58C105.391 106.423 100.716 107.552 97.784 92.8221Z" fill="#0A0A0A"/>
<path d="M97.7884 86.6504C94.6724 87.2202 91.5363 84.3483 90.968 81.2318C90.3996 78.1153 92.6099 75.935 95.7264 75.3662L97.7884 86.6504Z" fill="#E98862"/>
<path d="M118.845 169.49C118.833 169.49 118.821 169.489 118.809 169.486C118.783 169.482 118.759 169.472 118.737 169.458C118.715 169.444 118.697 169.425 118.682 169.404C118.667 169.382 118.657 169.358 118.652 169.333C118.646 169.308 118.646 169.281 118.651 169.256L121.942 148.643C121.953 148.593 121.983 148.55 122.026 148.522C122.069 148.494 122.121 148.484 122.171 148.494C122.221 148.503 122.266 148.532 122.295 148.573C122.325 148.615 122.337 148.666 122.33 148.717L119.041 169.329C119.032 169.375 119.008 169.416 118.972 169.445C118.937 169.474 118.892 169.49 118.845 169.49Z" fill="#0C0C0C"/>
<path d="M32.5898 212.714C32.5388 212.714 32.4897 212.694 32.4529 212.659C32.4162 212.623 32.3945 212.575 32.3925 212.524L29.9335 148.688C29.9314 148.635 29.9502 148.584 29.9858 148.546C30.0213 148.507 30.0707 148.484 30.1231 148.482C30.1748 148.482 30.2246 148.502 30.2625 148.537C30.3004 148.572 30.3239 148.621 30.3282 148.672L32.7876 212.508C32.7896 212.561 32.7707 212.612 32.7351 212.651C32.6995 212.689 32.65 212.712 32.5976 212.714H32.5898Z" fill="#0C0C0C"/>
</svg>
