<svg width="324" height="390" viewBox="0 0 324 390" fill="none" xmlns="http://www.w3.org/2000/svg">
<path opacity="0.05" d="M301.301 50.3878H231.747C230.562 50.3878 229.602 51.3481 229.602 52.5328V100.556C229.602 101.74 230.562 102.701 231.747 102.701H301.301C302.485 102.701 303.446 101.74 303.446 100.556V52.5328C303.446 51.3481 302.485 50.3878 301.301 50.3878Z" fill="#292A2E"/>
<path opacity="0.05" d="M260.7 66.2592C263.651 66.2592 266.043 63.867 266.043 60.9161C266.043 57.9651 263.651 55.5729 260.7 55.5729C257.749 55.5729 255.357 57.9651 255.357 60.9161C255.357 63.867 257.749 66.2592 260.7 66.2592Z" fill="#292A2E"/>
<path opacity="0.05" d="M262.714 85.3693L278.204 68.0897C279.171 67.0108 280.524 66.3567 281.97 66.2693C283.416 66.1818 284.838 66.668 285.928 67.6224L303.446 82.9595V100.564C303.446 101.131 303.22 101.674 302.82 102.075C302.419 102.476 301.875 102.701 301.308 102.701H282.271" fill="#292A2E"/>
<path opacity="0.1" d="M282.271 102.701L248.685 72.936C247.692 72.0564 246.416 71.5646 245.089 71.5513C243.763 71.538 242.477 72.0039 241.467 72.8634L229.603 82.9595V100.768C229.603 101.022 229.653 101.273 229.75 101.508C229.847 101.742 229.99 101.955 230.169 102.135C230.349 102.314 230.562 102.457 230.796 102.554C231.031 102.651 231.282 102.701 231.536 102.701H282.271Z" fill="#292A2E"/>
<path opacity="0.05" d="M121.903 53.41H59.3435C58.2781 53.41 57.4143 54.2738 57.4143 55.3393V98.5337C57.4143 99.5992 58.2781 100.463 59.3435 100.463H121.903C122.969 100.463 123.833 99.5992 123.833 98.5337V55.3393C123.833 54.2738 122.969 53.41 121.903 53.41Z" fill="#292A2E"/>
<path opacity="0.05" d="M85.3849 67.6852C88.0391 67.6852 90.1907 65.5336 90.1907 62.8794C90.1907 60.2252 88.0391 58.0736 85.3849 58.0736C82.7307 58.0736 80.5791 60.2252 80.5791 62.8794C80.5791 65.5336 82.7307 67.6852 85.3849 67.6852Z" fill="#292A2E"/>
<path opacity="0.05" d="M87.197 84.874L101.129 69.3319C101.999 68.3616 103.216 67.7732 104.517 67.6945C105.817 67.6158 107.096 68.0532 108.077 68.9116L123.833 82.7067V98.5387C123.833 99.0485 123.63 99.5375 123.27 99.898C122.909 100.258 122.42 100.461 121.91 100.461H104.787" fill="#292A2E"/>
<path opacity="0.1" d="M104.787 100.465L74.5774 73.6947C73.6847 72.9035 72.5363 72.4613 71.3435 72.4493C70.1508 72.4373 68.9937 72.8564 68.0853 73.6295L57.4167 82.7106V98.7283C57.4167 99.1895 57.5999 99.6317 57.926 99.9577C58.252 100.284 58.6942 100.467 59.1553 100.467L104.787 100.465Z" fill="#292A2E"/>
<path d="M40.0762 55.0711C36.5229 55.0461 33.1042 53.7083 30.4776 51.315C27.8511 48.9216 26.202 45.6417 25.8477 42.1059C25.4933 38.5702 26.4587 35.0283 28.5581 32.1613C30.6575 29.2943 33.7427 27.3047 37.2204 26.5751C36.2937 21.3116 37.2969 15.8905 40.0456 11.3072C42.0405 7.93585 44.8981 5.15735 48.3241 3.25791C51.75 1.35847 55.6205 0.406771 59.5366 0.500865C63.4528 0.59496 67.273 1.73144 70.6038 3.79323C73.9346 5.85502 76.6555 8.76756 78.4861 12.2308C80.6394 10.7515 83.2467 10.0819 85.8463 10.3405C88.4459 10.5991 90.8701 11.7693 92.6897 13.6439C94.4523 15.457 95.5542 17.8102 95.8181 20.3251C99.1155 20.5481 102.281 21.7045 104.946 23.6593C107.611 25.6142 109.665 28.2868 110.868 31.365C112.07 34.4433 112.373 37.8002 111.739 41.0438C111.106 44.2875 109.562 47.284 107.29 49.6834C105.731 51.3377 103.859 52.6652 101.782 53.5886C99.7058 54.5121 97.466 55.013 95.1938 55.0622L40.0762 55.0711Z" fill="#292A2E"/>
<path d="M35.9669 55.0711C32.4135 55.0461 28.9948 53.7083 26.3683 51.3149C23.7417 48.9216 22.0927 45.6417 21.7383 42.1059C21.384 38.5702 22.3493 35.0283 24.4487 32.1613C26.5481 29.2943 29.6333 27.3047 33.1111 26.5751C32.1842 21.3117 33.1872 15.8906 35.9358 11.3071C37.9307 7.93585 40.7883 5.15737 44.2143 3.25795C47.6403 1.35852 51.5108 0.406832 55.427 0.500926C59.3432 0.595021 63.1635 1.73149 66.4943 3.79327C69.8251 5.85504 72.5461 8.76755 74.3768 12.2308C76.53 10.7515 79.1373 10.0819 81.7369 10.3405C84.3365 10.5991 86.7607 11.7693 88.5803 13.6439C90.3428 15.4571 91.4446 17.8102 91.7088 20.3251C95.0061 20.5481 98.1721 21.7045 100.837 23.6593C103.502 25.6142 105.555 28.2867 106.758 31.365C107.961 34.4433 108.263 37.8002 107.63 41.0438C106.996 44.2875 105.453 47.284 103.18 49.6834C101.622 51.3376 99.7497 52.665 97.673 53.5885C95.5964 54.5119 93.3567 55.0129 91.0845 55.0622L35.9669 55.0711Z" fill="white"/>
<path d="M35.9669 55.565C32.0337 55.5469 28.2683 53.9695 25.4967 51.1786C22.7252 48.3878 21.1738 44.6116 21.183 40.6783C21.1417 37.33 22.2461 34.0682 24.3131 31.4337C26.3801 28.7992 29.2855 26.9503 32.5475 26.1938C31.7483 20.9569 32.796 15.6051 35.511 11.0562C37.5267 7.64848 40.4051 4.83229 43.856 2.89151C47.307 0.950734 51.2086 -0.0460478 55.1675 0.00163376C59.1265 0.0493153 63.003 1.13977 66.4062 3.1631C69.8094 5.18643 72.6191 8.07113 74.5521 11.5264C76.7927 10.1388 79.4402 9.55841 82.0558 9.88134C84.6714 10.2043 87.0981 11.4112 88.934 13.3021C90.6742 15.0928 91.8 17.3906 92.1484 19.8632C95.4986 20.1671 98.6956 21.4081 101.374 23.4441C104.051 25.4802 106.102 28.229 107.29 31.376C108.479 34.5231 108.757 37.9412 108.094 41.2391C107.431 44.5371 105.852 47.5816 103.539 50.0242C101.935 51.7256 100.009 53.0909 97.8731 54.0406C95.7367 54.9903 93.4327 55.5055 91.0953 55.5561L35.9669 55.565ZM54.9027 0.990217C51.7385 1.00658 48.6161 1.7133 45.7533 3.06104C42.8905 4.40878 40.3563 6.36506 38.3277 8.79334C36.299 11.2216 34.8247 14.0634 34.0078 17.1203C33.1908 20.1772 33.0508 23.3755 33.5976 26.4921L33.6801 26.9663L33.2084 27.0611C30.0676 27.6839 27.244 29.3868 25.2278 31.8743C23.2116 34.3617 22.13 37.4766 22.1708 40.6783C22.1614 44.3497 23.6086 47.8748 26.1949 50.4804C28.7813 53.0861 32.2956 54.5594 35.9669 54.5772L91.0845 54.5702C93.2897 54.5209 95.4632 54.0335 97.4783 53.1364C99.4934 52.2393 101.31 50.9503 102.822 49.3446C105.03 47.0132 106.529 44.102 107.145 40.9507C107.76 37.7993 107.467 34.5379 106.298 31.5472C105.13 28.5564 103.135 25.9597 100.546 24.0601C97.9578 22.1605 94.8822 21.0364 91.6787 20.819L91.2608 20.7943L91.2173 20.3779C90.9643 17.9737 89.9111 15.7242 88.2267 13.9901C86.4885 12.199 84.1726 11.0809 81.6891 10.8335C79.2055 10.5862 76.7146 11.2257 74.6573 12.6387L74.2009 12.9534L73.9406 12.4644C72.1089 9.00293 69.3687 6.10587 66.0146 4.08432C62.6604 2.06277 58.8189 0.993108 54.9027 0.990217Z" fill="#292A2E"/>
<path d="M65.1045 47.0726C64.9735 47.0726 64.8479 47.0205 64.7553 46.9279C64.6626 46.8353 64.6106 46.7096 64.6106 46.5787V17.8905C64.6106 17.7595 64.6626 17.6339 64.7553 17.5413C64.8479 17.4486 64.9735 17.3966 65.1045 17.3966C65.2355 17.3966 65.3611 17.4486 65.4538 17.5413C65.5464 17.6339 65.5984 17.7595 65.5984 17.8905V46.5787C65.5984 46.7096 65.5464 46.8353 65.4538 46.9279C65.3611 47.0205 65.2355 47.0726 65.1045 47.0726Z" fill="#292A2E"/>
<path d="M75.9392 29.2185C75.8743 29.2187 75.81 29.206 75.7501 29.1811C75.6901 29.1563 75.6357 29.1198 75.59 29.0738L65.1046 18.5889L54.6198 29.0738C54.5266 29.1638 54.4018 29.2136 54.2723 29.2124C54.1428 29.2113 54.019 29.1594 53.9274 29.0678C53.8358 28.9762 53.7839 28.8523 53.7827 28.7228C53.7816 28.5933 53.8314 28.4686 53.9214 28.3754L64.7549 17.5413C64.8494 17.4522 64.9744 17.4025 65.1044 17.4025C65.2343 17.4025 65.3593 17.4522 65.4538 17.5413L76.2879 28.3754C76.3569 28.4445 76.4039 28.5325 76.423 28.6283C76.442 28.7241 76.4323 28.8234 76.3949 28.9136C76.3575 29.0038 76.2942 29.081 76.213 29.1352C76.1318 29.1895 76.0363 29.2185 75.9387 29.2185H75.9392Z" fill="#292A2E"/>
<path opacity="0.05" d="M326.822 175.719H218.974C217.137 175.719 215.648 177.208 215.648 179.045V253.509C215.648 255.346 217.137 256.835 218.974 256.835H326.822C328.659 256.835 330.148 255.346 330.148 253.509V179.045C330.148 177.208 328.659 175.719 326.822 175.719Z" fill="#292A2E"/>
<path opacity="0.05" d="M263.867 200.329C268.442 200.329 272.152 196.62 272.152 192.044C272.152 187.469 268.442 183.759 263.867 183.759C259.291 183.759 255.582 187.469 255.582 192.044C255.582 196.62 259.291 200.329 263.867 200.329Z" fill="#292A2E"/>
<path opacity="0.05" d="M266.99 229.961L291.008 203.167C292.508 201.495 294.606 200.48 296.848 200.345C299.091 200.209 301.296 200.963 302.986 202.443L330.148 226.224V253.521C330.148 254.4 329.798 255.243 329.177 255.864C328.555 256.486 327.712 256.835 326.834 256.835H297.315" fill="#292A2E"/>
<path opacity="0.1" d="M297.315 256.835L245.235 210.682C243.696 209.318 241.717 208.556 239.66 208.535C237.604 208.514 235.61 209.237 234.044 210.569L215.648 226.226V253.84C215.648 254.233 215.725 254.623 215.876 254.987C216.026 255.35 216.247 255.681 216.525 255.959C216.803 256.237 217.134 256.458 217.497 256.609C217.861 256.759 218.251 256.837 218.644 256.837L297.315 256.835Z" fill="#292A2E"/>
<path opacity="0.05" d="M115.909 246.197H6.37838C4.51282 246.197 3.00049 247.71 3.00049 249.575V325.201C3.00049 327.066 4.51282 328.579 6.37838 328.579H115.909C117.775 328.579 119.287 327.066 119.287 325.201V249.575C119.287 247.71 117.775 246.197 115.909 246.197Z" fill="#292A2E"/>
<path opacity="0.05" d="M51.9717 271.191C56.6188 271.191 60.3861 267.424 60.3861 262.777C60.3861 258.13 56.6188 254.363 51.9717 254.363C47.3246 254.363 43.5574 258.13 43.5574 262.777C43.5574 267.424 47.3246 271.191 51.9717 271.191Z" fill="#292A2E"/>
<path opacity="0.05" d="M55.1453 301.286L79.5383 274.071C81.0611 272.372 83.1922 271.343 85.4693 271.205C87.7465 271.067 89.9861 271.833 91.7025 273.336L119.288 297.488V325.211C119.288 325.653 119.201 326.09 119.032 326.498C118.863 326.907 118.615 327.278 118.302 327.59C117.99 327.903 117.619 328.151 117.211 328.32C116.802 328.489 116.365 328.576 115.923 328.576H85.9419" fill="#292A2E"/>
<path opacity="0.1" d="M85.9418 328.579L33.0499 281.706C31.4869 280.321 29.4763 279.546 27.3879 279.526C25.2996 279.505 23.2738 280.238 21.6834 281.592L3.00049 297.488V325.533C3.00049 326.34 3.32114 327.114 3.89191 327.685C4.46268 328.255 5.23681 328.576 6.044 328.576L85.9418 328.579Z" fill="#292A2E"/>
<path d="M285.142 331.124C285.023 331.124 284.909 331.076 284.825 330.992C284.193 330.36 283.163 318.765 280.388 284.242C279.252 270.116 278.18 256.773 277.397 248.664C277.342 248.085 277.117 248.017 277.043 247.995C275.972 247.672 272.714 250.241 270.895 252.49C270.819 252.579 270.711 252.635 270.595 252.646C270.478 252.657 270.362 252.621 270.271 252.548C270.18 252.474 270.121 252.368 270.107 252.252C270.094 252.135 270.126 252.018 270.197 251.925C271.4 250.438 275.321 246.539 277.302 247.134C277.701 247.254 278.197 247.602 278.289 248.576C279.072 256.692 280.145 270.038 281.281 284.168C282.967 305.147 284.877 328.914 285.505 330.411C285.553 330.479 285.582 330.558 285.588 330.64C285.594 330.722 285.577 330.804 285.539 330.878C285.502 330.951 285.445 331.013 285.374 331.056C285.304 331.099 285.223 331.122 285.141 331.122L285.142 331.124Z" fill="#494949"/>
<path d="M276.245 263.545C283.688 257.579 286.155 248.292 281.755 242.803C277.355 237.314 267.754 237.701 260.311 243.667C252.868 249.634 250.401 258.92 254.801 264.409C259.201 269.899 268.802 269.512 276.245 263.545Z" fill="#0CBC8B"/>
<path opacity="0.2" d="M276.245 263.545C283.688 257.579 286.155 248.292 281.755 242.803C277.355 237.314 267.754 237.701 260.311 243.667C252.868 249.634 250.401 258.92 254.801 264.409C259.201 269.899 268.802 269.512 276.245 263.545Z" fill="white"/>
<path d="M256.887 265.805C256.845 265.805 256.803 265.793 256.767 265.77C256.731 265.747 256.703 265.714 256.685 265.676C256.667 265.637 256.66 265.594 256.665 265.552C256.67 265.51 256.688 265.47 256.715 265.437L277.928 239.856C277.966 239.811 278.021 239.782 278.08 239.776C278.139 239.771 278.198 239.789 278.244 239.827C278.29 239.865 278.319 239.919 278.324 239.979C278.33 240.038 278.312 240.097 278.274 240.143L257.058 265.724C257.037 265.749 257.011 265.77 256.982 265.784C256.952 265.798 256.92 265.805 256.887 265.805Z" fill="white"/>
<path d="M289.769 325.641C289.719 325.641 289.669 325.633 289.621 325.616C289.509 325.577 289.416 325.495 289.365 325.388C289.313 325.281 289.306 325.157 289.345 325.045L297.312 302.131C297.547 301.458 297.946 300.854 298.475 300.375C299.003 299.896 299.643 299.558 300.336 299.391C301.029 299.224 301.753 299.233 302.441 299.419C303.13 299.604 303.761 299.959 304.276 300.451L308.489 304.475C308.532 304.516 308.566 304.565 308.589 304.619C308.613 304.673 308.626 304.731 308.627 304.79C308.629 304.848 308.619 304.907 308.597 304.962C308.576 305.017 308.544 305.067 308.503 305.11C308.463 305.152 308.414 305.186 308.36 305.21C308.306 305.234 308.248 305.247 308.189 305.248C308.13 305.249 308.072 305.239 308.017 305.218C307.962 305.197 307.912 305.165 307.869 305.124L303.656 301.1C303.249 300.711 302.751 300.431 302.208 300.284C301.664 300.138 301.092 300.131 300.545 300.263C299.998 300.395 299.492 300.662 299.075 301.04C298.658 301.419 298.343 301.895 298.158 302.427L290.19 325.345C290.159 325.431 290.101 325.506 290.026 325.559C289.951 325.612 289.861 325.641 289.769 325.641Z" fill="#494949"/>
<path d="M320.261 317.16C325.777 312.793 325.449 303.19 319.529 295.71C313.608 288.231 304.337 285.706 298.821 290.073C293.304 294.439 293.632 304.042 299.553 311.522C305.474 319.002 314.745 321.526 320.261 317.16Z" fill="#0CBC8B"/>
<path d="M281.522 329.664C281.421 329.663 281.323 329.629 281.244 329.567C281.165 329.504 281.11 329.416 281.087 329.318L267.715 273.407C267.624 273.025 267.429 272.677 267.152 272.399C266.876 272.121 266.528 271.925 266.147 271.832C265.766 271.739 265.367 271.753 264.994 271.872C264.621 271.991 264.287 272.211 264.031 272.508L259.909 277.271C259.831 277.361 259.721 277.416 259.602 277.425C259.483 277.434 259.366 277.395 259.276 277.317C259.186 277.239 259.131 277.129 259.122 277.01C259.114 276.891 259.153 276.774 259.23 276.684L263.352 271.921C263.717 271.5 264.19 271.187 264.721 271.017C265.252 270.848 265.819 270.828 266.36 270.96C266.901 271.092 267.396 271.371 267.789 271.766C268.182 272.161 268.458 272.656 268.588 273.198L281.959 329.11C281.975 329.175 281.976 329.244 281.961 329.31C281.947 329.376 281.917 329.439 281.875 329.492C281.833 329.545 281.78 329.588 281.718 329.617C281.657 329.647 281.591 329.662 281.523 329.662L281.522 329.664Z" fill="#494949"/>
<path d="M276.59 289.696C278.215 280.296 273.913 271.704 266.981 270.505C260.049 269.306 253.112 275.955 251.486 285.355C249.861 294.754 254.163 303.346 261.095 304.545C268.027 305.744 274.964 299.096 276.59 289.696Z" fill="#0CBC8B"/>
<path d="M285.143 331.124C285.125 331.124 285.106 331.123 285.088 331.12C284.97 331.106 284.862 331.045 284.789 330.951C284.716 330.857 284.683 330.739 284.697 330.62L293.236 261.292C293.329 260.537 293.639 259.825 294.127 259.242C294.615 258.658 295.261 258.228 295.988 258.003C296.715 257.778 297.491 257.767 298.224 257.973C298.956 258.178 299.614 258.59 300.118 259.16L309.877 270.214C309.918 270.258 309.95 270.309 309.971 270.366C309.992 270.422 310.001 270.482 309.998 270.542C309.995 270.602 309.98 270.661 309.954 270.715C309.928 270.769 309.891 270.817 309.846 270.857C309.801 270.896 309.749 270.927 309.692 270.946C309.635 270.965 309.575 270.972 309.515 270.967C309.455 270.963 309.397 270.946 309.344 270.918C309.29 270.891 309.243 270.853 309.205 270.807L299.445 259.753C299.056 259.312 298.547 258.993 297.981 258.834C297.415 258.675 296.815 258.683 296.253 258.857C295.692 259.031 295.192 259.364 294.815 259.815C294.437 260.266 294.198 260.816 294.126 261.4L285.588 330.731C285.574 330.839 285.521 330.939 285.44 331.011C285.358 331.084 285.252 331.124 285.143 331.124Z" fill="#494949"/>
<path d="M319.887 276.358C323.293 270.202 319.286 261.469 310.938 256.851C302.591 252.234 293.063 253.481 289.658 259.637C286.253 265.793 290.26 274.527 298.607 279.144C306.955 283.762 316.482 282.514 319.887 276.358Z" fill="#0CBC8B"/>
<path opacity="0.2" d="M320.261 317.16C325.777 312.793 325.449 303.19 319.529 295.71C313.608 288.231 304.337 285.706 298.821 290.073C293.304 294.439 293.632 304.042 299.553 311.522C305.474 319.002 314.745 321.526 320.261 317.16Z" fill="white"/>
<path opacity="0.5" d="M276.59 289.696C278.215 280.296 273.913 271.704 266.981 270.505C260.049 269.306 253.112 275.955 251.486 285.355C249.861 294.754 254.163 303.346 261.095 304.545C268.027 305.744 274.964 299.096 276.59 289.696Z" fill="white"/>
<path opacity="0.5" d="M319.887 276.358C323.293 270.202 319.286 261.469 310.938 256.851C302.591 252.234 293.063 253.481 289.658 259.637C286.253 265.793 290.26 274.527 298.607 279.144C306.955 283.762 316.482 282.514 319.887 276.358Z" fill="white"/>
<path d="M296.064 389.95H274.221L270.601 320.062H299.684L296.064 389.95Z" fill="#292A2E"/>
<path opacity="0.3" d="M296.064 389.95H274.221L270.601 320.062H299.684L296.064 389.95Z" fill="white"/>
<path d="M320.262 317.382C320.228 317.382 320.194 317.374 320.164 317.36C320.133 317.345 320.107 317.323 320.086 317.297L298.646 290.21C298.628 290.187 298.614 290.16 298.606 290.132C298.598 290.103 298.596 290.074 298.599 290.045C298.602 290.015 298.611 289.987 298.626 289.961C298.64 289.936 298.659 289.913 298.682 289.895C298.706 289.876 298.732 289.863 298.76 289.855C298.789 289.847 298.818 289.844 298.848 289.848C298.877 289.851 298.905 289.86 298.931 289.874C298.957 289.889 298.979 289.908 298.998 289.931L320.438 317.018C320.465 317.051 320.481 317.091 320.486 317.133C320.491 317.175 320.483 317.217 320.465 317.255C320.447 317.293 320.418 317.325 320.382 317.348C320.346 317.37 320.305 317.382 320.263 317.382H320.262Z" fill="white"/>
<path d="M318.461 278.529C318.414 278.529 318.368 278.514 318.329 278.486L290.891 258.451C290.867 258.434 290.847 258.412 290.832 258.387C290.817 258.362 290.806 258.334 290.802 258.305C290.797 258.276 290.799 258.246 290.806 258.217C290.813 258.189 290.825 258.162 290.843 258.138C290.86 258.114 290.882 258.094 290.907 258.079C290.932 258.063 290.96 258.053 290.989 258.049C291.018 258.044 291.048 258.045 291.077 258.052C291.105 258.059 291.132 258.072 291.156 258.089L318.593 278.123C318.631 278.151 318.66 278.19 318.674 278.235C318.689 278.281 318.689 278.329 318.674 278.374C318.659 278.419 318.631 278.458 318.592 278.486C318.554 278.514 318.508 278.529 318.46 278.529H318.461Z" fill="white"/>
<path d="M259.981 304.255C259.961 304.255 259.941 304.252 259.922 304.247C259.865 304.232 259.816 304.194 259.786 304.143C259.756 304.091 259.748 304.03 259.764 303.973L268.498 271.249C268.505 271.22 268.517 271.192 268.535 271.168C268.553 271.144 268.575 271.124 268.601 271.108C268.627 271.093 268.655 271.083 268.685 271.079C268.714 271.075 268.745 271.076 268.774 271.084C268.803 271.092 268.83 271.105 268.853 271.124C268.877 271.142 268.897 271.165 268.911 271.191C268.926 271.217 268.935 271.246 268.939 271.276C268.942 271.305 268.939 271.336 268.931 271.364L260.197 304.088C260.184 304.136 260.156 304.178 260.117 304.208C260.078 304.238 260.03 304.255 259.981 304.255Z" fill="white"/>
<path d="M235.957 23.3335H110.492C100.113 23.3335 91.6985 31.7476 91.6985 42.127V337.066C91.6985 347.445 100.113 355.86 110.492 355.86H235.957C246.336 355.86 254.75 347.445 254.75 337.066V42.127C254.75 31.7476 246.336 23.3335 235.957 23.3335Z" fill="#292A2E"/>
<path d="M235.898 29.2017H110.551C103.424 29.2017 97.6462 34.9793 97.6462 42.1063V336.648C97.6462 343.775 103.424 349.552 110.551 349.552H235.898C243.025 349.552 248.803 343.775 248.803 336.648V42.1063C248.803 34.9793 243.025 29.2017 235.898 29.2017Z" fill="white"/>
<path d="M142.267 26.7756H204.182V33.1822C204.182 35.0193 203.452 36.781 202.153 38.0798C200.853 39.3787 199.091 40.1083 197.254 40.1083H149.196C147.359 40.1083 145.597 39.3784 144.297 38.0791C142.998 36.7798 142.268 35.0176 142.268 33.1802V26.7756H142.267Z" fill="#292A2E"/>
<path d="M197.276 89.6664H149.174C143.005 89.6664 138.004 94.6671 138.004 100.836V148.938C138.004 155.106 143.005 160.107 149.174 160.107H197.276C203.444 160.107 208.445 155.106 208.445 148.938V100.836C208.445 94.6671 203.444 89.6664 197.276 89.6664Z" fill="white"/>
<path d="M197.275 160.601H149.174C146.081 160.598 143.117 159.368 140.93 157.181C138.744 154.995 137.514 152.03 137.51 148.938V100.836C137.514 97.7436 138.744 94.779 140.93 92.5925C143.117 90.406 146.081 89.176 149.174 89.1725H197.275C200.367 89.176 203.332 90.406 205.518 92.5925C207.705 94.779 208.935 97.7436 208.938 100.836V148.938C208.935 152.03 207.705 154.995 205.519 157.181C203.332 159.368 200.367 160.598 197.275 160.601ZM149.174 90.1603C146.343 90.1636 143.63 91.2894 141.628 93.2907C139.627 95.292 138.501 98.0055 138.498 100.836V148.938C138.501 151.768 139.627 154.482 141.628 156.483C143.63 158.484 146.343 159.61 149.174 159.613H197.275C200.105 159.61 202.819 158.484 204.82 156.483C206.822 154.482 207.947 151.768 207.951 148.938V100.836C207.947 98.0055 206.822 95.2919 204.82 93.2906C202.819 91.2892 200.105 90.1635 197.275 90.1603H149.174Z" fill="#292A2E"/>
<path opacity="0.6" d="M194.077 217.724V226.931H126.05C124.829 226.931 123.659 226.446 122.795 225.582C121.932 224.719 121.447 223.548 121.447 222.327C121.447 221.106 121.932 219.936 122.795 219.072C123.659 218.209 124.829 217.724 126.05 217.724H194.077Z" fill="#DFDFDF"/>
<path d="M220.397 227.426H126.052C125.378 227.432 124.71 227.305 124.086 227.052C123.461 226.799 122.893 226.424 122.415 225.95C121.936 225.476 121.556 224.912 121.296 224.29C121.037 223.668 120.904 223.001 120.904 222.328C120.904 221.654 121.037 220.987 121.296 220.365C121.556 219.743 121.936 219.179 122.415 218.705C122.893 218.231 123.461 217.856 124.086 217.603C124.71 217.35 125.378 217.223 126.052 217.23H220.397C221.741 217.243 223.025 217.786 223.97 218.74C224.915 219.695 225.445 220.984 225.445 222.328C225.445 223.671 224.915 224.96 223.97 225.915C223.025 226.869 221.741 227.412 220.397 227.426ZM126.052 218.217C125.508 218.211 124.969 218.313 124.465 218.517C123.961 218.721 123.503 219.023 123.116 219.405C122.73 219.787 122.423 220.243 122.214 220.744C122.004 221.246 121.897 221.784 121.897 222.328C121.897 222.871 122.004 223.409 122.214 223.911C122.423 224.413 122.73 224.868 123.116 225.25C123.503 225.632 123.961 225.934 124.465 226.138C124.969 226.342 125.508 226.444 126.052 226.438H220.397C221.48 226.426 222.514 225.988 223.275 225.218C224.036 224.449 224.463 223.41 224.463 222.328C224.463 221.245 224.036 220.207 223.275 219.437C222.514 218.668 221.48 218.229 220.397 218.217H126.052Z" fill="#292A2E"/>
<path opacity="0.8" d="M206.206 258.327H140.244C136.357 258.327 133.206 261.478 133.206 265.365V284.261C133.206 288.148 136.357 291.299 140.244 291.299H206.206C210.092 291.299 213.243 288.148 213.243 284.261V265.365C213.243 261.478 210.092 258.327 206.206 258.327Z" fill="#A21B31"/>
<path d="M213.241 284.263V287.501C213.241 289.367 212.5 291.157 211.181 292.476C209.861 293.796 208.071 294.537 206.205 294.537H140.243C138.377 294.537 136.587 293.796 135.268 292.476C133.948 291.157 133.207 289.367 133.207 287.501V284.263C133.207 286.129 133.948 287.919 135.268 289.238C136.587 290.558 138.377 291.299 140.243 291.299H206.205C208.071 291.299 209.861 290.558 211.18 289.238C212.5 287.919 213.241 286.129 213.241 284.263Z" fill="#A21B31"/>
<path d="M168.827 284.554C168.551 284.554 168.284 284.455 168.075 284.276L160.525 277.805C160.41 277.707 160.315 277.586 160.246 277.451C160.177 277.315 160.136 277.168 160.124 277.016C160.113 276.865 160.131 276.712 160.178 276.568C160.225 276.424 160.3 276.29 160.399 276.175C160.498 276.059 160.619 275.965 160.754 275.896C160.889 275.827 161.037 275.786 161.188 275.774C161.34 275.763 161.492 275.781 161.636 275.828C161.781 275.875 161.914 275.95 162.03 276.049L168.729 281.791L184.318 264.734C184.421 264.622 184.544 264.532 184.682 264.467C184.819 264.403 184.968 264.366 185.12 264.359C185.272 264.353 185.423 264.376 185.566 264.428C185.709 264.479 185.84 264.559 185.952 264.661C186.064 264.764 186.155 264.887 186.219 265.025C186.283 265.162 186.32 265.311 186.327 265.463C186.334 265.614 186.311 265.766 186.259 265.909C186.207 266.051 186.128 266.183 186.025 266.295L169.681 284.178C169.573 284.297 169.441 284.391 169.294 284.456C169.147 284.521 168.988 284.554 168.827 284.554Z" fill="white"/>
<path d="M173.224 142.577C173.093 142.577 172.968 142.525 172.875 142.432C172.782 142.339 172.73 142.214 172.73 142.083V107.691C172.73 107.56 172.782 107.434 172.875 107.342C172.968 107.249 173.093 107.197 173.224 107.197C173.355 107.197 173.481 107.249 173.574 107.342C173.666 107.434 173.718 107.56 173.718 107.691V142.083C173.718 142.214 173.666 142.339 173.574 142.432C173.481 142.525 173.355 142.577 173.224 142.577Z" fill="#292A2E"/>
<path d="M190.42 125.381H156.029C155.898 125.381 155.772 125.329 155.679 125.236C155.587 125.144 155.535 125.018 155.535 124.887C155.535 124.756 155.587 124.63 155.679 124.538C155.772 124.445 155.898 124.393 156.029 124.393H190.42C190.551 124.393 190.677 124.445 190.77 124.538C190.862 124.63 190.914 124.756 190.914 124.887C190.914 125.018 190.862 125.144 190.77 125.236C190.677 125.329 190.551 125.381 190.42 125.381Z" fill="#292A2E"/>
<path d="M72.6229 147.023L78.136 138.447C78.2572 138.259 78.4163 138.097 78.6031 137.974C78.79 137.85 79.0005 137.767 79.2214 137.729C79.4422 137.691 79.6685 137.7 79.8858 137.754C80.1031 137.809 80.3067 137.908 80.4836 138.046C80.8022 138.31 81.0114 138.682 81.0707 139.092C81.13 139.501 81.0352 139.918 80.8047 140.262L79.6227 142.101L85.9942 138.024C86.6946 137.558 87.8519 137.435 88.3226 138.255C88.5243 138.559 88.6172 138.922 88.586 139.285C88.5547 139.649 88.4013 139.991 88.1507 140.256C88.1566 140.261 88.1619 140.267 88.1665 140.274C88.1695 140.279 88.1718 140.285 88.1734 140.291L89.2541 139.573C89.4542 139.44 89.6815 139.354 89.9194 139.32C90.1572 139.286 90.3996 139.305 90.629 139.377C90.8583 139.449 91.0687 139.571 91.245 139.734C91.4212 139.897 91.5588 140.098 91.6476 140.321C91.7805 140.675 91.7878 141.065 91.6681 141.424C91.5485 141.783 91.3091 142.09 90.9902 142.293L90.5304 142.599C90.5336 142.616 90.5336 142.634 90.5304 142.651C90.8889 142.517 91.2834 142.515 91.6435 142.644C92.0037 142.774 92.3059 143.028 92.4962 143.36C92.6936 143.73 92.7444 144.16 92.6385 144.566C92.5326 144.971 92.2777 145.322 91.9247 145.548L90.7828 146.306C90.8065 146.307 90.8297 146.313 90.8505 146.325C90.8713 146.336 90.8891 146.352 90.9023 146.372C90.9172 146.396 90.9246 146.424 90.9235 146.452C91.276 146.421 91.6288 146.507 91.9279 146.696C92.2269 146.885 92.4555 147.167 92.5786 147.499C92.7008 147.85 92.7009 148.232 92.5789 148.583C92.4569 148.934 92.22 149.234 91.9064 149.434L82.2721 155.837C80.9243 156.733 79.3396 157.206 77.7212 157.196C76.1027 157.185 74.5244 156.691 73.1885 155.778C72.0369 154.99 71.2379 153.784 70.9612 152.416C70.6845 151.049 70.952 149.627 71.7067 148.453L72.6229 147.023Z" fill="#E98862"/>
<g opacity="0.2">
<path d="M81.866 144.322C81.8877 144.354 81.9212 144.377 81.9594 144.385C81.9976 144.392 82.0373 144.385 82.07 144.364L88.1249 140.479C88.1581 140.457 88.1815 140.424 88.1899 140.385C88.1983 140.346 88.191 140.306 88.1696 140.273C88.1483 140.24 88.1146 140.216 88.076 140.208C88.0375 140.2 87.9971 140.207 87.9639 140.228L81.909 144.113C81.8925 144.124 81.8782 144.137 81.867 144.153C81.8558 144.17 81.8479 144.188 81.8438 144.207C81.8396 144.226 81.8392 144.246 81.8427 144.265C81.8462 144.284 81.8534 144.302 81.8641 144.319L81.866 144.322Z" fill="#0C0C0C"/>
</g>
<g opacity="0.2">
<path d="M83.504 147.041C83.5256 147.074 83.5592 147.096 83.5973 147.104C83.6355 147.112 83.6753 147.104 83.708 147.083L90.4652 142.744C90.4818 142.734 90.4961 142.72 90.5074 142.704C90.5186 142.688 90.5265 142.67 90.5307 142.651C90.5349 142.631 90.5352 142.612 90.5317 142.592C90.5282 142.573 90.5209 142.555 90.5102 142.538C90.4878 142.506 90.4542 142.484 90.4159 142.475C90.3777 142.467 90.3378 142.474 90.3042 142.494L83.5455 146.831C83.5289 146.841 83.5146 146.855 83.5033 146.871C83.4921 146.887 83.4841 146.905 83.48 146.924C83.4758 146.944 83.4755 146.963 83.479 146.983C83.4825 147.002 83.4898 147.02 83.5005 147.037L83.504 147.041Z" fill="#0C0C0C"/>
</g>
<g opacity="0.2">
<path d="M85.2634 149.993C85.285 150.026 85.3185 150.048 85.3565 150.056C85.3946 150.064 85.4342 150.056 85.4669 150.035L90.8575 146.578C90.8907 146.557 90.914 146.523 90.9224 146.484C90.9308 146.446 90.9235 146.405 90.9022 146.372C90.8808 146.339 90.8472 146.316 90.8086 146.307C90.77 146.299 90.7297 146.306 90.6965 146.328L85.3059 149.785C85.2893 149.795 85.2751 149.809 85.2639 149.825C85.2527 149.841 85.2448 149.859 85.2406 149.879C85.2365 149.898 85.2362 149.918 85.2398 149.937C85.2433 149.956 85.2507 149.975 85.2614 149.991L85.2634 149.993Z" fill="#0C0C0C"/>
</g>
<path d="M25.0405 133.113L50.5517 174.086L34.5256 171.479L71.8193 142.664L85.4089 160.252L48.1152 189.067C46.9611 189.959 45.6425 190.615 44.2349 190.997C42.8273 191.379 41.3582 191.481 39.9114 191.295C38.4646 191.109 37.0686 190.641 35.803 189.916C34.5374 189.191 33.4269 188.223 32.5351 187.069C32.4693 186.983 32.4034 186.896 32.3376 186.808L32.0877 186.462L3.88159 147.295L25.0405 133.113Z" fill="#367CFF"/>
<path d="M17.8337 372.029C17.8337 372.029 19.6701 381.549 28.5833 382.079C37.4965 382.609 35.5634 389.71 35.5634 389.71H1.50586V372.693L17.8337 372.029Z" fill="#A21B31"/>
<path d="M7.32823 198.379C7.32823 198.379 7.43541 195.518 7.41269 202.009C7.32823 226.222 6.90791 253.879 5.88155 270.062C4.23138 296.079 0 378.105 0 378.105L22.3813 377.916L44.0741 197.395L7.32823 198.379Z" fill="#262626"/>
<path d="M32.603 226.932C32.603 226.932 33.5306 244.503 33.7025 248.628C34.1006 258.168 34.2384 268.045 34.2384 279.244L37.7664 249.886C37.7664 249.886 35.1847 240.688 32.603 226.932Z" fill="#0A0A0A"/>
<path d="M57.679 372.029C57.679 372.029 59.5154 381.549 68.4281 382.079C77.3408 382.609 75.4081 389.71 75.4081 389.71H41.3481V372.693L57.679 372.029Z" fill="#A21B31"/>
<path d="M68.5155 200.259C68.5155 200.259 70.498 283.013 70.2076 287.058L61.8841 377.478L39.8728 377.884L42.0178 283.787C42.0178 283.787 40.5045 257.831 34.2332 233.728C31.0245 221.358 29.0934 208.691 28.4702 195.927L68.5155 200.259Z" fill="#262626"/>
<path d="M7.08726 198.377L7.01416 198.381C7.01416 198.381 7.06503 196.969 7.08726 198.377Z" fill="#333333"/>
<path d="M71.6662 154.325C71.2049 159.748 68.9596 193.58 68.5155 200.26H7.3529C7.00716 194.234 5.45626 167.893 4.14591 156.113C2.89531 144.871 2.7259 139.053 4.52474 135.73C7.46403 130.297 13.2103 127.349 18.6868 126.608C22.0311 126.155 27.0606 125.831 27.0606 125.831C27.0606 125.831 27.4859 134.446 37.6408 134.925C51.4641 135.577 50.5414 125.83 50.6096 125.83C52.849 125.83 64.1547 126.884 67.0382 129.103C73.2003 133.843 72.6461 142.834 71.6662 154.325Z" fill="#FAEAD3"/>
<path d="M56.2159 126.142C56.1517 126.133 54.3885 132.774 40.6141 131.741C31.0791 131.027 28.7542 124.536 28.5354 124.536C29.5637 124.318 31.2332 124.092 31.6895 123.847C32.4784 123.484 33.1727 122.943 33.7184 122.268C34.264 121.592 34.6462 120.799 34.8353 119.951C35.266 118.303 35.4853 111.958 35.4853 108.775L50.1566 112.072C49.9521 115.663 48.5207 123.988 53.5379 125.461C54.3731 125.704 55.2721 125.929 56.2159 126.142Z" fill="#E98862"/>
<path d="M49.6499 119.131C43.8657 119.588 36.4352 117.146 35.0241 109.429L33.7508 102.465C32.3391 94.7478 35.2483 87.7505 42.5143 86.4219C49.7803 85.0928 56.3553 90.3554 57.7664 98.0724L58.3305 101.155C58.8718 104.12 59.9698 118.317 49.6499 119.131Z" fill="#E98862"/>
<path d="M55.0128 112.046C53.9756 106.83 53.4985 103.349 53.5538 99.6771C55.0163 97.1122 54.6315 94.168 54.2991 92.8962C55.3062 93.5357 56.4903 93.8392 57.681 93.763C57.681 93.763 55.2608 84.057 47.0425 81.4452C45.5311 80.857 41.6716 80.1141 36.5473 80.8169C32.1885 81.4146 21.4448 84.6734 19.9097 96.7704V96.7774C19.8603 97.1784 18.8275 108.323 16.7709 113.669C14.0049 120.857 10.1247 123.091 10.223 131.384C10.3485 141.956 36.0548 143.061 41.7902 142.674C53.6195 141.875 60.2226 137.986 60.3081 130.298C60.4029 121.684 57.0902 122.484 55.0128 112.046Z" fill="#0A0A0A"/>
<path d="M154.082 76.7199H74.7186C73.367 76.7199 72.2712 77.8156 72.2712 79.1673V144.222C72.2712 145.574 73.367 146.669 74.7186 146.669H154.082C155.434 146.669 156.529 145.574 156.529 144.222V79.1673C156.529 77.8156 155.434 76.7199 154.082 76.7199Z" fill="#24C397"/>
<path opacity="0.3" d="M154.082 76.7199H74.7186C73.367 76.7199 72.2712 77.8156 72.2712 79.1673V144.222C72.2712 145.574 73.367 146.669 74.7186 146.669H154.082C155.434 146.669 156.529 145.574 156.529 144.222V79.1673C156.529 77.8156 155.434 76.7199 154.082 76.7199Z" fill="white"/>
<path opacity="0.8" d="M101.658 104.485C105.025 104.485 107.755 101.756 107.755 98.3885C107.755 95.0213 105.025 92.2916 101.658 92.2916C98.2907 92.2916 95.561 95.0213 95.561 98.3885C95.561 101.756 98.2907 104.485 101.658 104.485Z" fill="white"/>
<path opacity="0.5" d="M110.053 126.894L127.727 107.177C128.831 105.945 130.375 105.199 132.025 105.099C133.676 104.999 135.299 105.554 136.543 106.644L156.531 124.144V146.67H132.369" fill="#91E1CB"/>
<path opacity="0.8" d="M132.368 146.67L94.0441 112.707C92.9116 111.703 91.4549 111.142 89.9418 111.127C88.4287 111.112 86.9609 111.643 85.8085 112.624L72.2712 124.144V146.67" fill="#D3F3EA"/>
<path d="M154.082 147.041H74.7186C73.9724 147.04 73.2572 146.743 72.7295 146.215C72.2018 145.687 71.9048 144.972 71.9033 144.226V79.1673C71.9042 78.4207 72.2011 77.7049 72.7288 77.1767C73.2565 76.6485 73.972 76.3511 74.7186 76.3495H154.082C154.829 76.3504 155.545 76.6476 156.073 77.1758C156.602 77.704 156.899 78.4202 156.9 79.1673V144.222C156.899 144.969 156.602 145.686 156.074 146.215C155.546 146.743 154.829 147.04 154.082 147.041ZM74.7186 77.0904C74.1684 77.0917 73.6412 77.311 73.2524 77.7003C72.8635 78.0896 72.6448 78.6171 72.6442 79.1673V144.222C72.6454 144.772 72.8643 145.299 73.2531 145.688C73.6419 146.076 74.1688 146.295 74.7186 146.296H154.082C154.632 146.296 155.16 146.077 155.549 145.688C155.938 145.3 156.158 144.772 156.159 144.222V79.1673C156.158 78.6166 155.939 78.0887 155.55 77.6994C155.16 77.31 154.632 77.091 154.082 77.0904H74.7186Z" fill="#292A2E"/>
<path d="M121.058 147.023L126.571 138.447C126.692 138.259 126.851 138.097 127.038 137.974C127.225 137.85 127.435 137.767 127.656 137.729C127.877 137.691 128.103 137.7 128.321 137.754C128.538 137.809 128.742 137.908 128.918 138.046C129.237 138.31 129.446 138.682 129.506 139.092C129.565 139.501 129.47 139.918 129.24 140.262L128.058 142.101L134.429 138.024C135.129 137.558 136.287 137.435 136.757 138.255C136.959 138.559 137.052 138.922 137.021 139.285C136.99 139.649 136.836 139.991 136.585 140.256C136.591 140.261 136.597 140.267 136.602 140.274C136.604 140.279 136.607 140.285 136.608 140.291L137.689 139.573C137.889 139.44 138.116 139.354 138.354 139.32C138.592 139.286 138.834 139.305 139.064 139.377C139.293 139.449 139.504 139.571 139.68 139.734C139.856 139.897 139.994 140.098 140.082 140.321C140.215 140.675 140.223 141.065 140.103 141.424C139.983 141.783 139.744 142.09 139.425 142.293L138.965 142.599C138.968 142.616 138.968 142.634 138.965 142.651C139.324 142.517 139.718 142.515 140.078 142.644C140.438 142.774 140.74 143.028 140.93 143.36C141.128 143.73 141.179 144.16 141.073 144.566C140.967 144.971 140.712 145.322 140.359 145.548L139.217 146.306C139.241 146.307 139.264 146.313 139.285 146.325C139.306 146.336 139.323 146.352 139.337 146.372C139.352 146.396 139.359 146.424 139.358 146.452C139.71 146.421 140.063 146.507 140.362 146.696C140.661 146.885 140.89 147.167 141.013 147.499C141.135 147.85 141.136 148.232 141.014 148.583C140.891 148.934 140.654 149.234 140.341 149.434L130.706 155.837C129.359 156.733 127.774 157.206 126.155 157.196C124.537 157.185 122.959 156.691 121.623 155.778C120.471 154.99 119.672 153.784 119.396 152.416C119.119 151.049 119.386 149.627 120.141 148.453L121.058 147.023Z" fill="#E98862"/>
<g opacity="0.2">
<path d="M130.299 144.322C130.321 144.354 130.354 144.377 130.392 144.385C130.43 144.392 130.47 144.385 130.503 144.364L136.558 140.479C136.574 140.468 136.588 140.454 136.6 140.438C136.611 140.422 136.619 140.404 136.623 140.385C136.627 140.366 136.627 140.346 136.624 140.327C136.62 140.308 136.613 140.289 136.602 140.273C136.592 140.256 136.578 140.242 136.562 140.231C136.546 140.22 136.528 140.212 136.509 140.208C136.49 140.204 136.47 140.203 136.451 140.207C136.432 140.21 136.413 140.218 136.397 140.228L130.342 144.113C130.325 144.124 130.311 144.137 130.3 144.153C130.289 144.17 130.281 144.188 130.277 144.207C130.272 144.226 130.272 144.246 130.276 144.265C130.279 144.284 130.286 144.302 130.297 144.319L130.299 144.322Z" fill="#0C0C0C"/>
</g>
<g opacity="0.2">
<path d="M131.939 147.041C131.96 147.074 131.994 147.096 132.032 147.104C132.07 147.112 132.11 147.104 132.143 147.083L138.9 142.744C138.917 142.734 138.931 142.72 138.942 142.704C138.953 142.688 138.961 142.67 138.966 142.651C138.97 142.631 138.97 142.612 138.967 142.592C138.963 142.573 138.956 142.555 138.945 142.538C138.923 142.506 138.889 142.484 138.851 142.475C138.813 142.467 138.773 142.474 138.739 142.494L131.982 146.829C131.965 146.84 131.951 146.854 131.94 146.87C131.928 146.886 131.92 146.904 131.916 146.923C131.912 146.942 131.912 146.962 131.915 146.981C131.919 147 131.926 147.019 131.937 147.035L131.939 147.041Z" fill="#0C0C0C"/>
</g>
<g opacity="0.2">
<path d="M133.698 149.993C133.72 150.026 133.753 150.048 133.791 150.056C133.829 150.064 133.869 150.056 133.902 150.035L139.292 146.578C139.325 146.557 139.349 146.523 139.357 146.484C139.365 146.446 139.358 146.405 139.337 146.372C139.315 146.339 139.282 146.316 139.243 146.307C139.205 146.299 139.164 146.306 139.131 146.328L133.741 149.785C133.724 149.795 133.71 149.809 133.699 149.825C133.688 149.841 133.68 149.859 133.676 149.879C133.671 149.898 133.671 149.918 133.675 149.937C133.678 149.956 133.685 149.974 133.696 149.991L133.698 149.993Z" fill="#0C0C0C"/>
</g>
<path d="M68.8431 131.163L98.6469 173.606L82.9621 171.479L120.255 142.664L133.845 160.252L96.5512 189.067C94.2472 190.848 91.3361 191.652 88.4447 191.308C85.5532 190.963 82.9127 189.497 81.0917 187.225L80.8645 186.941L48.4675 146.445L68.8431 131.163Z" fill="#FAEAD3"/>
</svg>
