<svg width="342" height="255" viewBox="0 0 342 255" fill="none" xmlns="http://www.w3.org/2000/svg">
<path opacity="0.1" d="M280.491 38.6976H91.5151V243.8H280.491V38.6976Z" fill="white"/>
<path opacity="0.2" d="M280.491 38.6976H91.5151V243.8H280.491V38.6976Z" fill="#DFDFDF"/>
<path d="M271.579 47.489H100.428V207.408H271.579V47.489Z" fill="white"/>
<path d="M166.549 26.5047C173.868 26.5047 179.802 20.5714 179.802 13.2524C179.802 5.93329 173.868 0 166.549 0C159.23 0 153.297 5.93329 153.297 13.2524C153.297 20.5714 159.23 26.5047 166.549 26.5047Z" fill="#367CFF"/>
<path opacity="0.68" d="M166.549 26.5047C173.868 26.5047 179.802 20.5714 179.802 13.2524C179.802 5.93329 173.868 0 166.549 0C159.23 0 153.297 5.93329 153.297 13.2524C153.297 20.5714 159.23 26.5047 166.549 26.5047Z" fill="white"/>
<path d="M173.686 8.02915C171.801 6.06445 168.681 6.50621 166.716 8.3908L166.592 8.51471L166.459 8.38106C164.535 6.45455 161.413 5.9454 159.486 7.8693C158.561 8.79328 158.041 10.0469 158.04 11.3544C158.039 12.662 158.558 13.9163 159.481 14.8416L166.588 21.8214C166.593 21.8268 166.601 21.8299 166.608 21.8299C166.616 21.8299 166.624 21.8268 166.629 21.8214L173.686 14.8547C174.567 13.9367 175.058 12.7139 175.058 11.4419C175.058 10.1699 174.567 8.94713 173.686 8.02915Z" fill="white"/>
<path d="M267.942 216.333V235.54L260.348 227.95L252.754 235.54V216.333H267.942Z" fill="white"/>
<path d="M157.154 228.595C164.473 228.595 170.406 222.662 170.406 215.343C170.406 208.024 164.473 202.09 157.154 202.09C149.835 202.09 143.901 208.024 143.901 215.343C143.901 222.662 149.835 228.595 157.154 228.595Z" fill="#367CFF"/>
<path opacity="0.68" d="M157.154 228.595C164.473 228.595 170.406 222.662 170.406 215.343C170.406 208.024 164.473 202.09 157.154 202.09C149.835 202.09 143.901 208.024 143.901 215.343C143.901 222.662 149.835 228.595 157.154 228.595Z" fill="white"/>
<path d="M164.29 210.12C162.406 208.155 159.285 208.597 157.32 210.481L157.196 210.605L157.063 210.472C155.139 208.545 152.017 208.036 150.091 209.96C149.166 210.884 148.645 212.137 148.645 213.445C148.644 214.752 149.162 216.007 150.086 216.932L157.192 223.911C157.198 223.917 157.205 223.92 157.213 223.92C157.221 223.92 157.228 223.917 157.233 223.911L164.29 216.945C165.171 216.027 165.663 214.804 165.663 213.532C165.663 212.26 165.171 211.037 164.29 210.12Z" fill="white"/>
<path d="M123.85 124.831C131.169 124.831 137.102 118.897 137.102 111.578C137.102 104.259 131.169 98.326 123.85 98.326C116.531 98.326 110.598 104.259 110.598 111.578C110.598 118.897 116.531 124.831 123.85 124.831Z" fill="#367CFF"/>
<path opacity="0.68" d="M123.85 124.831C131.169 124.831 137.102 118.897 137.102 111.578C137.102 104.259 131.169 98.326 123.85 98.326C116.531 98.326 110.598 104.259 110.598 111.578C110.598 118.897 116.531 124.831 123.85 124.831Z" fill="white"/>
<path d="M130.987 106.355C129.102 104.39 125.981 104.832 124.016 106.717L123.893 106.841L123.759 106.707C121.836 104.781 118.714 104.271 116.787 106.195C115.862 107.119 115.342 108.373 115.341 109.68C115.34 110.988 115.858 112.242 116.782 113.168L123.889 120.147C123.894 120.153 123.901 120.156 123.909 120.156C123.917 120.156 123.924 120.153 123.93 120.147L130.987 113.181C131.867 112.263 132.359 111.04 132.359 109.768C132.359 108.496 131.867 107.273 130.987 106.355Z" fill="white"/>
<path d="M225.061 151.137L217.857 151.128C216.688 151.127 215.739 152.074 215.738 153.242L215.721 167.95C215.72 169.119 216.666 170.068 217.835 170.069L225.039 170.077C226.208 170.079 227.157 169.132 227.158 167.963L227.175 153.256C227.176 152.087 226.23 151.138 225.061 151.137Z" fill="#367CFF"/>
<path d="M225.061 151.137L217.857 151.128C216.688 151.127 215.739 152.074 215.738 153.242L215.721 167.95C215.72 169.119 216.666 170.068 217.835 170.069L225.039 170.077C226.208 170.079 227.157 169.132 227.158 167.963L227.175 153.256C227.176 152.087 226.23 151.138 225.061 151.137Z" fill="#367CFF"/>
<path opacity="0.3" d="M246.312 167.817C246.339 167.299 246.197 166.786 245.906 166.356C245.616 165.926 245.193 165.603 244.702 165.435H245.103C245.74 165.441 246.354 165.195 246.812 164.752C247.269 164.308 247.533 163.702 247.547 163.065C247.551 162.515 247.365 161.981 247.021 161.553C246.676 161.124 246.195 160.828 245.657 160.713H245.828C246.466 160.719 247.08 160.473 247.538 160.03C247.995 159.586 248.26 158.98 248.274 158.342C248.277 157.792 248.091 157.258 247.746 156.83C247.401 156.402 246.92 156.105 246.382 155.991C246.702 155.99 247.019 155.925 247.313 155.799C247.608 155.674 247.874 155.49 248.096 155.259C248.318 155.028 248.492 154.755 248.606 154.456C248.72 154.157 248.773 153.837 248.761 153.517C248.729 152.894 248.458 152.306 248.003 151.878C247.549 151.449 246.946 151.213 246.322 151.218L239.024 151.209H237.445C237.389 151.209 237.335 151.194 237.287 151.164C237.24 151.135 237.201 151.093 237.176 151.043C237.151 150.993 237.141 150.937 237.146 150.882C237.151 150.826 237.172 150.773 237.206 150.729C238.789 148.592 238.903 147.376 238.985 144.407V144.349C239.005 143.661 238.752 142.993 238.28 142.491C237.808 141.989 237.156 141.696 236.468 141.674H236.384C235.705 141.673 235.053 141.938 234.567 142.411C234.08 142.884 233.798 143.528 233.779 144.206V144.264C233.746 145.441 233.75 146.228 233.602 146.641C232.596 149.462 229.864 149.914 229.264 150.05C228.852 150.139 228.469 150.332 228.153 150.611C227.837 150.891 227.598 151.246 227.459 151.644C227.281 152.089 227.185 152.562 227.175 153.041V168.018C227.175 169.234 228.279 170.081 229.617 170.065L243.132 170.08H243.868C244.488 170.086 245.086 169.855 245.54 169.434C245.995 169.013 246.271 168.435 246.312 167.817Z" fill="white"/>
<path d="M246.312 167.817C246.339 167.299 246.197 166.786 245.906 166.356C245.616 165.926 245.193 165.603 244.702 165.435H245.103C245.74 165.441 246.354 165.195 246.812 164.752C247.269 164.308 247.533 163.702 247.547 163.065C247.551 162.515 247.365 161.981 247.021 161.553C246.676 161.124 246.195 160.828 245.657 160.713H245.828C246.466 160.719 247.08 160.473 247.538 160.03C247.995 159.586 248.26 158.98 248.274 158.342C248.277 157.792 248.091 157.258 247.746 156.83C247.401 156.402 246.92 156.105 246.382 155.991C246.702 155.99 247.019 155.925 247.313 155.799C247.608 155.674 247.874 155.49 248.096 155.259C248.318 155.028 248.492 154.755 248.606 154.456C248.72 154.157 248.773 153.837 248.761 153.517C248.729 152.894 248.458 152.306 248.003 151.878C247.549 151.449 246.946 151.213 246.322 151.218L239.024 151.209H237.445C237.389 151.209 237.335 151.194 237.287 151.164C237.24 151.135 237.201 151.093 237.176 151.043C237.151 150.993 237.141 150.937 237.146 150.882C237.151 150.826 237.172 150.773 237.206 150.729C238.789 148.592 238.903 147.376 238.985 144.407V144.349C239.005 143.661 238.752 142.993 238.28 142.491C237.808 141.989 237.156 141.696 236.468 141.674H236.384C235.705 141.673 235.053 141.938 234.567 142.411C234.08 142.884 233.798 143.528 233.779 144.206V144.264C233.746 145.441 233.75 146.228 233.602 146.641C232.596 149.462 229.864 149.914 229.264 150.05C228.852 150.139 228.469 150.332 228.153 150.611C227.837 150.891 227.598 151.246 227.459 151.644C227.281 152.089 227.185 152.562 227.175 153.041V168.018C227.175 169.234 228.279 170.081 229.617 170.065L243.132 170.08H243.868C244.488 170.086 245.086 169.855 245.54 169.434C245.995 169.013 246.271 168.435 246.312 167.817Z" fill="#367CFF"/>
<path opacity="0.8" d="M246.312 167.817C246.339 167.299 246.197 166.786 245.906 166.356C245.616 165.926 245.193 165.603 244.702 165.435H245.103C245.74 165.441 246.354 165.195 246.812 164.752C247.269 164.308 247.533 163.702 247.547 163.065C247.551 162.515 247.365 161.981 247.021 161.553C246.676 161.124 246.195 160.828 245.657 160.713H245.828C246.466 160.719 247.08 160.473 247.538 160.03C247.995 159.586 248.26 158.98 248.274 158.342C248.277 157.792 248.091 157.258 247.746 156.83C247.401 156.402 246.92 156.105 246.382 155.991C246.702 155.99 247.019 155.925 247.313 155.799C247.608 155.674 247.874 155.49 248.096 155.259C248.318 155.028 248.492 154.755 248.606 154.456C248.72 154.157 248.773 153.837 248.761 153.517C248.729 152.894 248.458 152.306 248.003 151.878C247.549 151.449 246.946 151.213 246.322 151.218L239.024 151.209H237.445C237.389 151.209 237.335 151.194 237.287 151.164C237.24 151.135 237.201 151.093 237.176 151.043C237.151 150.993 237.141 150.937 237.146 150.882C237.151 150.826 237.172 150.773 237.206 150.729C238.789 148.592 238.903 147.376 238.985 144.407V144.349C239.005 143.661 238.752 142.993 238.28 142.491C237.808 141.989 237.156 141.696 236.468 141.674H236.384C235.705 141.673 235.053 141.938 234.567 142.411C234.08 142.884 233.798 143.528 233.779 144.206V144.264C233.746 145.441 233.75 146.228 233.602 146.641C232.596 149.462 229.864 149.914 229.264 150.05C228.852 150.139 228.469 150.332 228.153 150.611C227.837 150.891 227.598 151.246 227.459 151.644C227.281 152.089 227.185 152.562 227.175 153.041V168.018C227.175 169.234 228.279 170.081 229.617 170.065L243.132 170.08H243.868C244.488 170.086 245.086 169.855 245.54 169.434C245.995 169.013 246.271 168.435 246.312 167.817Z" fill="white"/>
<path d="M104.086 66.4128L96.593 66.4041C95.3775 66.4027 94.391 67.387 94.3896 68.6025L94.3719 83.8997C94.3705 85.1153 95.3548 86.1018 96.5703 86.1032L104.063 86.1118C105.279 86.1132 106.265 85.129 106.267 83.9134L106.284 68.6162C106.286 67.4007 105.302 66.4142 104.086 66.4128Z" fill="#367CFF"/>
<path d="M104.086 66.4128L96.593 66.4041C95.3775 66.4027 94.391 67.387 94.3896 68.6025L94.3719 83.8997C94.3705 85.1153 95.3548 86.1018 96.5703 86.1032L104.063 86.1118C105.279 86.1132 106.265 85.129 106.267 83.9134L106.284 68.6162C106.286 67.4007 105.302 66.4142 104.086 66.4128Z" fill="#367CFF"/>
<path opacity="0.3" d="M126.188 83.76C126.216 83.221 126.068 82.6876 125.766 82.2405C125.464 81.7934 125.024 81.4571 124.513 81.2824H124.929C125.592 81.2885 126.231 81.0332 126.707 80.5718C127.183 80.1103 127.458 79.4799 127.472 78.8171C127.476 78.2456 127.282 77.6902 126.924 77.2447C126.566 76.7991 126.066 76.4908 125.506 76.3717H125.685C126.348 76.3778 126.986 76.1224 127.462 75.6608C127.938 75.1992 128.213 74.5686 128.227 73.9058C128.231 73.3339 128.037 72.7784 127.679 72.3329C127.32 71.8874 126.819 71.5794 126.26 71.4607C126.593 71.46 126.922 71.3921 127.229 71.2613C127.535 71.1305 127.812 70.9394 128.043 70.6993C128.274 70.4593 128.454 70.1752 128.573 69.864C128.692 69.5529 128.747 69.2209 128.735 68.8881C128.701 68.2392 128.419 67.6282 127.946 67.1825C127.473 66.7368 126.847 66.4908 126.197 66.4958L118.608 66.4868L116.966 66.485C116.908 66.4849 116.851 66.4686 116.802 66.4381C116.752 66.4076 116.713 66.364 116.687 66.3122C116.661 66.2604 116.65 66.2024 116.655 66.1447C116.66 66.087 116.682 66.0319 116.716 65.9856C118.363 63.7637 118.481 62.4987 118.567 59.4112V59.3506C118.588 58.6343 118.323 57.9391 117.832 57.4175C117.341 56.8958 116.663 56.5903 115.947 56.5679H115.859C115.154 56.5674 114.476 56.8423 113.97 57.3341C113.464 57.8259 113.169 58.4958 113.15 59.2012V59.2618C113.116 60.486 113.12 61.3037 112.967 61.7327C111.918 64.667 109.079 65.1372 108.455 65.278C108.027 65.3716 107.63 65.5732 107.302 65.8637C106.974 66.1543 106.725 66.524 106.581 66.9376C106.396 67.4002 106.296 67.8922 106.286 68.3901V83.967C106.286 85.2316 107.434 86.1121 108.826 86.0957L122.881 86.111H123.647C124.291 86.1172 124.912 85.8772 125.385 85.4401C125.857 85.003 126.145 84.402 126.188 83.76Z" fill="white"/>
<path d="M126.188 83.76C126.216 83.221 126.068 82.6876 125.766 82.2405C125.464 81.7934 125.024 81.4571 124.513 81.2824H124.929C125.592 81.2885 126.231 81.0332 126.707 80.5718C127.183 80.1103 127.458 79.4799 127.472 78.8171C127.476 78.2456 127.282 77.6902 126.924 77.2447C126.566 76.7991 126.066 76.4908 125.506 76.3717H125.685C126.348 76.3778 126.986 76.1224 127.462 75.6608C127.938 75.1992 128.213 74.5686 128.227 73.9058C128.231 73.3339 128.037 72.7784 127.679 72.3329C127.32 71.8874 126.819 71.5794 126.26 71.4607C126.593 71.46 126.922 71.3921 127.229 71.2613C127.535 71.1305 127.812 70.9394 128.043 70.6993C128.274 70.4593 128.454 70.1752 128.573 69.864C128.692 69.5529 128.747 69.2209 128.735 68.8881C128.701 68.2392 128.419 67.6282 127.946 67.1825C127.473 66.7368 126.847 66.4908 126.197 66.4958L118.608 66.4868L116.966 66.485C116.908 66.4849 116.851 66.4686 116.802 66.4381C116.752 66.4076 116.713 66.364 116.687 66.3122C116.661 66.2604 116.65 66.2024 116.655 66.1447C116.66 66.087 116.682 66.0319 116.716 65.9856C118.363 63.7637 118.481 62.4987 118.567 59.4112V59.3506C118.588 58.6343 118.323 57.9391 117.832 57.4175C117.341 56.8958 116.663 56.5903 115.947 56.5679H115.859C115.154 56.5674 114.476 56.8423 113.97 57.3341C113.464 57.8259 113.169 58.4958 113.15 59.2012V59.2618C113.116 60.486 113.12 61.3037 112.967 61.7327C111.918 64.667 109.079 65.1372 108.455 65.278C108.027 65.3716 107.63 65.5732 107.302 65.8637C106.974 66.1543 106.725 66.524 106.581 66.9376C106.396 67.4002 106.296 67.8922 106.286 68.3901V83.967C106.286 85.2316 107.434 86.1121 108.826 86.0957L122.881 86.111H123.647C124.291 86.1172 124.912 85.8772 125.385 85.4401C125.857 85.003 126.145 84.402 126.188 83.76Z" fill="#367CFF"/>
<path opacity="0.8" d="M126.188 83.76C126.216 83.221 126.068 82.6876 125.766 82.2405C125.464 81.7934 125.024 81.4571 124.513 81.2824H124.929C125.592 81.2885 126.231 81.0332 126.707 80.5718C127.183 80.1103 127.458 79.4799 127.472 78.8171C127.476 78.2456 127.282 77.6902 126.924 77.2447C126.566 76.7991 126.066 76.4908 125.506 76.3717H125.685C126.348 76.3778 126.986 76.1224 127.462 75.6608C127.938 75.1992 128.213 74.5686 128.227 73.9058C128.231 73.3339 128.037 72.7784 127.679 72.3329C127.32 71.8874 126.819 71.5794 126.26 71.4607C126.593 71.46 126.922 71.3921 127.229 71.2613C127.535 71.1305 127.812 70.9394 128.043 70.6993C128.274 70.4593 128.454 70.1752 128.573 69.864C128.692 69.5529 128.747 69.2209 128.735 68.8881C128.701 68.2392 128.419 67.6282 127.946 67.1825C127.473 66.7368 126.847 66.4908 126.197 66.4958L118.608 66.4868L116.966 66.485C116.908 66.4849 116.851 66.4686 116.802 66.4381C116.752 66.4076 116.713 66.364 116.687 66.3122C116.661 66.2604 116.65 66.2024 116.655 66.1447C116.66 66.087 116.682 66.0319 116.716 65.9856C118.363 63.7637 118.481 62.4987 118.567 59.4112V59.3506C118.588 58.6343 118.323 57.9391 117.832 57.4175C117.341 56.8958 116.663 56.5903 115.947 56.5679H115.859C115.154 56.5674 114.476 56.8423 113.97 57.3341C113.464 57.8259 113.169 58.4958 113.15 59.2012V59.2618C113.116 60.486 113.12 61.3037 112.967 61.7327C111.918 64.667 109.079 65.1372 108.455 65.278C108.027 65.3716 107.63 65.5732 107.302 65.8637C106.974 66.1543 106.725 66.524 106.581 66.9376C106.396 67.4002 106.296 67.8922 106.286 68.3901V83.967C106.286 85.2316 107.434 86.1121 108.826 86.0957L122.881 86.111H123.647C124.291 86.1172 124.912 85.8772 125.385 85.4401C125.857 85.003 126.145 84.402 126.188 83.76Z" fill="white"/>
<path d="M232.241 98.1964C239.56 98.1964 245.494 92.2632 245.494 84.9441C245.494 77.625 239.56 71.6917 232.241 71.6917C224.922 71.6917 218.989 77.625 218.989 84.9441C218.989 92.2632 224.922 98.1964 232.241 98.1964Z" fill="#367CFF"/>
<path opacity="0.68" d="M232.241 98.1964C239.56 98.1964 245.494 92.2632 245.494 84.9441C245.494 77.625 239.56 71.6917 232.241 71.6917C224.922 71.6917 218.989 77.625 218.989 84.9441C218.989 92.2632 224.922 98.1964 232.241 98.1964Z" fill="white"/>
<path d="M239.378 79.7205C237.493 77.7558 234.373 78.1975 232.408 80.0825L232.284 80.206L232.151 80.0724C230.227 78.1459 227.105 77.639 225.178 79.561C224.253 80.4849 223.733 81.7385 223.732 83.0459C223.731 84.3534 224.25 85.6077 225.174 86.5329L232.28 93.5127C232.285 93.5181 232.293 93.5212 232.301 93.5212C232.308 93.5212 232.316 93.5181 232.321 93.5127L239.378 86.546C240.259 85.6281 240.75 84.4053 240.75 83.1332C240.75 81.8612 240.259 80.6384 239.378 79.7205Z" fill="white"/>
<path d="M202.716 211.085C210.036 211.085 215.969 205.151 215.969 197.832C215.969 190.513 210.036 184.58 202.716 184.58C195.397 184.58 189.464 190.513 189.464 197.832C189.464 205.151 195.397 211.085 202.716 211.085Z" fill="#367CFF"/>
<path opacity="0.68" d="M202.716 211.085C210.036 211.085 215.969 205.151 215.969 197.832C215.969 190.513 210.036 184.58 202.716 184.58C195.397 184.58 189.464 190.513 189.464 197.832C189.464 205.151 195.397 211.085 202.716 211.085Z" fill="white"/>
<path d="M209.853 192.609C207.969 190.644 204.848 191.086 202.883 192.971L202.759 193.094L202.626 192.961C200.702 191.034 197.58 190.525 195.654 192.449C194.728 193.373 194.208 194.627 194.207 195.934C194.206 197.242 194.725 198.496 195.649 199.421L202.757 206.401C202.762 206.406 202.77 206.41 202.777 206.41C202.785 206.41 202.793 206.406 202.798 206.401L209.855 199.435C210.735 198.517 211.227 197.294 211.227 196.021C211.226 194.749 210.734 193.527 209.853 192.609Z" fill="white"/>
<path d="M202.713 130.049C209.335 130.049 214.703 124.682 214.703 118.06C214.703 111.438 209.335 106.07 202.713 106.07C196.092 106.07 190.724 111.438 190.724 118.06C190.724 124.682 196.092 130.049 202.713 130.049Z" fill="#367CFF"/>
<path opacity="0.5" d="M202.713 130.049C209.335 130.049 214.703 124.682 214.703 118.06C214.703 111.438 209.335 106.07 202.713 106.07C196.092 106.07 190.724 111.438 190.724 118.06C190.724 124.682 196.092 130.049 202.713 130.049Z" fill="white"/>
<path d="M208.847 118.039C208.835 119.658 208.183 121.206 207.034 122.346C205.885 123.486 204.332 124.125 202.713 124.125C201.095 124.125 199.542 123.486 198.393 122.346C197.244 121.206 196.592 119.658 196.58 118.039H208.847Z" fill="white"/>
<path d="M198.384 114.293C198.961 114.293 199.428 113.825 199.428 113.248C199.428 112.671 198.961 112.204 198.384 112.204C197.807 112.204 197.339 112.671 197.339 113.248C197.339 113.825 197.807 114.293 198.384 114.293Z" fill="#0C0C0C"/>
<path d="M207.043 114.293C207.619 114.293 208.087 113.825 208.087 113.248C208.087 112.671 207.619 112.204 207.043 112.204C206.466 112.204 205.998 112.671 205.998 113.248C205.998 113.825 206.466 114.293 207.043 114.293Z" fill="#0C0C0C"/>
<path d="M118.439 49.2748C124.281 49.2748 129.016 44.5392 129.016 38.6977C129.016 32.8561 124.281 28.1205 118.439 28.1205C112.597 28.1205 107.862 32.8561 107.862 38.6977C107.862 44.5392 112.597 49.2748 118.439 49.2748Z" fill="#367CFF"/>
<path opacity="0.5" d="M118.439 49.2748C124.281 49.2748 129.016 44.5392 129.016 38.6977C129.016 32.8561 124.281 28.1205 118.439 28.1205C112.597 28.1205 107.862 32.8561 107.862 38.6977C107.862 44.5392 112.597 49.2748 118.439 49.2748Z" fill="white"/>
<path d="M123.85 38.6797C123.85 40.1148 123.28 41.4912 122.265 42.506C121.25 43.5207 119.874 44.0909 118.439 44.0909C117.004 44.0909 115.628 43.5207 114.613 42.506C113.598 41.4912 113.028 40.1148 113.028 38.6797H123.85Z" fill="white"/>
<path d="M114.619 35.3743C115.128 35.3743 115.54 34.9618 115.54 34.453C115.54 33.9442 115.128 33.5317 114.619 33.5317C114.11 33.5317 113.698 33.9442 113.698 34.453C113.698 34.9618 114.11 35.3743 114.619 35.3743Z" fill="#0C0C0C"/>
<path d="M122.258 35.3743C122.767 35.3743 123.18 34.9618 123.18 34.453C123.18 33.9442 122.767 33.5317 122.258 33.5317C121.749 33.5317 121.337 33.9442 121.337 34.453C121.337 34.9618 121.749 35.3743 122.258 35.3743Z" fill="#0C0C0C"/>
<path d="M44.1914 100.219C44.1914 100.219 43.1937 112.265 40.4103 116.596C32.3987 129.066 29.9054 143.199 37.6077 150.727C45.31 158.255 95.1961 159.163 99.2498 142.197C102.663 127.914 95.8595 126.263 94.389 114.411C93.7233 109.048 91.8361 97.7955 91.8361 97.7955" fill="#0A0A0A"/>
<path d="M86.5149 139.475C86.4284 139.464 85.473 155.323 67.0498 153.94C54.2957 152.985 49.7482 139.452 49.4543 139.452C50.8298 139.16 53.1453 138.734 53.7559 138.409C55.7644 137.329 58.2483 136.207 58.8964 132.307C59.2707 130.06 58.6366 118.559 58.8316 116.283L78.409 120.653C78.1353 125.456 76.2208 136.592 82.9314 138.563C84.0474 138.892 85.2502 139.191 86.5149 139.475Z" fill="#E98862"/>
<path opacity="0.5" d="M78.683 134.014C78.3763 133.026 78.1789 132.007 78.0941 130.976C77.8788 128.622 77.9217 126.253 78.2221 123.909C74.2434 123.371 70.495 121.729 67.4028 119.168C67.0393 120.51 65.0401 126.377 65.5938 127.653C66.6391 130.065 71.5557 134.014 78.683 134.014Z" fill="#0C0C0C"/>
<path d="M76.1845 128.924C68.4548 129.546 58.519 126.298 56.6161 115.987L54.8992 106.684C52.9967 96.3729 56.8696 87.0148 66.5777 85.2234C76.2859 83.4316 85.0848 90.4511 86.9877 100.762L87.7477 104.88C88.4781 108.837 89.9756 127.814 76.1845 128.924Z" fill="#E98862"/>
<path d="M84.8424 104.793C85.514 104.793 86.0584 104.248 86.0584 103.577C86.0584 102.905 85.514 102.361 84.8424 102.361C84.1709 102.361 83.6265 102.905 83.6265 103.577C83.6265 104.248 84.1709 104.793 84.8424 104.793Z" fill="#0C0C0C"/>
<path d="M72.5385 107.051C73.21 107.051 73.7544 106.506 73.7544 105.835C73.7544 105.163 73.21 104.619 72.5385 104.619C71.8669 104.619 71.3225 105.163 71.3225 105.835C71.3225 106.506 71.8669 107.051 72.5385 107.051Z" fill="#0C0C0C"/>
<path opacity="0.5" d="M79.3174 114.654L79.3365 114.651C79.7298 114.576 80.1186 114.479 80.5012 114.36C81.0725 114.179 81.8208 113.879 81.7257 113.363C81.6175 112.776 78.8382 106.734 78.5219 106.047C78.509 106.016 78.4899 105.988 78.466 105.965C78.442 105.941 78.4136 105.923 78.3824 105.911C78.3511 105.899 78.3178 105.893 78.2843 105.894C78.2508 105.895 78.2179 105.903 78.1875 105.917C78.1571 105.931 78.1298 105.951 78.1072 105.976C78.0847 106 78.0674 106.029 78.0564 106.061C78.0454 106.093 78.0408 106.126 78.043 106.16C78.0452 106.193 78.0542 106.226 78.0693 106.256C79.2545 108.83 81.1612 113.06 81.2361 113.454C81.1709 113.637 80.2226 113.981 79.2467 114.161C79.1825 114.172 79.1252 114.207 79.0868 114.26C79.0485 114.312 79.0322 114.378 79.0415 114.442C79.0508 114.507 79.0849 114.565 79.1365 114.604C79.1882 114.644 79.2532 114.662 79.3178 114.654H79.3174Z" fill="#0C0C0C"/>
<path opacity="0.5" d="M77.8612 119.095C79.4443 118.897 80.9587 118.329 82.2821 117.438C82.3096 117.421 82.3333 117.398 82.3519 117.371C82.3705 117.344 82.3837 117.314 82.3906 117.282C82.3975 117.25 82.398 117.217 82.3921 117.185C82.3863 117.152 82.3741 117.122 82.3564 117.094C82.3387 117.067 82.3157 117.043 82.2888 117.024C82.262 117.006 82.2317 116.993 82.1997 116.986C82.1677 116.979 82.1347 116.978 82.1025 116.984C82.0704 116.99 82.0397 117.002 82.0122 117.02C79.1482 118.867 76.3094 119.154 73.803 117.853C73.7523 117.825 73.7002 117.8 73.6469 117.778C73.5854 117.758 73.5185 117.762 73.4603 117.79C73.4021 117.819 73.3571 117.868 73.3348 117.929C73.3125 117.99 73.3148 118.057 73.341 118.116C73.3672 118.175 73.4154 118.222 73.4754 118.246C73.4952 118.254 73.5278 118.272 73.5731 118.296C74.8911 118.983 76.3841 119.261 77.8612 119.095Z" fill="#0C0C0C"/>
<path d="M47.1247 109.888L55.8273 108.333C62.4245 105.698 64.4678 94.3079 64.4678 94.3079C64.4678 94.3079 72.4314 102.14 91.8343 97.7944C91.8343 97.7944 88.0708 70.7434 59.3973 78.4735C50.1503 80.9664 43.482 90.2414 44.251 102.682C44.7916 111.4 47.1247 109.888 47.1247 109.888Z" fill="#0A0A0A"/>
<path d="M57.8005 119.017C54.8505 119.562 51.8761 116.846 51.3317 113.896C50.7874 110.947 52.8786 108.88 55.8291 108.333L57.714 110.03L60.3372 118.549L57.8005 119.017Z" fill="#E98862"/>
<path d="M80.3439 100.84C81.1881 100.295 82.1631 99.9874 83.167 99.9482C83.6625 99.9256 84.1586 99.9776 84.6387 100.102C85.1154 100.224 85.5748 100.406 86.0062 100.643C86.0499 100.666 86.0829 100.705 86.0982 100.752C86.1135 100.799 86.1099 100.85 86.0881 100.895C86.0664 100.939 86.0283 100.973 85.9817 100.99C85.9352 101.007 85.884 101.005 85.8389 100.985L85.8254 100.979C85.4182 100.773 84.9866 100.619 84.541 100.521C84.0991 100.421 83.6447 100.388 83.1932 100.424C82.2944 100.49 81.429 100.792 80.6849 101.3L80.6666 101.313C80.6359 101.335 80.6012 101.35 80.5646 101.358C80.5279 101.367 80.49 101.368 80.453 101.361C80.4159 101.355 80.3805 101.341 80.3488 101.321C80.317 101.301 80.2895 101.275 80.2679 101.244C80.2462 101.214 80.2308 101.179 80.2226 101.142C80.2143 101.106 80.2134 101.068 80.2198 101.031C80.2261 100.994 80.2398 100.958 80.2599 100.926C80.2799 100.895 80.3061 100.867 80.3368 100.846L80.3439 100.84Z" fill="#0C0C0C"/>
<path d="M72.586 102.818C71.7098 102.605 70.7927 102.627 69.928 102.884C69.4929 103.009 69.0791 103.2 68.7008 103.449C68.3185 103.698 67.969 103.995 67.6604 104.331L67.6503 104.341C67.6156 104.378 67.5676 104.4 67.517 104.401C67.4664 104.403 67.4174 104.384 67.3806 104.349C67.3438 104.314 67.3223 104.266 67.3209 104.216C67.3194 104.165 67.3382 104.116 67.3729 104.079C67.693 103.706 68.0589 103.374 68.462 103.092C68.8671 102.806 69.313 102.582 69.7846 102.428C70.7383 102.111 71.7596 102.055 72.7421 102.267C72.7788 102.275 72.8135 102.291 72.8442 102.312C72.8749 102.334 72.901 102.361 72.9211 102.393C72.9412 102.425 72.9549 102.46 72.9613 102.497C72.9677 102.534 72.9668 102.572 72.9585 102.609C72.9503 102.645 72.9349 102.68 72.9133 102.711C72.8916 102.742 72.8642 102.768 72.8324 102.788C72.8007 102.808 72.7653 102.822 72.7283 102.828C72.6913 102.834 72.6534 102.833 72.6167 102.825H72.6089L72.586 102.818Z" fill="#0C0C0C"/>
<path opacity="0.52" d="M78.1866 121.436C78.4734 121.404 78.7571 121.349 79.0345 121.269C79.096 121.25 79.1474 121.207 79.178 121.15C79.2085 121.093 79.2158 121.026 79.1982 120.964C79.1806 120.902 79.1396 120.849 79.0838 120.817C79.028 120.784 78.9617 120.774 78.899 120.79C77.2297 121.262 76.2844 120.622 76.2447 120.595C76.1908 120.558 76.1244 120.543 76.06 120.555C75.9955 120.566 75.9382 120.602 75.9003 120.656C75.8625 120.709 75.8472 120.775 75.8578 120.84C75.8683 120.905 75.9039 120.962 75.9568 121.001C76.6275 121.399 77.4154 121.553 78.1866 121.436Z" fill="#0C0C0C"/>
<path d="M55.8351 108.193L55.7729 108.017C61.5547 105.971 63.5262 102.039 64.1622 99.1006C64.5758 97.1345 64.5738 95.1037 64.1566 93.1383L64.3382 93.0916C64.761 95.0829 64.7638 97.1406 64.3464 99.1332C63.7018 102.119 61.7019 106.115 55.8351 108.193Z" fill="#0C0C0C"/>
<path opacity="0.1" d="M71.4972 115.376C72.7696 115.245 73.7233 114.382 73.6271 113.449C73.531 112.515 72.4215 111.865 71.149 111.996C69.8765 112.127 68.9229 112.99 69.019 113.923C69.1152 114.857 70.2247 115.507 71.4972 115.376Z" fill="#0C0C0C"/>
<path opacity="0.1" d="M84.976 111.869C85.0749 112.801 86.1837 113.451 87.4566 113.321C87.6765 113.299 87.8934 113.253 88.1039 113.186C88.181 112.077 88.2016 111.01 88.1851 110.022C87.8339 109.928 87.4682 109.901 87.1069 109.941C85.8341 110.071 84.8809 110.933 84.976 111.869Z" fill="#0C0C0C"/>
<path d="M149.704 88.4501C149.724 88.1752 149.799 87.9072 149.926 87.6625C150.053 87.4177 150.228 87.2013 150.441 87.0265C150.654 86.8517 150.9 86.7222 151.165 86.6457C151.43 86.5693 151.708 86.5476 151.981 86.582C152.508 86.6668 152.983 86.9487 153.31 87.3704C153.637 87.7922 153.792 88.3225 153.743 88.854L153.548 91.5869L158.123 83.2456C158.616 82.3096 159.819 81.4752 160.833 82.097C161.874 82.6024 162.74 83.4071 163.321 84.408C163.332 84.4121 166.428 95.3771 165.972 96.2471L164.752 105.151C163.804 106.952 162.34 108.43 160.548 109.393C158.755 110.357 156.715 110.764 154.69 110.561L148.17 109.908L149.704 88.4501Z" fill="#E98862"/>
<g opacity="0.2">
<path d="M157.361 92.6879C157.405 92.7103 157.455 92.7148 157.502 92.7005C157.549 92.6862 157.588 92.6541 157.611 92.6112L161.952 84.6745C161.976 84.6309 161.981 84.5797 161.967 84.5321C161.953 84.4844 161.921 84.4443 161.877 84.4205C161.834 84.3967 161.783 84.3912 161.735 84.4052C161.687 84.4193 161.647 84.4516 161.623 84.4952L157.281 92.4319C157.269 92.4535 157.262 92.4772 157.259 92.5017C157.256 92.5261 157.258 92.5509 157.265 92.5745C157.272 92.5981 157.284 92.6201 157.299 92.6393C157.315 92.6584 157.334 92.6743 157.356 92.6861L157.361 92.6879Z" fill="#0C0C0C"/>
</g>
<path d="M156.997 180.079C156.104 180.079 155.214 179.994 154.337 179.825L88.0093 167.025L93.3283 139.455L142.957 149.033V102.417H171.035V166.04C171.035 167.884 170.672 169.71 169.966 171.413C169.261 173.116 168.227 174.664 166.923 175.967C165.62 177.271 164.072 178.305 162.369 179.011C160.665 179.716 158.84 180.079 156.996 180.079H156.997Z" fill="#FAEAD3"/>
<path d="M24.897 233.699L21.5632 254.023H104.711L101.603 233.577L24.897 233.699Z" fill="#262626"/>
<path d="M66.6252 149.999C53.8621 149.397 53.3249 138.564 53.3249 138.564C53.3249 138.564 47.001 138.973 42.7968 139.542C35.9144 140.473 31.374 142.807 27.7609 146.42C24.3998 149.781 22.3535 153.418 24.5189 176.636C26.0867 193.447 24.897 233.699 24.897 233.699L101.603 233.577C101.603 233.577 108.76 181.957 109.403 174.389C110.632 159.942 108.014 147.729 105.014 144.73C98.848 138.563 88.232 138.563 82.9309 138.564C82.8459 138.565 84.0065 150.818 66.6252 149.999Z" fill="#FAEAD3"/>
<path d="M110.491 170.966C110.484 170.967 110.477 170.967 110.47 170.966C110.421 170.961 110.376 170.936 110.345 170.897C110.314 170.859 110.299 170.809 110.305 170.76L111.513 159.963C111.516 159.939 111.524 159.915 111.536 159.893C111.548 159.872 111.564 159.853 111.583 159.837C111.602 159.822 111.624 159.81 111.648 159.803C111.672 159.796 111.697 159.794 111.721 159.797C111.746 159.8 111.77 159.807 111.792 159.819C111.813 159.831 111.832 159.847 111.848 159.867C111.863 159.886 111.875 159.908 111.881 159.932C111.888 159.956 111.89 159.981 111.888 160.005L110.679 170.801C110.673 170.847 110.651 170.889 110.617 170.92C110.582 170.95 110.537 170.967 110.491 170.966Z" fill="#0C0C0C"/>
<path d="M74.0168 186.961L83.8898 178.78C84.1019 178.604 84.3477 178.473 84.6122 178.395C84.8766 178.317 85.1541 178.294 85.4277 178.327C85.7013 178.36 85.9653 178.449 86.2036 178.587C86.4419 178.726 86.6494 178.912 86.8136 179.133C87.117 179.572 87.2421 180.111 87.1636 180.639C87.085 181.167 86.8087 181.646 86.3906 181.978L84.281 183.726L74.3519 188.869L74.0168 186.961Z" fill="#E98862"/>
<path d="M95.7015 198.937L82.1721 196.174L87.7959 183.229L101.325 185.993L95.7015 198.937Z" fill="#FAEAD3"/>
<path d="M84.2808 183.723L93.4705 181.262C94.4873 180.971 95.9219 181.262 96.1735 182.426C96.2996 182.867 96.2726 183.337 96.0968 183.761C95.9211 184.185 95.6069 184.536 95.2057 184.758C95.2108 184.767 95.2149 184.776 95.2181 184.786C95.2186 184.794 95.2186 184.802 95.2181 184.81L96.7863 184.36C97.0753 184.277 97.379 184.26 97.6755 184.309C97.9721 184.358 98.2541 184.472 98.5012 184.643C98.7484 184.814 98.9544 185.038 99.1046 185.298C99.2547 185.558 99.3452 185.849 99.3695 186.148C99.3987 186.627 99.2616 187.1 98.9815 187.489C98.7013 187.878 98.2954 188.158 97.8323 188.282L97.1648 188.473C97.1616 188.495 97.1543 188.516 97.1435 188.536C97.6198 188.511 98.0894 188.656 98.4698 188.943C98.8503 189.231 99.1173 189.643 99.2239 190.108C99.3246 190.632 99.2229 191.174 98.9392 191.626C98.6554 192.078 98.2109 192.405 97.6953 192.541L96.0548 193.012C96.083 193.021 96.1084 193.038 96.129 193.059C96.1495 193.081 96.1647 193.107 96.1731 193.136C96.1814 193.17 96.1795 193.206 96.1675 193.24C96.5901 193.334 96.9714 193.561 97.2558 193.888C97.5402 194.214 97.7127 194.623 97.7481 195.055C97.7772 195.533 97.64 196.007 97.3599 196.396C97.0798 196.784 96.6739 197.065 96.2109 197.188L82.2255 201.196C80.2693 201.757 78.1901 201.721 76.2547 201.092C74.3192 200.463 72.6155 199.271 71.362 197.668L67.3259 192.505L84.2808 183.723Z" fill="#E98862"/>
<g opacity="0.2">
<path d="M86.1216 187.24C86.1354 187.286 86.1669 187.326 86.2095 187.35C86.2521 187.374 86.3024 187.38 86.3496 187.368L95.0878 185.014C95.1115 185.008 95.1338 184.997 95.1533 184.982C95.1727 184.967 95.1891 184.948 95.2013 184.927C95.2136 184.905 95.2215 184.882 95.2247 184.857C95.2278 184.833 95.2262 184.808 95.2197 184.785C95.2133 184.761 95.2023 184.739 95.1873 184.719C95.1723 184.7 95.1536 184.683 95.1322 184.671C95.1109 184.659 95.0874 184.651 95.063 184.648C95.0386 184.645 95.0138 184.646 94.9901 184.653L86.2526 187.006C86.2289 187.012 86.2066 187.023 86.1871 187.038C86.1676 187.053 86.1513 187.072 86.139 187.093C86.1267 187.115 86.1188 187.138 86.1156 187.162C86.1124 187.187 86.1141 187.212 86.1205 187.235L86.1216 187.24Z" fill="#0C0C0C"/>
</g>
<g opacity="0.2">
<path d="M87.0523 191.121C87.0661 191.168 87.0978 191.208 87.1404 191.232C87.1831 191.256 87.2334 191.262 87.2806 191.249L97.0304 188.624C97.0541 188.618 97.0764 188.607 97.0959 188.592C97.1154 188.577 97.1317 188.558 97.144 188.537C97.1563 188.516 97.1642 188.492 97.1674 188.468C97.1706 188.443 97.1689 188.419 97.1625 188.395C97.1481 188.348 97.1165 188.308 97.0738 188.284C97.0312 188.259 96.9809 188.252 96.933 188.263L87.1833 190.887C87.1595 190.894 87.1373 190.905 87.1178 190.92C87.0983 190.935 87.0819 190.953 87.0697 190.975C87.0574 190.996 87.0494 191.02 87.0462 191.044C87.0431 191.068 87.0447 191.093 87.0511 191.117L87.0523 191.121Z" fill="#0C0C0C"/>
</g>
<g opacity="0.2">
<path d="M88.0364 195.331C88.0502 195.378 88.0818 195.418 88.1245 195.442C88.1671 195.466 88.2175 195.472 88.2647 195.459L96.0419 193.365C96.0664 193.36 96.0895 193.349 96.1098 193.334C96.1301 193.319 96.1472 193.301 96.1601 193.279C96.173 193.258 96.1814 193.234 96.1849 193.209C96.1883 193.184 96.1867 193.159 96.1802 193.134C96.1737 193.11 96.1623 193.087 96.1468 193.068C96.1313 193.048 96.112 193.031 96.09 193.019C96.0681 193.007 96.0438 192.999 96.0189 192.997C95.9939 192.994 95.9686 192.997 95.9446 193.004L88.1674 195.098C88.1437 195.104 88.1214 195.115 88.1019 195.13C88.0824 195.145 88.0661 195.164 88.0538 195.185C88.0415 195.206 88.0336 195.23 88.0304 195.254C88.0272 195.279 88.0289 195.303 88.0353 195.327L88.0364 195.331Z" fill="#0C0C0C"/>
</g>
<path d="M81.1583 204.827L17.6406 223.163C15.0821 223.842 12.3838 223.784 9.8569 222.995C7.33003 222.207 5.07757 220.72 3.35939 218.706C1.64121 216.693 0.527325 214.234 0.146249 211.615C-0.234827 208.995 0.132432 206.321 1.20565 203.902L22.8608 152.313C25.1778 144.859 37.7492 137.953 44.8364 141.097C51.9236 144.242 51.6716 156.612 48.5277 163.699L35.5033 190.827L75.1073 181.671L81.1583 204.827Z" fill="#FAEAD3"/>
<path d="M25.1758 221.174C25.1306 221.174 25.0868 221.158 25.0526 221.128C25.0185 221.099 24.9962 221.058 24.9899 221.013C24.9836 220.968 24.9937 220.923 25.0184 220.885C25.043 220.847 25.0806 220.819 25.1241 220.807L80.9305 204.698L74.972 181.894L35.5451 191.009C35.5109 191.017 35.4752 191.015 35.4421 191.003C35.409 190.992 35.3799 190.971 35.3579 190.944C35.3359 190.916 35.322 190.883 35.318 190.848C35.3139 190.813 35.3199 190.777 35.3351 190.746L48.3561 163.617C48.3791 163.575 48.4173 163.543 48.4631 163.528C48.5088 163.513 48.5584 163.517 48.6016 163.538C48.6449 163.558 48.6785 163.595 48.6955 163.64C48.7126 163.685 48.7117 163.735 48.693 163.779L35.8409 190.555L75.0652 181.487C75.1129 181.476 75.1632 181.483 75.2052 181.509C75.2472 181.534 75.2776 181.575 75.2899 181.622L81.339 204.781C81.3513 204.828 81.3447 204.879 81.3206 204.921C81.2965 204.963 81.2567 204.995 81.2098 205.008L25.2278 221.167C25.2109 221.171 25.1934 221.174 25.1758 221.174Z" fill="#0C0C0C"/>
<path d="M28.9645 192.436C28.9183 192.436 28.8736 192.419 28.8392 192.388C28.8048 192.357 28.783 192.314 28.7781 192.268C28.7733 192.222 28.7856 192.176 28.8128 192.139C28.8399 192.101 28.88 192.075 28.9252 192.066L35.4636 190.643C35.4877 190.638 35.5125 190.637 35.5367 190.642C35.5609 190.646 35.5841 190.655 35.6048 190.668C35.6255 190.682 35.6433 190.699 35.6574 190.719C35.6714 190.739 35.6813 190.762 35.6866 190.786C35.6918 190.81 35.6923 190.835 35.6879 190.859C35.6835 190.883 35.6744 190.907 35.6611 190.927C35.6478 190.948 35.6306 190.966 35.6104 190.98C35.5902 190.994 35.5674 191.004 35.5434 191.009L29.005 192.432C28.9917 192.435 28.9781 192.436 28.9645 192.436Z" fill="#0C0C0C"/>
<path d="M157.988 66.7457L154.592 67.177C153.295 67.3418 152.377 68.5268 152.541 69.8239L156.175 98.427C156.339 99.724 157.524 100.642 158.821 100.477L162.218 100.046C163.515 99.8811 164.433 98.696 164.268 97.399L160.635 68.7959C160.47 67.4988 159.285 66.5809 157.988 66.7457Z" fill="#292A2E"/>
<path d="M149.213 54.4168L148.175 54.5487C141.747 55.3652 137.197 61.2386 138.014 67.6672L138.014 67.6676C138.83 74.0962 144.704 78.6457 151.132 77.8292L152.17 77.6973C158.599 76.8808 163.148 71.0074 162.332 64.5788L162.332 64.5784C161.515 58.1498 155.642 53.6003 149.213 54.4168Z" fill="#0CBC8B"/>
<path d="M188.047 68.5848L185.803 69.5492L183.917 54.6635L186.261 54.8435C186.365 56.9553 186.561 59.1806 186.851 61.4748C187.167 63.9688 187.572 66.3588 188.047 68.5848Z" fill="#FAEAD3"/>
<path d="M194.903 60.4554C195.274 63.3781 194.963 65.8242 194.212 65.9212C194.124 65.9238 194.036 65.9059 193.956 65.8689C193.876 65.832 193.806 65.7769 193.751 65.7082C193.12 65.0792 192.478 63.143 192.182 60.8039C191.906 58.6326 192.007 56.7233 192.386 55.8461C192.516 55.5444 192.68 55.3654 192.873 55.3411C193.622 55.2423 194.533 57.5338 194.903 60.4554Z" fill="#FAEAD3"/>
<path d="M186.856 61.5231L186.85 61.4744C185.648 51.9841 187.337 41.8218 188.995 37.9972C182.893 43.6876 174.122 49.3844 166.019 51.5064C162.749 52.3626 158.761 53.1008 152.718 53.8593L155.708 77.4589C161.749 76.6862 165.795 76.4069 169.175 76.4204C177.552 76.4541 187.468 79.7826 194.795 83.7719C192.237 80.4816 188.065 71.062 186.863 61.5717L186.856 61.5231Z" fill="#0CBC8B"/>
<path d="M160.682 51.6003L148.174 53.185C147.703 53.2447 147.369 53.6752 147.429 54.1466L150.503 78.4066C150.562 78.8779 150.993 79.2116 151.464 79.1519L163.972 77.5672C164.443 77.5075 164.777 77.0769 164.717 76.6056L161.643 52.3456C161.584 51.8742 161.153 51.5405 160.682 51.6003Z" fill="#292A2E"/>
<path opacity="0.1" d="M160.682 51.6003L148.174 53.185C147.703 53.2447 147.369 53.6752 147.429 54.1466L150.503 78.4066C150.562 78.8779 150.993 79.2116 151.464 79.1519L163.972 77.5672C164.443 77.5075 164.777 77.0769 164.717 76.6056L161.643 52.3456C161.584 51.8742 161.153 51.5405 160.682 51.6003Z" fill="white"/>
<path d="M198.746 59.9672C200.363 72.7332 199.008 83.4151 195.726 83.8311C195.072 83.9142 194.392 83.5847 193.712 82.9004C193.708 82.9004 193.708 82.897 193.704 82.8978C190.95 80.1495 188.145 71.6932 186.85 61.4744C185.648 51.9841 186.087 43.6457 187.744 39.8211C188.313 38.5026 189.026 37.7209 189.87 37.6142C193.152 37.1983 197.129 47.2056 198.746 59.9672Z" fill="#0CBC8B"/>
<path opacity="0.3" d="M198.746 59.9672C200.363 72.7332 199.008 83.4151 195.726 83.8311C195.072 83.9142 194.392 83.5847 193.712 82.9004C193.708 82.9004 193.708 82.897 193.704 82.8978C190.95 80.1495 188.145 71.6932 186.85 61.4744C185.648 51.9841 186.087 43.6457 187.744 39.8211C188.313 38.5026 189.026 37.7209 189.87 37.6142C193.152 37.1983 197.129 47.2056 198.746 59.9672Z" fill="#0C0C0C"/>
<path opacity="0.6" d="M192.874 55.3516L194.215 65.9336L188.047 68.5849C187.572 66.3589 187.167 63.9689 186.851 61.4748C186.56 59.1807 186.364 56.9554 186.261 54.8436L192.874 55.3516Z" fill="white"/>
<path d="M194.903 60.4554C195.274 63.3781 194.963 65.8242 194.212 65.9212C194.124 65.9238 194.036 65.9059 193.956 65.8689C193.876 65.832 193.806 65.7769 193.751 65.7082C193.12 65.0792 192.478 63.143 192.182 60.8039C191.906 58.6326 192.007 56.7233 192.386 55.8461C192.516 55.5444 192.68 55.3654 192.873 55.3411C193.622 55.2423 194.533 57.5338 194.903 60.4554Z" fill="white"/>
<path d="M157.182 93.7347C157.181 93.3725 157.299 93.02 157.517 92.7309C157.735 92.4419 158.042 92.2321 158.391 92.1336C158.378 92.107 158.33 92.0512 158.377 92.0325L157.012 91.7906C156.608 91.7281 156.241 91.5216 155.977 91.2092C155.714 90.8969 155.573 90.4998 155.58 90.0914C155.599 89.6883 155.768 89.3069 156.053 89.0211C156.338 88.7354 156.719 88.5657 157.122 88.5448C157.113 88.5317 157.116 88.5134 157.111 88.4977L156.55 88.3981C156.17 88.3376 155.822 88.1477 155.566 87.8604C155.31 87.5731 155.161 87.2061 155.144 86.8216C155.139 86.5802 155.187 86.3407 155.285 86.1202C155.383 85.8997 155.529 85.7038 155.713 85.5465C155.896 85.3893 156.112 85.2747 156.344 85.211C156.577 85.1473 156.821 85.136 157.059 85.1781L158.353 85.4072C158.353 85.4001 158.348 85.3949 158.349 85.3878C158.35 85.3806 158.36 85.3735 158.362 85.3653C158.022 85.2223 157.74 84.9679 157.563 84.6437C157.386 84.3194 157.325 83.9447 157.389 83.581C157.493 82.6316 158.615 82.2782 159.452 82.4265L162.052 83.0985C162.453 83.2022 162.822 83.4035 163.127 83.6843C163.432 83.9652 163.662 84.3169 163.798 84.7083C164.974 88.0963 167.837 97.018 165.166 96.5448L158.59 95.3797C158.206 95.3007 157.859 95.0962 157.604 94.7984C157.349 94.5005 157.2 94.1263 157.182 93.7347Z" fill="#E98862"/>
<path d="M220.291 43.1863C227.628 43.1863 233.575 37.2391 233.575 29.9029C233.575 22.5666 227.628 16.6194 220.291 16.6194C212.955 16.6194 207.008 22.5666 207.008 29.9029C207.008 37.2391 212.955 43.1863 220.291 43.1863Z" fill="#367CFF"/>
<path opacity="0.5" d="M220.291 43.1863C227.628 43.1863 233.575 37.2391 233.575 29.9029C233.575 22.5666 227.628 16.6194 220.291 16.6194C212.955 16.6194 207.008 22.5666 207.008 29.9029C207.008 37.2391 212.955 43.1863 220.291 43.1863Z" fill="white"/>
<path d="M227.088 29.8801C227.094 30.7767 226.923 31.6659 226.585 32.4962C226.246 33.3266 225.747 34.0817 225.115 34.7181C224.483 35.3545 223.732 35.8596 222.904 36.2043C222.076 36.549 221.189 36.7265 220.292 36.7265C219.395 36.7265 218.507 36.549 217.679 36.2043C216.852 35.8596 216.1 35.3545 215.469 34.7181C214.837 34.0817 214.337 33.3266 213.999 32.4962C213.66 31.6659 213.489 30.7767 213.496 29.8801H227.088Z" fill="white"/>
<path d="M215.495 25.729C216.134 25.729 216.652 25.2109 216.652 24.5719C216.652 23.9328 216.134 23.4147 215.495 23.4147C214.856 23.4147 214.338 23.9328 214.338 24.5719C214.338 25.2109 214.856 25.729 215.495 25.729Z" fill="#0C0C0C"/>
<path d="M225.088 25.729C225.727 25.729 226.246 25.2109 226.246 24.5719C226.246 23.9328 225.727 23.4147 225.088 23.4147C224.449 23.4147 223.931 23.9328 223.931 24.5719C223.931 25.2109 224.449 25.729 225.088 25.729Z" fill="#0C0C0C"/>
<path d="M304.353 205.262C304.254 205.262 304.159 205.223 304.089 205.153C303.561 204.625 302.701 194.947 300.385 166.131C299.438 154.342 298.543 143.208 297.89 136.443C297.843 135.96 297.655 135.903 297.594 135.885C296.698 135.614 293.981 137.759 292.462 139.637C292.432 139.677 292.394 139.711 292.35 139.736C292.307 139.761 292.259 139.777 292.209 139.783C292.159 139.789 292.108 139.785 292.06 139.772C292.012 139.758 291.967 139.734 291.928 139.703C291.888 139.671 291.856 139.632 291.832 139.588C291.809 139.543 291.794 139.495 291.79 139.444C291.786 139.394 291.791 139.344 291.807 139.296C291.822 139.248 291.847 139.204 291.88 139.166C292.884 137.924 296.155 134.67 297.809 135.167C298.143 135.268 298.558 135.558 298.633 136.371C299.287 143.144 300.182 154.281 301.13 166.072C302.537 183.583 304.132 203.422 304.655 204.67C304.696 204.726 304.72 204.792 304.725 204.86C304.73 204.929 304.716 204.998 304.685 205.059C304.653 205.121 304.606 205.172 304.547 205.208C304.488 205.244 304.42 205.263 304.351 205.263L304.353 205.262Z" fill="#494949"/>
<path d="M296.928 148.86C303.14 143.88 305.199 136.129 301.526 131.548C297.854 126.967 289.841 127.289 283.629 132.269C277.417 137.249 275.358 144.999 279.03 149.581C282.702 154.162 290.715 153.839 296.928 148.86Z" fill="#0CBC8B"/>
<path opacity="0.2" d="M296.928 148.86C303.14 143.88 305.199 136.129 301.526 131.548C297.854 126.967 289.841 127.289 283.629 132.269C277.417 137.249 275.358 144.999 279.03 149.581C282.702 154.162 290.715 153.839 296.928 148.86Z" fill="white"/>
<path d="M280.772 150.746C280.736 150.746 280.701 150.736 280.671 150.717C280.641 150.698 280.617 150.671 280.602 150.639C280.587 150.606 280.581 150.57 280.586 150.535C280.591 150.5 280.605 150.467 280.628 150.439L298.334 129.09C298.349 129.07 298.369 129.053 298.391 129.04C298.412 129.028 298.437 129.02 298.462 129.017C298.487 129.014 298.512 129.017 298.536 129.024C298.56 129.031 298.583 129.043 298.602 129.059C298.622 129.075 298.638 129.095 298.649 129.118C298.661 129.14 298.668 129.164 298.669 129.19C298.671 129.215 298.668 129.24 298.66 129.264C298.652 129.288 298.639 129.31 298.622 129.328L280.918 150.678C280.9 150.7 280.878 150.717 280.852 150.729C280.827 150.74 280.8 150.746 280.772 150.746Z" fill="white"/>
<path d="M308.215 200.685C308.155 200.685 308.096 200.671 308.043 200.644C307.99 200.616 307.944 200.577 307.909 200.528C307.875 200.479 307.852 200.423 307.844 200.364C307.836 200.305 307.842 200.244 307.861 200.188L314.511 181.062C314.707 180.501 315.041 179.997 315.482 179.598C315.923 179.198 316.458 178.916 317.036 178.776C317.614 178.637 318.218 178.645 318.793 178.799C319.368 178.954 319.894 179.25 320.325 179.661L323.841 183.019C323.91 183.088 323.95 183.182 323.951 183.28C323.952 183.378 323.915 183.472 323.847 183.543C323.78 183.614 323.687 183.655 323.589 183.658C323.491 183.662 323.396 183.627 323.324 183.561L319.808 180.202C319.468 179.878 319.052 179.644 318.599 179.522C318.145 179.4 317.668 179.394 317.211 179.504C316.755 179.614 316.333 179.837 315.985 180.152C315.637 180.467 315.373 180.865 315.218 181.308L308.568 200.434C308.543 200.507 308.495 200.571 308.432 200.616C308.368 200.661 308.292 200.685 308.215 200.685Z" fill="#494949"/>
<path d="M333.664 193.607C338.268 189.963 337.994 181.948 333.053 175.705C328.112 169.462 320.374 167.356 315.77 171C311.166 174.644 311.44 182.659 316.381 188.902C321.322 195.144 329.06 197.251 333.664 193.607Z" fill="#0CBC8B"/>
<path d="M301.332 204.043C301.248 204.043 301.166 204.014 301.1 203.962C301.034 203.91 300.988 203.837 300.968 203.755L289.808 157.092C289.731 156.774 289.569 156.483 289.338 156.252C289.107 156.02 288.817 155.857 288.499 155.779C288.181 155.702 287.848 155.714 287.537 155.813C287.225 155.913 286.947 156.096 286.733 156.343L283.293 160.319C283.227 160.391 283.136 160.434 283.039 160.44C282.942 160.446 282.846 160.413 282.772 160.349C282.698 160.286 282.652 160.196 282.644 160.098C282.636 160.001 282.665 159.905 282.727 159.829L286.167 155.851C286.471 155.499 286.866 155.238 287.309 155.097C287.752 154.956 288.225 154.939 288.677 155.049C289.128 155.16 289.541 155.392 289.869 155.722C290.197 156.051 290.427 156.465 290.535 156.917L301.696 203.583C301.719 203.679 301.702 203.781 301.65 203.865C301.598 203.949 301.515 204.009 301.419 204.032C301.391 204.039 301.361 204.043 301.332 204.043Z" fill="#494949"/>
<path d="M297.216 170.685C298.573 162.84 294.982 155.669 289.197 154.668C283.411 153.668 277.621 159.216 276.264 167.062C274.908 174.907 278.498 182.078 284.284 183.078C290.069 184.079 295.859 178.53 297.216 170.685Z" fill="#0CBC8B"/>
<path d="M304.354 205.262C304.338 205.262 304.323 205.261 304.307 205.259C304.209 205.247 304.119 205.197 304.058 205.118C303.997 205.04 303.97 204.941 303.982 204.842L311.109 146.98C311.186 146.35 311.444 145.756 311.852 145.268C312.259 144.781 312.799 144.422 313.405 144.234C314.012 144.046 314.66 144.038 315.271 144.209C315.883 144.381 316.432 144.725 316.852 145.201L324.997 154.428C325.03 154.465 325.055 154.508 325.071 154.554C325.086 154.601 325.093 154.65 325.09 154.699C325.087 154.748 325.074 154.796 325.053 154.84C325.031 154.885 325.001 154.924 324.964 154.957C324.927 154.989 324.884 155.014 324.838 155.03C324.791 155.046 324.742 155.052 324.693 155.049C324.644 155.046 324.596 155.034 324.552 155.012C324.508 154.99 324.468 154.96 324.436 154.923L316.29 145.698C315.966 145.33 315.541 145.064 315.069 144.931C314.596 144.799 314.095 144.805 313.627 144.951C313.158 145.096 312.741 145.373 312.426 145.75C312.111 146.126 311.911 146.586 311.851 147.073L304.725 204.934C304.713 205.024 304.67 205.108 304.601 205.168C304.533 205.229 304.445 205.262 304.354 205.262Z" fill="#494949"/>
<path d="M333.352 159.554C336.194 154.416 332.85 147.127 325.883 143.273C318.916 139.42 310.964 140.461 308.122 145.598C305.28 150.736 308.624 158.026 315.591 161.879C322.558 165.733 330.51 164.692 333.352 159.554Z" fill="#0CBC8B"/>
<path opacity="0.2" d="M333.664 193.607C338.268 189.963 337.994 181.948 333.053 175.705C328.112 169.462 320.374 167.356 315.77 171C311.166 174.644 311.44 182.659 316.381 188.902C321.322 195.144 329.06 197.251 333.664 193.607Z" fill="white"/>
<path opacity="0.5" d="M297.216 170.685C298.573 162.84 294.982 155.669 289.197 154.668C283.411 153.668 277.621 159.216 276.264 167.062C274.908 174.907 278.498 182.078 284.284 183.078C290.069 184.079 295.859 178.53 297.216 170.685Z" fill="white"/>
<path opacity="0.5" d="M333.352 159.554C336.194 154.416 332.85 147.127 325.883 143.273C318.916 139.42 310.964 140.461 308.122 145.598C305.28 150.736 308.624 158.026 315.591 161.879C322.558 165.733 330.51 164.692 333.352 159.554Z" fill="white"/>
<path d="M313.468 254.358H295.238L292.217 196.029H316.49L313.468 254.358Z" fill="#292A2E"/>
<path opacity="0.3" d="M313.468 254.358H295.238L292.217 196.029H316.49L313.468 254.358Z" fill="white"/>
<path d="M333.664 193.792C333.636 193.792 333.608 193.786 333.582 193.774C333.557 193.761 333.535 193.743 333.517 193.721L315.622 171.114C315.607 171.095 315.596 171.073 315.589 171.049C315.582 171.026 315.58 171.001 315.583 170.976C315.586 170.952 315.593 170.928 315.605 170.907C315.617 170.885 315.634 170.867 315.653 170.851C315.672 170.836 315.694 170.825 315.718 170.818C315.741 170.811 315.766 170.809 315.791 170.812C315.815 170.815 315.839 170.822 315.86 170.834C315.882 170.846 315.9 170.862 315.916 170.882L333.811 193.489C333.841 193.528 333.855 193.577 333.85 193.626C333.844 193.675 333.819 193.72 333.78 193.751C333.747 193.778 333.706 193.792 333.664 193.792Z" fill="white"/>
<path d="M332.161 161.365C332.121 161.365 332.082 161.352 332.049 161.328L309.153 144.609C309.133 144.595 309.115 144.576 309.102 144.555C309.089 144.534 309.08 144.511 309.075 144.486C309.071 144.461 309.072 144.436 309.078 144.412C309.084 144.387 309.094 144.365 309.109 144.344C309.124 144.324 309.142 144.307 309.164 144.294C309.185 144.282 309.209 144.273 309.234 144.27C309.258 144.266 309.283 144.268 309.308 144.274C309.332 144.28 309.354 144.291 309.374 144.307L332.273 161.027C332.304 161.05 332.327 161.083 332.339 161.12C332.351 161.158 332.351 161.198 332.339 161.235C332.326 161.272 332.303 161.304 332.271 161.328C332.24 161.351 332.202 161.363 332.163 161.364L332.161 161.365Z" fill="white"/>
<path d="M283.353 182.835C283.337 182.835 283.32 182.833 283.305 182.828C283.257 182.815 283.216 182.784 283.191 182.741C283.166 182.698 283.159 182.647 283.172 182.599L290.461 155.289C290.474 155.241 290.506 155.2 290.549 155.175C290.592 155.15 290.643 155.144 290.691 155.156C290.739 155.169 290.78 155.201 290.805 155.244C290.83 155.287 290.836 155.338 290.824 155.386L283.534 182.697C283.523 182.737 283.5 182.772 283.467 182.797C283.434 182.821 283.394 182.835 283.353 182.835Z" fill="white"/>
</svg>
