<svg width="291" height="280" viewBox="0 0 291 280" fill="none" xmlns="http://www.w3.org/2000/svg">
<path d="M247.633 4.17395H197.781V69.1258H247.633V4.17395Z" fill="#F4F4F4"/>
<path d="M247.633 69.1262H249.251V4.17427H247.633V69.1262Z" fill="#F4F4F4"/>
<path opacity="0.05" d="M247.633 69.1262H249.251V4.17427H247.633V69.1262Z" fill="#292A2E"/>
<path opacity="0.05" d="M238.552 16.0059H206.862V57.2943H238.552V16.0059Z" fill="#292A2E"/>
<path opacity="0.03" d="M238.552 16.0059H236.901V57.2943H238.552V16.0059Z" fill="#292A2E"/>
<path d="M288.405 85.0989H247.633V126.284H288.405V85.0989Z" fill="#F4F4F4"/>
<path opacity="0.05" d="M280.978 92.6014H255.061V118.782H280.978V92.6014Z" fill="#292A2E"/>
<path d="M288.405 126.284H290.022V85.0989H288.405V126.284Z" fill="#F4F4F4"/>
<path opacity="0.05" d="M288.405 126.284H290.022V85.0989H288.405V126.284Z" fill="#292A2E"/>
<path opacity="0.03" d="M280.978 92.6014H279.326V118.782H280.978V92.6014Z" fill="#292A2E"/>
<path d="M141.227 0H5.41064V135.948H141.227V0Z" fill="#F4F4F4"/>
<path d="M142.784 0H141.227V135.948H142.784V0Z" fill="#F4F4F4"/>
<path opacity="0.05" d="M142.784 0H141.227V135.948H142.784V0Z" fill="#292A2E"/>
<path opacity="0.05" d="M108.325 93.6793V58.1109H79.2171V78.7753H34.1293V115.365H14.9663V135.948H34.1293H37.8211H134.694V93.6793H108.325Z" fill="#292A2E"/>
<path opacity="0.34" d="M104.15 61.9728H82.9536V65.8347H104.15V61.9728Z" fill="#FFFFFA"/>
<path opacity="0.34" d="M104.15 69.9756H82.9536V73.8375H104.15V69.9756Z" fill="#FFFFFA"/>
<path opacity="0.34" d="M104.15 77.9783H82.9536V81.8402H104.15V77.9783Z" fill="#FFFFFA"/>
<path opacity="0.34" d="M130.935 97.4282H127.028V101.29H130.935V97.4282Z" fill="#FFFFFA"/>
<path opacity="0.34" d="M130.935 105.431H127.028V109.293H130.935V105.431Z" fill="#FFFFFA"/>
<path opacity="0.34" d="M130.935 113.434H127.028V117.296H130.935V113.434Z" fill="#FFFFFA"/>
<path opacity="0.34" d="M123.708 97.4282H119.801V101.29H123.708V97.4282Z" fill="#FFFFFA"/>
<path opacity="0.34" d="M123.708 105.431H119.801V109.293H123.708V105.431Z" fill="#FFFFFA"/>
<path opacity="0.34" d="M123.708 113.434H119.801V117.296H123.708V113.434Z" fill="#FFFFFA"/>
<path opacity="0.34" d="M116.675 97.4282H112.769V101.29H116.675V97.4282Z" fill="#FFFFFA"/>
<path opacity="0.34" d="M116.675 105.431H112.769V109.293H116.675V105.431Z" fill="#FFFFFA"/>
<path opacity="0.34" d="M116.675 113.434H112.769V117.296H116.675V113.434Z" fill="#FFFFFA"/>
<path d="M141.227 67.2114H113.899V0H111.639V67.2114H37.8213V0H35.561V67.2114H5.41064V69.4738H35.561V135.948H37.8213V69.4738H111.639V135.948H113.899V69.4738H141.227V67.2114Z" fill="white"/>
<path d="M146.638 135.784H0V140.305H146.638V135.784Z" fill="#F4F4F4"/>
<path opacity="0.1" d="M146.638 135.784H0V140.305H146.638V135.784Z" fill="#292A2E"/>
<path opacity="0.1" d="M148.755 135.784H146.638V140.305H148.755V135.784Z" fill="#292A2E"/>
<path opacity="0.1" d="M148.755 135.784H146.638V140.305H148.755V135.784Z" fill="#292A2E"/>
<path opacity="0.05" d="M218.331 274.025H210.786V279.068H218.331V274.025Z" fill="#292A2E"/>
<path opacity="0.05" d="M265.692 274.025H258.148V279.068H265.692V274.025Z" fill="#292A2E"/>
<path d="M272.608 197.185H203.871V274.025H272.608V197.185Z" fill="#F4F4F4"/>
<path opacity="0.03" d="M272.608 197.185H203.871V274.025H272.608V197.185Z" fill="#292A2E"/>
<path d="M254.353 197.185H185.615V274.025H254.353V197.185Z" fill="#F4F4F4"/>
<path opacity="0.05" d="M200.076 274.025H192.531V279.068H200.076V274.025Z" fill="#292A2E"/>
<path opacity="0.05" d="M247.437 274.025H239.892V279.068H247.437V274.025Z" fill="#292A2E"/>
<path opacity="0.7" d="M250.654 201.936H189.313V221.425H250.654V201.936Z" fill="white"/>
<path opacity="0.7" d="M250.654 226.195H189.313V245.683H250.654V226.195Z" fill="white"/>
<path opacity="0.7" d="M250.654 250.453H189.313V269.942H250.654V250.453Z" fill="white"/>
<path opacity="0.05" d="M219.984 214.407C221.489 214.407 222.708 213.186 222.708 211.68C222.708 210.174 221.489 208.953 219.984 208.953C218.479 208.953 217.26 210.174 217.26 211.68C217.26 213.186 218.479 214.407 219.984 214.407Z" fill="#292A2E"/>
<path opacity="0.05" d="M219.984 238.666C221.489 238.666 222.708 237.445 222.708 235.939C222.708 234.433 221.489 233.212 219.984 233.212C218.479 233.212 217.26 234.433 217.26 235.939C217.26 237.445 218.479 238.666 219.984 238.666Z" fill="#292A2E"/>
<path opacity="0.05" d="M219.984 262.925C221.489 262.925 222.708 261.704 222.708 260.198C222.708 258.692 221.489 257.471 219.984 257.471C218.479 257.471 217.26 258.692 217.26 260.198C217.26 261.704 218.479 262.925 219.984 262.925Z" fill="#292A2E"/>
<path d="M32.3058 241.74C32.2678 241.74 32.2301 241.733 32.1949 241.718C32.1597 241.704 32.1278 241.682 32.101 241.655C31.6927 241.247 31.0272 233.75 29.2349 211.429C28.5016 202.296 27.8088 193.669 27.3032 188.426C27.2673 188.052 27.1221 188.008 27.0746 187.994C26.3824 187.785 24.2781 189.446 23.1032 190.9C23.0548 190.96 22.9847 190.998 22.9083 191.007C22.8318 191.015 22.7553 190.992 22.6955 190.944C22.6357 190.895 22.5976 190.825 22.5895 190.749C22.5814 190.672 22.604 190.595 22.6523 190.536C23.4294 189.574 25.9617 187.053 27.2412 187.438C27.4991 187.516 27.8207 187.74 27.8786 188.37C28.3848 193.618 29.0776 202.247 29.8112 211.382C30.9003 224.947 32.134 240.313 32.5396 241.281C32.5707 241.325 32.5892 241.376 32.5932 241.429C32.5971 241.482 32.5864 241.535 32.562 241.583C32.5377 241.63 32.5008 241.67 32.4554 241.698C32.4099 241.726 32.3577 241.74 32.3044 241.74H32.3058Z" fill="#494949"/>
<path d="M26.5587 198.047C31.3666 194.189 32.9601 188.185 30.118 184.636C27.2758 181.087 21.0743 181.337 16.2664 185.194C11.4586 189.052 9.86505 195.056 12.7072 198.605C15.5493 202.155 21.7509 201.905 26.5587 198.047Z" fill="#0CBC8B"/>
<path opacity="0.2" d="M26.5587 198.047C31.3666 194.189 32.9601 188.185 30.118 184.636C27.2758 181.087 21.0743 181.337 16.2664 185.194C11.4586 189.052 9.86505 195.056 12.7072 198.605C15.5493 202.155 21.7509 201.905 26.5587 198.047Z" fill="white"/>
<path d="M14.0545 199.508C14.027 199.508 14.0001 199.5 13.9769 199.485C13.9537 199.47 13.9351 199.449 13.9234 199.424C13.9117 199.399 13.9074 199.372 13.9108 199.344C13.9143 199.317 13.9254 199.291 13.943 199.27L27.645 182.731C27.6571 182.716 27.672 182.704 27.6889 182.695C27.7057 182.686 27.7241 182.681 27.7431 182.679C27.7621 182.677 27.7812 182.679 27.7994 182.685C27.8175 182.69 27.8344 182.699 27.8491 182.712C27.8637 182.724 27.8759 182.739 27.8847 182.756C27.8936 182.772 27.8991 182.791 27.9009 182.81C27.9026 182.829 27.9006 182.848 27.895 182.866C27.8894 182.884 27.8802 182.901 27.8681 182.916L14.1661 199.455C14.1525 199.471 14.1354 199.485 14.1162 199.494C14.0969 199.503 14.0758 199.508 14.0545 199.508Z" fill="white"/>
<path d="M35.2935 238.195C35.2611 238.195 35.229 238.189 35.1985 238.178C35.1259 238.153 35.0663 238.1 35.0328 238.031C34.9994 237.961 34.9947 237.882 35.02 237.809L40.1669 222.993C40.3184 222.558 40.5767 222.168 40.9179 221.858C41.2592 221.549 41.6726 221.33 42.1203 221.222C42.5679 221.113 43.0356 221.119 43.4803 221.239C43.925 221.359 44.3327 221.588 44.6659 221.906L47.3872 224.508C47.4427 224.561 47.475 224.634 47.4767 224.711C47.4785 224.788 47.4497 224.863 47.3966 224.918C47.3435 224.974 47.2705 225.006 47.1936 225.008C47.1167 225.01 47.0423 224.981 46.9867 224.928L44.2658 222.326C44.0027 222.074 43.6809 221.893 43.3298 221.799C42.9787 221.704 42.6095 221.7 42.2561 221.785C41.9026 221.871 41.5763 222.043 41.3068 222.288C41.0374 222.532 40.8336 222.84 40.7139 223.184L35.5673 238C35.5476 238.057 35.5106 238.106 35.4615 238.141C35.4124 238.176 35.3537 238.195 35.2935 238.195Z" fill="#494949"/>
<path d="M54.9884 232.71C58.5515 229.887 58.3397 223.678 54.5155 218.842C50.6912 214.006 44.7026 212.374 41.1395 215.197C37.5764 218.02 37.7882 224.229 41.6124 229.065C45.4367 233.902 51.4253 235.533 54.9884 232.71Z" fill="#0CBC8B"/>
<path d="M29.9672 240.795C29.9021 240.795 29.8389 240.773 29.7878 240.733C29.7367 240.693 29.7007 240.636 29.6855 240.573L21.0482 204.424C20.9891 204.177 20.8633 203.952 20.6846 203.773C20.5059 203.593 20.2813 203.467 20.0354 203.407C19.7895 203.347 19.5318 203.356 19.2907 203.433C19.0497 203.51 18.8345 203.652 18.6688 203.844L16.0062 206.923C15.9816 206.953 15.9514 206.978 15.9171 206.996C15.8829 207.014 15.8454 207.025 15.8068 207.029C15.7682 207.032 15.7294 207.027 15.6925 207.016C15.6557 207.004 15.6216 206.984 15.5924 206.959C15.5631 206.934 15.5392 206.903 15.5221 206.868C15.5049 206.833 15.4949 206.795 15.4927 206.757C15.4904 206.718 15.4959 206.679 15.5089 206.643C15.5218 206.606 15.5419 206.573 15.5681 206.544L18.2305 203.464C18.4658 203.192 18.7717 202.99 19.1143 202.88C19.457 202.771 19.8233 202.758 20.1728 202.843C20.5223 202.928 20.8416 203.108 21.0955 203.363C21.3494 203.618 21.5281 203.939 21.612 204.289L30.2488 240.438C30.2666 240.513 30.2541 240.592 30.2139 240.657C30.1737 240.723 30.1091 240.77 30.0344 240.788C30.0124 240.793 29.9898 240.795 29.9672 240.795Z" fill="#494949"/>
<path d="M26.78 214.954C27.8299 208.877 25.0512 203.322 20.5735 202.547C16.0957 201.771 11.6147 206.07 10.5647 212.148C9.51474 218.225 12.2935 223.78 16.7712 224.555C21.2489 225.33 25.73 221.032 26.78 214.954Z" fill="#0CBC8B"/>
<path d="M32.3058 241.74C32.2939 241.74 32.282 241.74 32.2702 241.738C32.2324 241.734 32.1959 241.722 32.1627 241.703C32.1296 241.684 32.1005 241.659 32.077 241.629C32.0536 241.599 32.0363 241.565 32.0261 241.528C32.016 241.491 32.0131 241.453 32.0178 241.415L37.5333 196.59C37.5934 196.102 37.7932 195.642 38.1085 195.264C38.4238 194.887 38.8413 194.609 39.3108 194.463C39.7803 194.317 40.2818 194.311 40.755 194.444C41.2282 194.577 41.6531 194.843 41.9784 195.212L48.2825 202.359C48.3077 202.388 48.327 202.421 48.3394 202.457C48.3517 202.493 48.3569 202.531 48.3545 202.569C48.3521 202.607 48.3423 202.644 48.3256 202.679C48.3089 202.713 48.2856 202.743 48.257 202.769C48.2285 202.794 48.1953 202.813 48.1593 202.825C48.1233 202.838 48.0852 202.843 48.0472 202.841C48.0092 202.838 47.972 202.828 47.9379 202.812C47.9037 202.795 47.8731 202.772 47.8479 202.743L41.5438 195.596C41.2924 195.311 40.964 195.105 40.5983 195.002C40.2325 194.899 39.8449 194.905 39.4821 195.017C39.1192 195.13 38.7965 195.345 38.5528 195.636C38.3091 195.928 38.1548 196.284 38.1084 196.661L32.5929 241.486C32.5843 241.556 32.5504 241.62 32.4975 241.667C32.4446 241.714 32.3764 241.74 32.3058 241.74Z" fill="#494949"/>
<path d="M54.7476 206.331C56.9471 202.35 54.3592 196.704 48.9673 193.718C43.5754 190.733 37.4214 191.539 35.2219 195.519C33.0223 199.5 35.6103 205.146 41.0021 208.132C46.394 211.117 52.5481 210.311 54.7476 206.331Z" fill="#0CBC8B"/>
<path opacity="0.2" d="M54.9884 232.71C58.5515 229.887 58.3397 223.678 54.5155 218.842C50.6912 214.006 44.7026 212.374 41.1395 215.197C37.5764 218.02 37.7882 224.229 41.6124 229.065C45.4367 233.902 51.4253 235.533 54.9884 232.71Z" fill="white"/>
<path opacity="0.5" d="M26.78 214.954C27.8299 208.877 25.0512 203.322 20.5735 202.547C16.0957 201.771 11.6147 206.07 10.5647 212.148C9.51474 218.225 12.2935 223.78 16.7712 224.555C21.2489 225.33 25.73 221.032 26.78 214.954Z" fill="white"/>
<path opacity="0.5" d="M54.7476 206.331C56.9471 202.35 54.3592 196.704 48.9673 193.718C43.5754 190.733 37.4214 191.539 35.2219 195.519C33.0223 199.5 35.6103 205.146 41.0021 208.132C46.394 211.117 52.5481 210.311 54.7476 206.331Z" fill="white"/>
<path d="M39.3598 279.774H25.2508L22.9126 234.588H41.6977L39.3598 279.774Z" fill="#292A2E"/>
<path opacity="0.3" d="M39.3598 279.774H25.2508L22.9126 234.588H41.6977L39.3598 279.774Z" fill="white"/>
<path d="M54.9895 232.856C54.9676 232.856 54.946 232.851 54.9264 232.841C54.9067 232.832 54.8894 232.818 54.8759 232.8L41.0264 215.287C41.0146 215.273 41.0059 215.255 41.0006 215.237C40.9954 215.219 40.9939 215.2 40.9961 215.181C40.9983 215.162 41.0042 215.143 41.0134 215.127C41.0227 215.11 41.0351 215.096 41.05 215.084C41.065 215.072 41.0821 215.063 41.1004 215.058C41.1187 215.053 41.1378 215.051 41.1567 215.053C41.1756 215.056 41.1939 215.061 41.2105 215.071C41.2271 215.08 41.2418 215.092 41.2536 215.107L55.103 232.62C55.12 232.642 55.1306 232.667 55.1336 232.695C55.1366 232.722 55.1319 232.749 55.12 232.774C55.1082 232.798 55.0896 232.819 55.0665 232.833C55.0434 232.848 55.0167 232.856 54.9895 232.856Z" fill="white"/>
<path d="M53.827 207.734C53.7962 207.734 53.7662 207.723 53.7415 207.705L36.0194 194.752C35.9884 194.729 35.9676 194.695 35.9617 194.657C35.9558 194.619 35.9652 194.58 35.9878 194.549C36.0105 194.518 36.0446 194.498 36.0826 194.492C36.1206 194.486 36.1593 194.495 36.1904 194.518L53.9125 207.471C53.9368 207.489 53.9548 207.515 53.9638 207.544C53.9729 207.573 53.9726 207.604 53.963 207.633C53.9534 207.662 53.9349 207.687 53.9103 207.705C53.8856 207.722 53.856 207.732 53.8256 207.732L53.827 207.734Z" fill="white"/>
<path d="M16.0516 224.366C16.039 224.366 16.0264 224.364 16.0142 224.361C15.9774 224.351 15.9461 224.327 15.927 224.293C15.908 224.26 15.9028 224.221 15.9125 224.184L21.554 203.026C21.5587 203.007 21.567 202.99 21.5785 202.974C21.59 202.959 21.6044 202.946 21.621 202.936C21.6376 202.926 21.6559 202.92 21.675 202.917C21.694 202.915 21.7134 202.916 21.732 202.921C21.7505 202.926 21.7679 202.935 21.7832 202.946C21.7984 202.958 21.8111 202.973 21.8206 202.99C21.8301 203.006 21.8361 203.025 21.8384 203.044C21.8407 203.063 21.8392 203.082 21.8339 203.101L16.1924 224.258C16.1841 224.289 16.1658 224.317 16.1404 224.336C16.1149 224.356 16.0837 224.366 16.0516 224.366Z" fill="white"/>
<path d="M215.032 15.9617H48.5232C43.7227 15.9617 39.8311 19.8571 39.8311 24.6623V208.527C39.8311 213.332 43.7227 217.227 48.5232 217.227H215.032C219.833 217.227 223.724 213.332 223.724 208.527V24.6623C223.724 19.8571 219.833 15.9617 215.032 15.9617Z" fill="white"/>
<path d="M214.867 217.271H48.3574C45.9761 217.268 43.6931 216.32 42.0093 214.635C40.3254 212.949 39.3782 210.664 39.3755 208.281V24.4163C39.3782 22.0327 40.3254 19.7476 42.0093 18.0621C43.6931 16.3766 45.9761 15.4285 48.3574 15.4258H214.867C217.249 15.4285 219.532 16.3765 221.215 18.062C222.899 19.7475 223.847 22.0327 223.849 24.4163V208.281C223.847 210.664 222.899 212.949 221.215 214.635C219.532 216.32 217.249 217.268 214.867 217.271ZM48.3574 16.0058C46.1297 16.0084 43.994 16.8954 42.4188 18.4721C40.8437 20.0488 39.9576 22.1865 39.955 24.4163V208.281C39.9575 210.51 40.8436 212.648 42.4188 214.225C43.994 215.802 46.1297 216.689 48.3574 216.691H214.867C217.095 216.689 219.231 215.802 220.806 214.225C222.381 212.648 223.267 210.51 223.27 208.281V24.4163C223.267 22.1865 222.381 20.0488 220.806 18.4721C219.231 16.8954 217.095 16.0084 214.867 16.0058H48.3574Z" fill="#292A2E"/>
<path d="M223.559 24.4151V31.1401H39.6675V24.4151C39.6675 22.1076 40.5833 19.8946 42.2133 18.2629C43.8434 16.6313 46.0543 15.7146 48.3596 15.7146H214.867C217.173 15.7146 219.383 16.6313 221.014 18.2629C222.644 19.8946 223.559 22.1076 223.559 24.4151Z" fill="#292A2E"/>
<path opacity="0.1" d="M70.3284 84.5516C82.0649 84.5516 91.5793 75.0281 91.5793 63.2802C91.5793 51.5324 82.0649 42.0089 70.3284 42.0089C58.5919 42.0089 49.0776 51.5324 49.0776 63.2802C49.0776 75.0281 58.5919 84.5516 70.3284 84.5516Z" fill="#367CFF"/>
<path opacity="0.2" d="M70.3283 62.3649C74.4048 62.3649 77.7094 59.0571 77.7094 54.9767C77.7094 50.8963 74.4048 47.5885 70.3283 47.5885C66.2519 47.5885 62.9473 50.8963 62.9473 54.9767C62.9473 59.0571 66.2519 62.3649 70.3283 62.3649Z" fill="#367CFF"/>
<path opacity="0.2" d="M86.3043 77.3069C84.3098 79.5832 81.8528 81.407 79.0976 82.6564C76.3423 83.9058 73.3523 84.5519 70.3275 84.5516C67.3027 84.5514 64.3129 83.9047 61.5578 82.6548C58.8028 81.4049 56.3461 79.5807 54.3521 77.304C55.3736 73.8561 57.4811 70.831 60.3603 68.6797C63.2396 66.5285 66.7364 65.3664 70.3293 65.3668C73.9222 65.3671 77.4187 66.5298 80.2976 68.6815C83.1765 70.8333 85.2834 73.8588 86.3043 77.3069Z" fill="#367CFF"/>
<path opacity="0.2" d="M80.3658 99.0626H51.5618C50.5223 99.0626 49.6797 99.9061 49.6797 100.947C49.6797 101.987 50.5223 102.831 51.5618 102.831H80.3658C81.4053 102.831 82.2479 101.987 82.2479 100.947C82.2479 99.9061 81.4053 99.0626 80.3658 99.0626Z" fill="#367CFF"/>
<path opacity="0.1" d="M148.807 43.4374H103.533C101.842 43.4374 100.472 44.8093 100.472 46.5015V52.8567C100.472 54.5489 101.842 55.9207 103.533 55.9207H148.807C150.498 55.9207 151.869 54.5489 151.869 52.8567V46.5015C151.869 44.8093 150.498 43.4374 148.807 43.4374Z" fill="#367CFF"/>
<path opacity="0.2" d="M169.781 62.822H101.92C101.12 62.822 100.472 63.4712 100.472 64.2721C100.472 65.0729 101.12 65.7221 101.92 65.7221H169.781C170.581 65.7221 171.23 65.0729 171.23 64.2721C171.23 63.4712 170.581 62.822 169.781 62.822Z" fill="#367CFF"/>
<path opacity="0.2" d="M169.781 71.5225H101.92C101.12 71.5225 100.472 72.1717 100.472 72.9726C100.472 73.7735 101.12 74.4227 101.92 74.4227H169.781C170.581 74.4227 171.23 73.7735 171.23 72.9726C171.23 72.1717 170.581 71.5225 169.781 71.5225Z" fill="#367CFF"/>
<path opacity="0.2" d="M158.192 80.2231H101.92C101.12 80.2231 100.472 80.8723 100.472 81.6732C100.472 82.474 101.12 83.1233 101.92 83.1233H158.192C158.992 83.1233 159.64 82.474 159.64 81.6732C159.64 80.8723 158.992 80.2231 158.192 80.2231Z" fill="#367CFF"/>
<path opacity="0.1" d="M123.142 108.266H52.4006C50.8979 108.266 49.6797 109.485 49.6797 110.989V117.718C49.6797 119.222 50.8979 120.442 52.4006 120.442H123.142C124.645 120.442 125.863 119.222 125.863 117.718V110.989C125.863 109.485 124.645 108.266 123.142 108.266Z" fill="#367CFF"/>
<path opacity="0.2" d="M167.101 99.0626H138.297C137.257 99.0626 136.415 99.9061 136.415 100.947C136.415 101.987 137.257 102.831 138.297 102.831H167.101C168.14 102.831 168.983 101.987 168.983 100.947C168.983 99.9061 168.14 99.0626 167.101 99.0626Z" fill="#367CFF"/>
<path opacity="0.1" d="M209.877 108.266H139.135C137.633 108.266 136.415 109.485 136.415 110.989V117.718C136.415 119.222 137.633 120.442 139.135 120.442H209.877C211.379 120.442 212.598 119.222 212.598 117.718V110.989C212.598 109.485 211.379 108.266 209.877 108.266Z" fill="#367CFF"/>
<path opacity="0.2" d="M80.3658 130.508H51.5618C50.5223 130.508 49.6797 131.352 49.6797 132.392C49.6797 133.433 50.5223 134.276 51.5618 134.276H80.3658C81.4053 134.276 82.2479 133.433 82.2479 132.392C82.2479 131.352 81.4053 130.508 80.3658 130.508Z" fill="#367CFF"/>
<path opacity="0.1" d="M123.142 139.711H52.4006C50.8979 139.711 49.6797 140.93 49.6797 142.435V149.164C49.6797 150.668 50.8979 151.887 52.4006 151.887H123.142C124.645 151.887 125.863 150.668 125.863 149.164V142.435C125.863 140.93 124.645 139.711 123.142 139.711Z" fill="#367CFF"/>
<path opacity="0.2" d="M167.101 130.508H138.297C137.257 130.508 136.415 131.352 136.415 132.392C136.415 133.433 137.257 134.276 138.297 134.276H167.101C168.14 134.276 168.983 133.433 168.983 132.392C168.983 131.352 168.14 130.508 167.101 130.508Z" fill="#367CFF"/>
<path opacity="0.1" d="M209.877 139.711H139.135C137.633 139.711 136.415 140.93 136.415 142.435V149.164C136.415 150.668 137.633 151.887 139.135 151.887H209.877C211.379 151.887 212.598 150.668 212.598 149.164V142.435C212.598 140.93 211.379 139.711 209.877 139.711Z" fill="#367CFF"/>
<path opacity="0.2" d="M80.3658 161.954H51.5618C50.5223 161.954 49.6797 162.797 49.6797 163.838C49.6797 164.878 50.5223 165.722 51.5618 165.722H80.3658C81.4053 165.722 82.2479 164.878 82.2479 163.838C82.2479 162.797 81.4053 161.954 80.3658 161.954Z" fill="#367CFF"/>
<path opacity="0.1" d="M123.142 171.156H52.4006C50.8979 171.156 49.6797 172.376 49.6797 173.88V180.609C49.6797 182.113 50.8979 183.333 52.4006 183.333H123.142C124.645 183.333 125.863 182.113 125.863 180.609V173.88C125.863 172.376 124.645 171.156 123.142 171.156Z" fill="#367CFF"/>
<path opacity="0.2" d="M167.101 161.954H138.297C137.257 161.954 136.415 162.797 136.415 163.838C136.415 164.878 137.257 165.722 138.297 165.722H167.101C168.14 165.722 168.983 164.878 168.983 163.838C168.983 162.797 168.14 161.954 167.101 161.954Z" fill="#367CFF"/>
<path opacity="0.1" d="M209.877 171.156H139.135C137.633 171.156 136.415 172.376 136.415 173.88V180.609C136.415 182.113 137.633 183.333 139.135 183.333H209.877C211.379 183.333 212.598 182.113 212.598 180.609V173.88C212.598 172.376 211.379 171.156 209.877 171.156Z" fill="#367CFF"/>
<path opacity="0.2" d="M153.722 192.819H109.504C107.72 192.819 106.273 194.267 106.273 196.053V202.023C106.273 203.809 107.72 205.257 109.504 205.257H153.722C155.506 205.257 156.952 203.809 156.952 202.023V196.053C156.952 194.267 155.506 192.819 153.722 192.819Z" fill="#367CFF"/>
<path d="M139.326 51.9968L144.009 57.532L143.719 56.5817C143.631 56.273 143.664 55.9426 143.811 55.6573C143.957 55.3719 144.207 55.1529 144.508 55.0446C144.666 54.994 144.832 54.9762 144.997 54.9921C145.162 55.008 145.321 55.0574 145.466 55.1371C145.612 55.2169 145.739 55.3254 145.841 55.456C145.942 55.5866 146.017 55.7367 146.059 55.8969L148.199 63.9649C148.469 64.9834 148.331 66.0672 147.814 66.9852C147.298 67.9032 146.443 68.5827 145.432 68.8787C144.259 69.2224 143.011 69.2076 141.846 68.8362C140.681 68.4649 139.654 67.7539 138.896 66.7944L135.469 62.4409C135.286 62.2182 135.186 61.9392 135.186 61.6512C135.185 61.3631 135.284 61.0837 135.465 60.8603C135.634 60.6618 135.861 60.5223 136.114 60.4623C136.367 60.4023 136.633 60.4249 136.872 60.5268C136.877 60.5076 136.887 60.4902 136.901 60.4763C136.915 60.4641 136.932 60.4555 136.95 60.4513C136.968 60.4472 136.987 60.4476 137.005 60.4525L136.37 59.6492C136.176 59.4137 136.073 59.1158 136.081 58.8103C136.089 58.5048 136.207 58.2125 136.413 57.9874C136.624 57.7713 136.908 57.6415 137.21 57.6231C137.511 57.6048 137.809 57.6993 138.045 57.8882C138.047 57.8754 138.051 57.863 138.057 57.8516L137.796 57.5222C137.626 57.2965 137.533 57.022 137.53 56.7393C137.528 56.4566 137.617 56.1807 137.783 55.9523C137.987 55.7066 138.279 55.5504 138.596 55.5173C138.913 55.4842 139.231 55.5767 139.481 55.7751L139.497 55.7586L137.53 53.4329C137.429 53.3137 137.353 53.1751 137.308 53.0256C137.262 52.8762 137.247 52.719 137.265 52.5636C137.282 52.4083 137.33 52.258 137.407 52.1221C137.484 51.9861 137.588 51.8673 137.712 51.7729C137.96 51.5984 138.264 51.5245 138.563 51.5661C138.863 51.6076 139.136 51.7616 139.326 51.9968Z" fill="#E98862"/>
<path opacity="0.2" d="M139.433 55.9057C139.438 55.9182 139.445 55.9298 139.454 55.9399L141.392 58.1777C141.402 58.1891 141.414 58.1985 141.427 58.2053C141.441 58.212 141.456 58.2161 141.471 58.2172C141.486 58.2183 141.501 58.2165 141.515 58.2118C141.529 58.207 141.543 58.1995 141.554 58.1897C141.565 58.1799 141.575 58.1679 141.582 58.1544C141.588 58.1409 141.592 58.1262 141.594 58.1112C141.595 58.0962 141.593 58.0811 141.588 58.0667C141.583 58.0524 141.576 58.0391 141.566 58.0277L139.629 55.7908C139.611 55.7721 139.587 55.76 139.561 55.7567C139.535 55.7533 139.509 55.7587 139.487 55.7722C139.464 55.7856 139.447 55.8062 139.438 55.8306C139.428 55.8551 139.428 55.8819 139.436 55.9068L139.433 55.9057Z" fill="#0C0C0C"/>
<path opacity="0.2" d="M138.048 57.9418C138.052 57.954 138.059 57.9652 138.068 57.9752L139.576 59.7443C139.597 59.7654 139.624 59.7781 139.653 59.7796C139.683 59.7811 139.711 59.7713 139.734 59.7523C139.756 59.7333 139.77 59.7065 139.773 59.6774C139.776 59.6483 139.768 59.6191 139.75 59.5958L138.241 57.8267C138.224 57.806 138.2 57.7921 138.173 57.7877C138.146 57.7832 138.119 57.7884 138.095 57.8024C138.072 57.8163 138.054 57.8381 138.046 57.8638C138.037 57.8895 138.038 57.9174 138.048 57.9427L138.048 57.9418Z" fill="#0C0C0C"/>
<path opacity="0.2" d="M136.87 60.6036C136.875 60.6167 136.882 60.6288 136.892 60.6393L137.625 61.4583C137.635 61.4695 137.647 61.4786 137.661 61.4851C137.674 61.4916 137.689 61.4954 137.704 61.4963C137.719 61.4971 137.734 61.495 137.748 61.49C137.762 61.485 137.776 61.4773 137.787 61.4673C137.798 61.4573 137.807 61.4451 137.813 61.4316C137.82 61.4181 137.824 61.4034 137.825 61.3884C137.825 61.3734 137.823 61.3584 137.818 61.3442C137.813 61.33 137.806 61.3169 137.796 61.3057L137.064 60.4864C137.046 60.467 137.022 60.4543 136.995 60.4505C136.969 60.4467 136.943 60.4522 136.92 60.4658C136.897 60.4795 136.88 60.5005 136.871 60.5254C136.863 60.5504 136.863 60.5776 136.871 60.6025L136.87 60.6036Z" fill="#0C0C0C"/>
<path d="M196.041 107.515L155.163 104.651C153.688 104.548 152.273 104.029 151.081 103.153C149.889 102.278 148.969 101.082 148.428 99.7047L135.503 66.7944L150.064 61.0648L161.181 89.3737L197.132 91.8922L196.041 107.515Z" fill="#FAEAD3"/>
<path d="M219.776 266.587C219.776 266.587 218.468 273.373 212.119 273.753C205.77 274.132 207.147 279.194 207.147 279.194H231.409V267.06L219.776 266.587Z" fill="#C51E3A"/>
<path d="M227.26 142.769C227.26 142.769 227.184 140.729 227.2 145.357C227.26 162.622 227.559 182.342 228.29 193.882C229.466 212.432 232.48 270.919 232.48 270.919L216.537 270.785L201.084 142.068L227.26 142.769Z" fill="#262626"/>
<path d="M191.393 266.587C191.393 266.587 190.085 273.373 183.736 273.753C177.387 274.132 178.764 279.194 178.764 279.194H203.026V267.06L191.393 266.587Z" fill="#C51E3A"/>
<path d="M183.674 144.11C183.674 144.11 182.261 203.116 182.468 206L188.397 270.471L204.077 270.761L202.549 203.667C202.549 203.667 203.627 185.159 208.094 167.974C210.38 159.153 211.756 150.121 212.199 141.02L183.674 144.11Z" fill="#262626"/>
<path d="M227.433 142.768L227.485 142.77C227.485 142.77 227.447 141.764 227.433 142.768Z" fill="#333333"/>
<path d="M181.429 111.358C181.758 115.224 183.357 139.347 183.674 144.11H227.241C227.488 139.814 228.593 121.032 229.526 112.632C230.417 104.616 232.165 100.603 230.884 98.2335C228.79 94.3606 223.069 92.1225 219.168 91.5938C216.786 91.271 213.203 91.0396 213.203 91.0396C213.203 91.0396 212.9 97.1825 205.666 97.5244C195.819 97.9884 196.477 91.0396 196.428 91.0396C194.833 91.0396 185.544 91.7905 183.49 93.3731C179.898 96.141 180.731 103.164 181.429 111.358Z" fill="#FAEAD3"/>
<path d="M180.828 106.513C180.791 106.513 180.755 106.499 180.728 106.473C180.701 106.448 180.685 106.413 180.683 106.376L180.333 100.236C180.331 100.198 180.344 100.16 180.369 100.131C180.395 100.103 180.431 100.085 180.469 100.083C180.507 100.081 180.545 100.095 180.573 100.12C180.602 100.146 180.62 100.181 180.622 100.22L180.974 106.359C180.976 106.398 180.963 106.435 180.937 106.464C180.912 106.493 180.876 106.51 180.837 106.512L180.828 106.513Z" fill="#0C0C0C"/>
<path d="M236.661 143.857C237.943 143.857 239.205 143.547 240.341 142.953C241.477 142.36 242.453 141.5 243.186 140.448C243.919 139.395 244.386 138.182 244.55 136.909C244.713 135.637 244.567 134.344 244.123 133.141C243.673 131.919 233.121 103.949 231.112 98.7662L216.237 104.799C217.367 107.713 221.459 118.758 224.747 127.655L219.285 127.061L217.566 142.892L235.8 143.81C236.086 143.841 236.374 143.857 236.661 143.857Z" fill="#FAEAD3"/>
<path d="M191.238 90.51C191.287 90.5036 192.623 95.5378 203.053 94.7544C210.273 94.213 212.035 89.2934 212.199 89.2934C211.421 89.1278 210.157 88.9558 209.811 88.7713C208.674 88.16 207.846 87.4155 207.429 85.8181C207.103 84.5687 206.936 79.7593 206.936 77.3464L195.825 79.8455C195.98 82.5676 197.064 88.8775 193.265 89.9944C192.633 90.1788 191.953 90.3488 191.238 90.51Z" fill="#E98862"/>
<path d="M196.21 85.1965C200.591 85.5425 206.217 83.6913 207.286 77.842L208.25 72.5636C209.319 66.7142 207.116 61.4104 201.615 60.4032C196.113 59.3959 191.134 63.3848 190.065 69.2342L189.638 71.5709C189.228 73.8156 188.396 84.5794 196.21 85.1965Z" fill="#E98862"/>
<path d="M192.149 79.826C192.935 75.8719 193.296 73.2336 193.254 70.4503C192.146 68.5072 192.438 66.274 192.689 65.31C191.927 65.795 191.03 66.0252 190.129 65.9675C190.129 65.9675 191.96 58.6103 198.183 56.6306C199.328 56.1846 202.251 55.6214 206.131 56.1541C209.432 56.6071 217.567 59.0775 218.73 68.2459V68.2511C218.768 68.555 219.549 77.0024 221.105 81.0554C223.199 86.504 226.138 88.1968 226.064 94.4832C225.968 102.569 211.117 103.645 202.16 103.041C193.204 102.436 188.203 99.4875 188.137 93.6602C188.069 87.131 190.576 87.7374 192.149 79.826Z" fill="#0A0A0A"/>
<path d="M228.173 112.794L227.102 144.106L227.392 144.116L228.462 112.804L228.173 112.794Z" fill="#0C0C0C"/>
<path d="M209.256 163.128C209.256 163.128 208.595 175.657 208.473 178.598C208.19 185.401 208.092 192.443 208.092 200.429L205.579 179.495C205.579 179.495 207.416 172.935 209.256 163.128Z" fill="#0A0A0A"/>
</svg>
