<svg width="18" height="24" viewBox="0 0 18 24" fill="none" xmlns="http://www.w3.org/2000/svg">
<path d="M18 10.2934V19.8934C18 21.8134 16.5 23.4134 14.7 23.4134H10.85C10.45 23.4134 10.15 23.0934 10.15 22.6667C10.15 22.2401 10.45 21.9201 10.85 21.9201H14.7C15.75 21.9201 16.6 21.0134 16.6 19.8934V10.5601C16.6 6.18675 13.45 2.45341 9.4 2.24008C5.05 2.02675 1.4 5.70674 1.4 10.2934V18.9334C1.4 19.3601 1.1 19.6801 0.7 19.6801C0.35 19.6801 0 19.3067 0 18.9334V10.5601C0 5.38674 3.8 0.960079 8.65 0.746745C13.75 0.533412 18 4.90674 18 10.2934Z" fill="#E7E3E6"/>
</svg>
