<svg width="24" height="24" viewBox="0 0 24 24" fill="none" xmlns="http://www.w3.org/2000/svg">
<path fill-rule="evenodd" clip-rule="evenodd" d="M21.4286 0H2.57143C1.152 0 0 1.152 0 2.57143V21.4286C0 22.848 1.152 24 2.57143 24H21.4286C22.848 24 24 22.848 24 21.4286V2.57143C24 1.152 22.848 0 21.4286 0ZM11.1429 22.2857H2.57143C2.09829 22.2857 1.71429 21.9017 1.71429 21.4286V18.8571H11.1429V22.2857ZM22.2857 18.8571V21.4286C22.2857 21.9017 21.9017 22.2857 21.4286 22.2857H12.8571V18.8571H22.2857ZM6.85714 1.71429V17.1429H1.71429V2.57143C1.71429 2.09829 2.09829 1.71429 2.57143 1.71429H6.85714ZM8.57143 10.2857V17.1429H22.2857V10.2857H8.57143ZM8.57143 1.71429H21.4286C21.9017 1.71429 22.2857 2.09829 22.2857 2.57143V8.57143H8.57143V1.71429Z" fill="#484848"/>
</svg>
