<svg xmlns="http://www.w3.org/2000/svg" width="163.839" height="163.839" fill-rule="evenodd" clip-rule="evenodd" image-rendering="optimizeQuality" shape-rendering="geometricPrecision" text-rendering="geometricPrecision" viewBox="0 0 4335 4335"><path fill="#ffc305" d="M2748 2235l-406 -637c-53,26 -112,40 -175,40 -62,0 -121,-14 -174,-40l-406 637 -855 -369c-45,55 -104,98 -172,123l265 1077 2685 0 264 -1077c-67,-25 -127,-68 -171,-123l-855 369z"/><polygon fill="#ff9e05" points="3510 3066 825 3066 825 3518 3510 3518"/><circle cx="2167" cy="2479" r="416" fill="#ff9e05"/><circle cx="2167" cy="2479" r="313" fill="#ff244b"/><circle cx="2167" cy="1240" r="423" fill="#ff9e05"/><circle cx="3912" cy="1615" r="423" fill="#ff9e05"/><circle cx="423" cy="1615" r="423" fill="#ff9e05"/><circle cx="3912" cy="1615" r="269" fill="#ffc305"/><circle cx="2167" cy="1240" r="269" fill="#ffc305"/><circle cx="423" cy="1615" r="269" fill="#ffc305"/><polygon fill="#ff8005" points="3510 3161 825 3161 825 3235 3510 3235"/><polygon fill="#ff8005" points="3510 3349 825 3349 825 3422 3510 3422"/></svg>