<svg width="235" height="226" viewBox="0 0 235 226" fill="none" xmlns="http://www.w3.org/2000/svg">
<path d="M226.207 1.10904C225.715 0.442592 224.776 0.301206 224.109 0.793255L213.248 8.81176C212.582 9.30381 212.441 10.243 212.933 10.9094C213.425 11.5759 214.364 11.7173 215.03 11.2252L224.684 4.09768L231.812 13.7516C232.304 14.418 233.243 14.5594 233.909 14.0674C234.576 13.5753 234.717 12.6362 234.225 11.9697L226.207 1.10904ZM1.27049 225.475C80.8321 210.889 131.941 190.355 165.768 155.675C199.602 120.987 215.922 72.3762 226.483 2.2233L223.517 1.77668C212.98 71.7708 196.775 119.59 163.621 153.58C130.46 187.577 80.1184 207.97 0.729506 222.525L1.27049 225.475Z" fill="white"/>
</svg>
