<svg width="36" height="36" viewBox="0 0 36 36" fill="none" xmlns="http://www.w3.org/2000/svg">
<path d="M30.6 0H5.4C2.41766 0 0 2.41766 0 5.4V30.6C0 33.5823 2.41766 36 5.4 36H30.6C33.5823 36 36 33.5823 36 30.6V5.4C36 2.41766 33.5823 0 30.6 0Z" fill="#45D354"/>
<path d="M21.656 19.1952C21.4451 19.0546 21.2342 18.9843 21.0232 19.2655L20.1795 20.3905C19.9685 20.5311 19.8279 20.6014 19.5467 20.4608C18.492 19.8983 17.0154 19.2655 15.7498 17.1561C15.6795 16.8749 15.8201 16.7343 15.9607 16.5936L16.5935 15.6093C16.7342 15.4686 16.6639 15.328 16.5935 15.1874L15.7498 13.1483C15.5389 12.5858 15.3279 12.6561 15.117 12.6561H14.5545C14.4139 12.6561 14.1326 12.7264 13.8514 13.0077C12.3045 14.5546 12.9373 16.7343 14.0623 18.1405C14.2732 18.4218 15.6795 20.953 18.7029 22.2889C20.9529 23.2733 21.4451 23.1327 22.0779 22.9921C22.8514 22.9218 23.6248 22.2889 23.9764 21.6561C24.0467 21.4452 24.3982 20.5311 24.117 20.3905" fill="white"/>
<path d="M18.5625 27C15.6797 27 13.5 25.4531 13.5 25.4531L10.0547 26.3672L10.8984 22.9922C10.8984 22.9922 9.49219 20.8125 9.49219 18.0703C9.49219 13.0078 13.6406 8.78906 18.7734 8.78906C23.5547 8.78906 27.6328 12.5156 27.6328 17.7188C27.6328 22.7812 23.5547 26.9297 18.5625 27ZM7.38281 29.0391L13.2188 27.4219C14.9089 28.2872 16.7927 28.7048 18.6902 28.6349C20.5877 28.565 22.4357 28.01 24.0576 27.0227C25.6796 26.0354 27.0214 24.6489 27.955 22.9955C28.8887 21.342 29.3829 19.4769 29.3906 17.5781C29.3906 11.5312 24.6094 6.67969 18.5625 6.67969C16.6217 6.68465 14.716 7.19798 13.0353 8.16856C11.3546 9.13914 9.95747 10.5331 8.98309 12.2116C8.0087 13.8901 7.49104 15.7946 7.48168 17.7354C7.47231 19.6762 7.97155 21.5856 8.92969 23.2734" fill="white"/>
</svg>
